<svg xmlns="http://www.w3.org/2000/svg" viewBox="0 0 500 500"><g id="freepik--background-complete--inject-7"><rect x="416.78" y="398.49" width="33.12" height="0.25" style="fill:#ebebeb"></rect><rect x="322.53" y="401.21" width="8.69" height="0.25" style="fill:#ebebeb"></rect><rect x="396.59" y="389.21" width="19.19" height="0.25" style="fill:#ebebeb"></rect><rect x="52.46" y="390.89" width="43.19" height="0.25" style="fill:#ebebeb"></rect><rect x="104.56" y="390.89" width="6.33" height="0.25" style="fill:#ebebeb"></rect><rect x="131.47" y="395.11" width="93.68" height="0.25" style="fill:#ebebeb"></rect><path d="M237,337.8H43.92a5.71,5.71,0,0,1-5.71-5.71V60.66A5.71,5.71,0,0,1,43.92,55H237a5.71,5.71,0,0,1,5.71,5.71V332.09A5.71,5.71,0,0,1,237,337.8ZM43.92,55.2a5.47,5.47,0,0,0-5.46,5.46V332.09a5.47,5.47,0,0,0,5.46,5.46H237a5.47,5.47,0,0,0,5.46-5.46V60.66A5.47,5.47,0,0,0,237,55.2Z" style="fill:#ebebeb"></path><path d="M453.31,337.8H260.21a5.72,5.72,0,0,1-5.71-5.71V60.66A5.72,5.72,0,0,1,260.21,55h193.1A5.71,5.71,0,0,1,459,60.66V332.09A5.71,5.71,0,0,1,453.31,337.8ZM260.21,55.2a5.47,5.47,0,0,0-5.46,5.46V332.09a5.47,5.47,0,0,0,5.46,5.46h193.1a5.47,5.47,0,0,0,5.46-5.46V60.66a5.47,5.47,0,0,0-5.46-5.46Z" style="fill:#ebebeb"></path><rect y="382.4" width="500" height="0.25" style="fill:#ebebeb"></rect><rect x="264.11" y="69.95" width="28.99" height="38.91" transform="translate(557.21 178.81) rotate(180)" style="fill:#f0f0f0"></rect><rect x="261.71" y="70.75" width="28.99" height="38.91" transform="translate(552.41 180.41) rotate(180)" style="fill:#f5f5f5"></rect><rect x="288.92" y="73.19" width="9.19" height="43.43" style="fill:#e0e0e0"></rect><polygon points="281.56 73.19 260.69 102.66 260.69 116.62 288.92 116.62 288.92 73.19 281.56 73.19" style="fill:#ebebeb"></polygon><path d="M296.34,109.66a2.82,2.82,0,1,1-2.82-2.82A2.82,2.82,0,0,1,296.34,109.66Z" style="fill:#fafafa"></path><rect x="290.7" y="83.38" width="5.64" height="18.34" style="fill:#f0f0f0"></rect><rect x="290.7" y="83.38" width="5.64" height="2.59" style="fill:#fafafa;opacity:0.6000000000000001"></rect><path d="M252.89,105.87V98.8a.68.68,0,0,0,0-1.36l-8.09,0v9.82h8.09A.68.68,0,0,0,252.89,105.87Z" style="fill:#ebebeb"></path><rect x="246.61" y="98.8" width="6.28" height="7.06" style="fill:#f5f5f5"></rect><path d="M247.93,106.55H226.14c-1.5,0-2.71-1.89-2.71-4.22s1.21-4.21,2.71-4.21h21.79Z" style="fill:#fafafa"></path><path d="M247.93,97.44c-7.13,0-14.28-.12-21.41,0-4.88.09-5.15,9.46-.36,9.79,3.34.22,6.78,0,10.13,0h11.64a.68.68,0,0,0,0-1.36H227.65c-1.57,0-2.69,0-3.29-1.86-.52-1.6-.36-4.86,1.78-5.21a4.57,4.57,0,0,1,.74,0h21.05a.68.68,0,0,0,0-1.36Z" style="fill:#e6e6e6"></path><path d="M253,96.32V90a.61.61,0,0,0,0-1.21c-2.4,0-4.79,0-7.19,0v8.72H253A.6.6,0,0,0,253,96.32Z" style="fill:#ebebeb"></path><rect x="247.38" y="90.04" width="5.58" height="6.28" style="fill:#f5f5f5"></rect><path d="M248.55,96.92H229.19c-1.33,0-2.41-1.67-2.41-3.74s1.08-3.75,2.41-3.75h19.36Z" style="fill:#fafafa"></path><path d="M248.55,88.83c-6.33,0-12.68-.11-19,0-4.34.08-4.58,8.4-.32,8.69,3,.21,6,0,9,0h10.34a.6.6,0,0,0,0-1.2h-18c-1.39,0-2.38,0-2.92-1.66-.47-1.41-.32-4.31,1.58-4.62a3.64,3.64,0,0,1,.66,0h18.7a.61.61,0,0,0,0-1.21Z" style="fill:#e6e6e6"></path><path d="M252.89,115.48v-7.07a.68.68,0,0,0,0-1.35c-2.69,0-5.39,0-8.09,0v9.82h8.09A.68.68,0,0,0,252.89,115.48Z" style="fill:#ebebeb"></path><rect x="246.61" y="108.41" width="6.28" height="7.06" style="fill:#f5f5f5"></rect><path d="M247.93,116.16H226.14c-1.5,0-2.71-1.89-2.71-4.21s1.21-4.22,2.71-4.22h21.79Z" style="fill:#fafafa"></path><path d="M247.93,107.06c-7.13,0-14.28-.13-21.41,0-4.88.08-5.15,9.45-.36,9.78,3.34.23,6.78,0,10.13,0h11.64a.68.68,0,0,0,0-1.36H227.65c-1.57,0-2.69,0-3.29-1.86-.52-1.6-.36-4.86,1.78-5.21a4.57,4.57,0,0,1,.74,0h21.05a.68.68,0,0,0,0-1.35Z" style="fill:#e6e6e6"></path><rect x="128.26" y="116.27" width="243.48" height="7.05" style="fill:#f5f5f5"></rect><polygon points="358.62 140.44 358.62 123.31 367.18 123.31 358.62 140.44" style="fill:#e0e0e0"></polygon><polygon points="362.9 140.44 371.47 123.31 367.18 123.31 358.62 140.44 362.9 140.44" style="fill:#f5f5f5"></polygon><polygon points="141.11 140.44 141.11 123.31 132.54 123.31 141.11 140.44" style="fill:#e0e0e0"></polygon><polygon points="136.82 140.44 128.26 123.31 132.54 123.31 141.11 140.44 136.82 140.44" style="fill:#f5f5f5"></polygon><path d="M344.56,97.73v-.64a18.64,18.64,0,1,0-37.27,0v19.28h37.27Z" style="fill:#f0f0f0"></path><path d="M311.37,97.09a14.56,14.56,0,1,0,14.55-14.56A14.56,14.56,0,0,0,311.37,97.09Z" style="fill:#fafafa"></path><path d="M325.92,84.83a14.53,14.53,0,0,0-14.49,13.4c0-.38-.06-.76-.06-1.14a14.56,14.56,0,1,1,29.11,0c0,.38,0,.76-.06,1.14A14.53,14.53,0,0,0,325.92,84.83Z" style="fill:#e6e6e6"></path><path d="M316.73,97.08h7.65V89.42a1.54,1.54,0,1,1,3.08,0v9.2a1.53,1.53,0,0,1-1.54,1.54h-9.19a1.54,1.54,0,0,1,0-3.08Z" style="fill:#e0e0e0"></path><path d="M316.73,98.63a1.54,1.54,0,0,1,0-3.08h9.19a1.54,1.54,0,0,1,0,3.08Z" style="fill:#f5f5f5"></path><path d="M324.38,87.89a1.54,1.54,0,1,1,3.08,0v9.2a1.54,1.54,0,1,1-3.08,0Z" style="fill:#ebebeb"></path><polygon points="210.96 116.43 183.51 116.43 186.55 81.61 214.01 81.61 210.96 116.43" style="fill:#ebebeb"></polygon><polygon points="210.96 116.43 212.27 116.43 215.32 81.61 214.01 81.61 210.96 116.43" style="fill:#e0e0e0"></polygon><polygon points="208.47 112.88 186.62 112.88 189.04 85.16 210.9 85.16 208.47 112.88" style="fill:#e0e0e0"></polygon><polygon points="206.88 110.6 188.62 110.6 190.64 87.44 208.9 87.44 206.88 110.6" style="fill:#fafafa"></polygon><path d="M198.48,103.8a6.29,6.29,0,1,0,0-12.57C195,91.23,195,103.8,198.48,103.8Z" style="fill:#e6e6e6"></path><polygon points="187.15 116.43 189.03 94.88 161.7 94.88 159.81 116.43 187.15 116.43" style="fill:#f0f0f0"></polygon><polygon points="187.15 116.43 189.03 94.88 190.51 94.88 188.62 116.43 187.15 116.43" style="fill:#e0e0e0"></polygon><polygon points="184.55 114.24 186.06 97.08 164.29 97.08 162.79 114.24 184.55 114.24" style="fill:#fafafa"></polygon><polygon points="182.89 112.82 184.14 98.49 165.96 98.49 164.71 112.82 182.89 112.82" style="fill:#ebebeb"></polygon><path d="M174.45,108.86a4.06,4.06,0,0,0,0-8.12C172.2,100.74,172.2,108.86,174.45,108.86Z" style="fill:#f5f5f5"></path><path d="M78.48,340.3a.37.37,0,0,1-.13-.28c-.09-2-1.27-21.23-13.07-34.42-10-11.17.26-3.2,4.7.39a.41.41,0,0,0,.61-.53c-3.13-5.29-11-19.28-8.26-22,2.57-2.57,7.89,10.21,10.26,16.41a.42.42,0,0,0,.8-.19c-.69-6.56-1.68-20.28,2-19.8s2.64,18.6,1.92,27.47a.41.41,0,0,0,.8.15C79.77,302,82.91,294,86.6,296.11c5.46,3.16-8,14.27-7.19,26.32C80.24,334.25,80.46,342,78.48,340.3Z" style="fill:#f5f5f5"></path><path d="M84.1,343.71s.07-.19.18-.27c13.59-9.41,10.24-30.11,6.11-42.95a34.92,34.92,0,0,1-2-8.87c2.89,3.46,4.62,8,6.55,12.13.26.54.89.35.8-.24-1-6.62-1.44-27.43,4.57-27.06,2.72.17-.3,18.27-.42,22,0,.59.72.82.87.27,1.78-6.43,14-19.69,16.28-17,1,1.13-4.79,7.36-6.74,10.29-3.67,5.49-6.18,11.62-8.52,17.76-.2.54.46,1.11.75.65,2.18-3.43,10.29-11.68,13-7.59,2,3-3.33,7.25-5.94,9.8C105,317.06,100.54,322,98.29,328,96.76,332.12,85.74,345.9,84.1,343.71Z" style="fill:#f5f5f5"></path><path d="M85.76,341.73a.46.46,0,0,0,.14-.35c0-2.39.15-25.85,13.6-42.65,11.38-14.22-.52-3.87-5.68.78a.5.5,0,0,1-.78-.6c3.46-6.63,12.07-24.14,8.59-27.26-3.3-3-8.91,12.91-11.39,20.59a.5.5,0,0,1-1-.18c.39-8,.7-24.73-3.75-23.9s-2,22.76-.52,33.48a.5.5,0,0,1-1,.24c-2.37-6.52-6.71-16.11-11.05-13.27-6.42,4.2,10.7,16.8,10.47,31.49C83.23,334.5,83.47,343.92,85.76,341.73Z" style="fill:#e6e6e6"></path><path d="M94.85,377.68c4.08-15.2,6.77-36.62,6.77-41.89H71.2c0,5.27,2.68,26.69,6.76,41.89a6.4,6.4,0,0,0,6.19,4.73h4.52A6.4,6.4,0,0,0,94.85,377.68Z" style="fill:#e6e6e6"></path><path d="M427.66,381.43H400.28a6.26,6.26,0,0,1-6.25-5.92l-3.35-62.79h46.57l-3.34,62.79A6.26,6.26,0,0,1,427.66,381.43Z" style="fill:#e6e6e6"></path><rect x="407.66" y="316.58" width="12.62" height="12.62" style="fill:#fafafa"></rect><rect x="407.66" y="332.3" width="12.62" height="12.62" style="fill:#fafafa"></rect><rect x="407.66" y="348.03" width="12.62" height="12.62" style="fill:#fafafa"></rect><rect x="407.66" y="363.76" width="12.62" height="12.62" style="fill:#fafafa"></rect><rect x="388.01" y="308.15" width="51.91" height="4.58" rx="1.25" style="fill:#f5f5f5"></rect><path d="M430.86,363.76h-7.33v12.61h6.41a2.51,2.51,0,0,0,.31-1.06Z" style="fill:#fafafa"></path><path d="M404.41,363.76h-7.34l.62,11.55a2.51,2.51,0,0,0,.31,1.06h6.41Z" style="fill:#fafafa"></path><polygon points="404.41 348.03 396.24 348.03 396.91 360.65 404.41 360.65 404.41 348.03" style="fill:#fafafa"></polygon><polygon points="404.41 332.3 395.4 332.3 396.07 344.92 404.41 344.92 404.41 332.3" style="fill:#fafafa"></polygon><polygon points="404.41 316.57 394.56 316.57 395.23 329.19 404.41 329.19 404.41 316.57" style="fill:#fafafa"></polygon><polygon points="423.53 348.03 423.53 360.65 431.03 360.65 431.7 348.03 423.53 348.03" style="fill:#fafafa"></polygon><polygon points="423.53 332.3 423.53 344.92 431.87 344.92 432.54 332.3 423.53 332.3" style="fill:#fafafa"></polygon><polygon points="423.53 316.57 423.53 329.19 432.71 329.19 433.38 316.57 423.53 316.57" style="fill:#fafafa"></polygon></g><g id="freepik--Shadow--inject-7"><ellipse id="freepik--path--inject-7" cx="245.18" cy="412.39" rx="193.89" ry="11.32" style="fill:#f5f5f5"></ellipse></g><g id="freepik--Device--inject-7"><path d="M262.44,276.73h24.19a2.65,2.65,0,0,1,2.65,2.65v1.47a2.65,2.65,0,0,1-2.65,2.65H262.44a0,0,0,0,1,0,0v-6.77A0,0,0,0,1,262.44,276.73Z" style="fill:#263238"></path><path d="M215.15,276.73h51.47a2.46,2.46,0,0,1,2.46,2.46V281a2.46,2.46,0,0,1-2.46,2.46H215.15a2.47,2.47,0,0,1-2.47-2.47V279.2A2.46,2.46,0,0,1,215.15,276.73Z"></path><path d="M215.15,276.73h51.47a2.46,2.46,0,0,1,2.46,2.46V281a2.46,2.46,0,0,1-2.46,2.46H215.15a2.47,2.47,0,0,1-2.47-2.47V279.2A2.46,2.46,0,0,1,215.15,276.73Z" style="fill:#fff;opacity:0.5"></path><polygon points="255.32 276.74 268.36 276.74 260.01 245.54 255.32 245.54 255.32 276.74" style="fill:#263238"></polygon><polygon points="266.46 276.74 239.84 276.74 237.19 245.54 258.11 245.54 266.46 276.74"></polygon><polygon points="266.46 276.74 239.84 276.74 237.19 245.54 258.11 245.54 266.46 276.74" style="fill:#fff;opacity:0.30000000000000004"></polygon><path d="M333.51,155.89h-12.1L312,263h12.1a5.11,5.11,0,0,0,5-4.59l8.56-97.9A4.13,4.13,0,0,0,333.51,155.89Z" style="fill:#263238"></path><path d="M321.35,263H174.87a4.13,4.13,0,0,1-4.18-4.59l8.56-97.9a5.11,5.11,0,0,1,5-4.58H330.72a4.13,4.13,0,0,1,4.18,4.58l-8.56,97.9A5.11,5.11,0,0,1,321.35,263Z" style="fill:#263238"></path><path d="M321.35,263H174.87a4.13,4.13,0,0,1-4.18-4.59l8.56-97.9a5.11,5.11,0,0,1,5-4.58H330.72a4.13,4.13,0,0,1,4.18,4.58l-8.56,97.9A5.11,5.11,0,0,1,321.35,263Z" style="fill:#fff;opacity:0.7000000000000001"></path><path d="M317.44,250.46H181a3.58,3.58,0,0,1-3.63-4l7.11-81.34a4.44,4.44,0,0,1,4.33-4H325.25a3.58,3.58,0,0,1,3.63,4l-7.11,81.34A4.44,4.44,0,0,1,317.44,250.46Z" style="fill:#fafafa;opacity:0.9"></path><polygon points="281.71 189.88 276.94 189.88 277.77 180.33 282.55 180.33 281.71 189.88" style="fill:#5F34B4"></polygon><polygon points="281.71 189.88 276.94 189.88 277.77 180.33 282.55 180.33 281.71 189.88" style="opacity:0.2"></polygon><polygon points="291.26 189.88 286.49 189.88 287.74 175.56 292.51 175.56 291.26 189.88" style="fill:#5F34B4"></polygon><polygon points="300.81 189.88 296.03 189.88 297.08 177.95 301.85 177.95 300.81 189.88" style="fill:#5F34B4"></polygon><polygon points="310.36 189.88 305.58 189.88 307.25 170.79 312.03 170.79 310.36 189.88" style="fill:#5F34B4"></polygon><polygon points="310.36 189.88 305.58 189.88 307.25 170.79 312.03 170.79 310.36 189.88" style="opacity:0.4"></polygon><path d="M315.13,189h-42q.79-9.1,1.6-18.21c.1-1.13-1.67-1.13-1.77,0q-.82,9.54-1.67,19.09a.89.89,0,0,0,.88.88h43A.88.88,0,0,0,315.13,189Z" style="fill:#5F34B4"></path><path d="M315.13,189h-42q.79-9.1,1.6-18.21c.1-1.13-1.67-1.13-1.77,0q-.82,9.54-1.67,19.09a.89.89,0,0,0,.88.88h43A.88.88,0,0,0,315.13,189Z" style="fill:#fff;opacity:0.5"></path><path d="M203,184.71l-3.11,2.87a9.92,9.92,0,0,0,7.42,3.18l.35-4A6.24,6.24,0,0,1,203,184.71Z" style="fill:#5F34B4"></path><path d="M203,184.71l-3.11,2.87a9.92,9.92,0,0,0,7.42,3.18l.35-4A6.24,6.24,0,0,1,203,184.71Z" style="opacity:0.5"></path><path d="M215.05,179.88a7.62,7.62,0,0,1-7.44,6.84l-.35,4a12.12,12.12,0,0,0,11.84-10.88Z" style="fill:#5F34B4"></path><path d="M215.05,179.88a7.62,7.62,0,0,1-7.44,6.84l-.35,4a12.12,12.12,0,0,0,11.84-10.88Z" style="opacity:0.1"></path><path d="M203,184.71a6.28,6.28,0,0,1-1.58-4.83h-4a10,10,0,0,0,2.51,7.7Z" style="fill:#5F34B4"></path><path d="M208.81,173a6.16,6.16,0,0,1,6.24,6.84h4A9.82,9.82,0,0,0,209.17,169a12.12,12.12,0,0,0-11.84,10.89h4A7.61,7.61,0,0,1,208.81,173Z" style="fill:#5F34B4"></path><path d="M208.81,173a6.16,6.16,0,0,1,6.24,6.84h4A9.82,9.82,0,0,0,209.17,169a12.12,12.12,0,0,0-11.84,10.89h4A7.61,7.61,0,0,1,208.81,173Z" style="fill:#fff;opacity:0.2"></path><path d="M213.47,175l3.11-2.86a9.9,9.9,0,0,0-7.41-3.19l-.36,4A6.22,6.22,0,0,1,213.47,175Z" style="fill:#fff;opacity:0.6000000000000001"></path><path d="M233.27,184.71l-3.11,2.87a9.93,9.93,0,0,0,7.42,3.18l.36-4A6.25,6.25,0,0,1,233.27,184.71Z" style="fill:#5F34B4"></path><path d="M233.27,184.71l-3.11,2.87a9.93,9.93,0,0,0,7.42,3.18l.36-4A6.25,6.25,0,0,1,233.27,184.71Z" style="opacity:0.5"></path><path d="M245.37,179.88a7.62,7.62,0,0,1-7.43,6.84l-.36,4a12.12,12.12,0,0,0,11.84-10.88Z" style="fill:#5F34B4"></path><path d="M245.37,179.88a7.62,7.62,0,0,1-7.43,6.84l-.36,4a12.12,12.12,0,0,0,11.84-10.88Z" style="opacity:0.1"></path><path d="M233.27,184.71a6.31,6.31,0,0,1-1.58-4.83h-4a10,10,0,0,0,2.51,7.7Z" style="fill:#5F34B4"></path><path d="M239.13,173a6.16,6.16,0,0,1,6.24,6.84h4A9.82,9.82,0,0,0,239.49,169a12.12,12.12,0,0,0-11.84,10.89h4A7.61,7.61,0,0,1,239.13,173Z" style="fill:#5F34B4"></path><path d="M239.13,173a6.16,6.16,0,0,1,6.24,6.84h4A9.82,9.82,0,0,0,239.49,169a12.12,12.12,0,0,0-11.84,10.89h4A7.61,7.61,0,0,1,239.13,173Z" style="fill:#fff;opacity:0.2"></path><path d="M243.79,175l3.11-2.86a9.9,9.9,0,0,0-7.41-3.19l-.36,4A6.22,6.22,0,0,1,243.79,175Z" style="fill:#fff;opacity:0.6000000000000001"></path><path d="M278.83,225.3h-5.7l.49-5.7h5.71Zm-4.36-1.24h3.22l.29-3.22h-3.22Z" style="fill:#5F34B4"></path><path d="M278.07,234h-5.7l.49-5.7h5.71Zm-4.35-1.24h3.22l.28-3.22H274Z" style="fill:#5F34B4"></path><path d="M277.31,242.65h-5.7l.5-5.69h5.7ZM273,241.42h3.22l.28-3.23h-3.22Z" style="fill:#5F34B4"></path><path d="M282.78,224a1.25,1.25,0,0,1-1.27-1.39,1.55,1.55,0,0,1,1.51-1.39h19.07a1.25,1.25,0,0,1,1.27,1.39,1.54,1.54,0,0,1-1.51,1.39Z" style="fill:#5F34B4"></path><path d="M282.78,224a1.25,1.25,0,0,1-1.27-1.39,1.55,1.55,0,0,1,1.51-1.39h19.07a1.25,1.25,0,0,1,1.27,1.39,1.54,1.54,0,0,1-1.51,1.39Z" style="fill:#fff;opacity:0.7000000000000001"></path><path d="M281.27,241.2a1.27,1.27,0,0,1-1.27-1.39,1.55,1.55,0,0,1,1.52-1.39h16a1.25,1.25,0,0,1,1.26,1.39,1.55,1.55,0,0,1-1.51,1.39Z" style="fill:#5F34B4"></path><path d="M281.27,241.2a1.27,1.27,0,0,1-1.27-1.39,1.55,1.55,0,0,1,1.52-1.39h16a1.25,1.25,0,0,1,1.26,1.39,1.55,1.55,0,0,1-1.51,1.39Z" style="fill:#fff;opacity:0.4"></path><path d="M282,232.52a1.26,1.26,0,0,1-1.27-1.39,1.55,1.55,0,0,1,1.52-1.39H297a1.26,1.26,0,0,1,1.27,1.39,1.55,1.55,0,0,1-1.51,1.39Z" style="fill:#5F34B4"></path><path d="M282,232.52a1.26,1.26,0,0,1-1.27-1.39,1.55,1.55,0,0,1,1.52-1.39H297a1.26,1.26,0,0,1,1.27,1.39,1.55,1.55,0,0,1-1.51,1.39Z" style="fill:#fff;opacity:0.2"></path><path d="M263.53,233.56q-2.14-3-4.31-5.89a.91.91,0,0,0-1.4-.18l-4.57,5c-1.2-2-2.39-3.93-3.59-5.9a.9.9,0,0,0-1.4-.19c-1.58,1.45-3.12,2.95-4.74,4.36-.48-.26-1-.56-1.42-.84l-2.6-1.54a.91.91,0,0,0-1.22.32l-4.62,6.69q-1.72-3.34-3.44-6.69a.91.91,0,0,0-1.22-.32l-2.21,1.18c-.44.25-2,1-2.38,1.33a18.1,18.1,0,0,0-1.92-1.14l-2.31-1.37a.89.89,0,0,0-.9,1.54c1.28.76,3.56,2.87,5.07,2.86s3.31-1.44,4.74-2.37l3.69,7.16a.9.9,0,0,0,1.54,0l5-7.23,3.88,2.29a.91.91,0,0,0,1.08-.14l4.42-4.06,3.65,6a.9.9,0,0,0,1.4.18l4.64-5.12,3.61,4.94C262.67,235.37,264.21,234.48,263.53,233.56Z" style="fill:#5F34B4"></path><path d="M262.09,240.87H219.6q.81-9.21,1.61-18.42c.1-1.14-1.68-1.14-1.78,0l-1.69,19.31a.9.9,0,0,0,.89.89h43.46A.89.89,0,0,0,262.09,240.87Z" style="fill:#5F34B4"></path><path d="M262.09,240.87H219.6q.81-9.21,1.61-18.42c.1-1.14-1.68-1.14-1.78,0l-1.69,19.31a.9.9,0,0,0,.89.89h43.46A.89.89,0,0,0,262.09,240.87Z" style="fill:#fff;opacity:0.5"></path><polygon points="308.35 214.69 232.52 214.69 234.21 195.34 310.04 195.34 308.35 214.69" style="fill:#5F34B4"></polygon><polygon points="308.35 214.69 232.52 214.69 234.21 195.34 310.04 195.34 308.35 214.69" style="fill:#fff;opacity:0.9"></polygon><path d="M309.69,216.16H230.92l2-22.29h78.77Zm-75.57-2.94H307l1.44-16.4H235.56Z" style="fill:#263238"></path><path d="M249.65,207.61l-.14,1.54h-6.39l.72-8.26h6.24l-.13,1.53h-4.34l-.16,1.8h3.83l-.13,1.48h-3.83l-.17,1.91Z" style="fill:#5F34B4"></path><path d="M256.15,209.15l-1.74-2.87-2.21,2.87H250l3.42-4.2-2.55-4.06h2.17l1.67,2.68,2.09-2.68h2.07l-3.23,4,2.71,4.27Z" style="fill:#5F34B4"></path><path d="M261.31,202.45h-2.64l.14-1.56H266l-.13,1.56h-2.64l-.59,6.7h-1.91Z" style="fill:#5F34B4"></path><path d="M271.57,209.15l-1.39-2.3h-1.76l-.2,2.3h-1.91l.72-8.26h3.57a4.47,4.47,0,0,1,1.88.36,2.54,2.54,0,0,1,1.15,1,2.76,2.76,0,0,1,.3,1.6,3.08,3.08,0,0,1-.58,1.58,3.15,3.15,0,0,1-1.35,1l1.62,2.66Zm.07-6.33a1.88,1.88,0,0,0-1.28-.37H268.8l-.25,2.87h1.56a2.13,2.13,0,0,0,1.34-.37,1.47,1.47,0,0,0,.54-1.06A1.23,1.23,0,0,0,271.64,202.82Z" style="fill:#5F34B4"></path><path d="M280.57,207.38h-3.83l-.89,1.77h-2l4.4-8.26h1.89l3,8.26h-2Zm-.48-1.46-1-3.16-1.58,3.16Z" style="fill:#5F34B4"></path><path d="M285.6,208.74a3.59,3.59,0,0,1-1.47-1.52,3.85,3.85,0,0,1-.39-2.2,4.54,4.54,0,0,1,.77-2.2,4.64,4.64,0,0,1,1.74-1.52,5,5,0,0,1,2.34-.55,4.62,4.62,0,0,1,1.91.37,3.56,3.56,0,0,1,1.36,1.09l-1.33,1.13a2.4,2.4,0,0,0-2-1,2.94,2.94,0,0,0-1.39.33,2.57,2.57,0,0,0-1,.94,2.9,2.9,0,0,0-.46,1.37,2.58,2.58,0,0,0,.22,1.37,2.07,2.07,0,0,0,.85.93,2.54,2.54,0,0,0,1.34.34,2.87,2.87,0,0,0,2.16-1l1.13,1.13a4.3,4.3,0,0,1-1.56,1.1,5.1,5.1,0,0,1-2,.38A4.52,4.52,0,0,1,285.6,208.74Z" style="fill:#5F34B4"></path><path d="M294.75,202.45h-2.64l.14-1.56h7.19l-.13,1.56h-2.65l-.58,6.7h-1.91Z" style="fill:#5F34B4"></path></g><g id="freepik--Desk--inject-7"><rect x="156.76" y="290.33" width="205.63" height="114.97" style="fill:#5F34B4"></rect><rect x="141.58" y="290.33" width="19.18" height="114.97" transform="translate(302.34 695.63) rotate(180)" style="fill:#5F34B4"></rect><rect x="141.58" y="290.33" width="19.18" height="114.97" transform="translate(302.34 695.63) rotate(180)" style="fill:#fff;opacity:0.30000000000000004"></rect><rect x="137.55" y="290.33" width="210.56" height="10.17" style="fill:#5F34B4"></rect><rect x="137.55" y="290.33" width="210.56" height="10.17" style="fill:#fff;opacity:0.6000000000000001"></rect><rect x="133.53" y="290.33" width="8.05" height="114.97" style="fill:#5F34B4"></rect><rect x="133.53" y="290.33" width="8.05" height="114.97" style="fill:#fff;opacity:0.5"></rect><rect x="353.73" y="290.33" width="19.18" height="114.97" transform="translate(726.64 695.63) rotate(180)" style="fill:#5F34B4"></rect><rect x="353.73" y="290.33" width="19.18" height="114.97" transform="translate(726.64 695.63) rotate(180)" style="fill:#fff;opacity:0.30000000000000004"></rect><rect x="360.34" y="283.7" width="17.39" height="8.83" transform="translate(738.08 576.22) rotate(180)" style="fill:#5F34B4"></rect><rect x="360.34" y="283.7" width="17.39" height="8.83" transform="translate(738.08 576.22) rotate(180)" style="fill:#fff;opacity:0.30000000000000004"></rect><rect x="253.32" y="305.99" width="86.87" height="99.31" style="fill:#5F34B4"></rect><rect x="253.32" y="305.99" width="86.87" height="99.31" style="fill:#fff;opacity:0.5"></rect><rect x="340.19" y="305.99" width="5.49" height="99.31" style="fill:#5F34B4"></rect><rect x="340.19" y="305.99" width="5.49" height="99.31" style="fill:#fff;opacity:0.2"></rect><rect x="258.81" y="338.61" width="75.89" height="22.97" style="fill:#5F34B4"></rect><rect x="258.81" y="311.4" width="75.89" height="22.97" style="fill:#5F34B4"></rect><rect x="258.81" y="365.82" width="75.89" height="22.97" style="fill:#5F34B4"></rect><g style="opacity:0.7000000000000001"><rect x="258.81" y="338.61" width="75.89" height="22.97" style="fill:#fff"></rect><rect x="258.81" y="311.4" width="75.89" height="22.97" style="fill:#fff"></rect><rect x="258.81" y="365.82" width="75.89" height="22.97" style="fill:#fff"></rect></g><rect x="345.68" y="290.33" width="8.05" height="114.97" style="fill:#5F34B4"></rect><rect x="156.76" y="290.33" width="205.63" height="114.97" style="fill:#fff;opacity:0.1"></rect><rect x="345.68" y="290.33" width="8.05" height="114.97" style="fill:#fff;opacity:0.5"></rect><rect x="126.91" y="283.7" width="233.43" height="8.83" style="fill:#5F34B4"></rect><rect x="126.91" y="283.7" width="233.43" height="8.83" style="fill:#fff;opacity:0.6000000000000001"></rect><path d="M297,320.39h-2.63a2.5,2.5,0,0,0,0,5H297a2.5,2.5,0,0,0,0-5Z" style="fill:#5F34B4"></path><path d="M297,347.6h-2.63a2.5,2.5,0,0,0,0,5H297a2.5,2.5,0,0,0,0-5Z" style="fill:#5F34B4"></path><path d="M297,374.81h-2.63a2.5,2.5,0,0,0,0,5H297a2.5,2.5,0,0,0,0-5Z" style="fill:#5F34B4"></path><path d="M296.84,322.89a2.5,2.5,0,1,1-2.5-2.5A2.5,2.5,0,0,1,296.84,322.89Z" style="fill:#fafafa;opacity:0.30000000000000004"></path><path d="M296.84,350.1a2.5,2.5,0,1,1-2.5-2.5A2.5,2.5,0,0,1,296.84,350.1Z" style="fill:#fafafa;opacity:0.30000000000000004"></path><path d="M296.84,377.31a2.5,2.5,0,1,1-2.5-2.5A2.5,2.5,0,0,1,296.84,377.31Z" style="fill:#fafafa;opacity:0.30000000000000004"></path></g><g id="freepik--Character--inject-7"><path d="M209.34,183.11c-1.43,2,1.72,8.45,1.72,8.45l-14.19,1.71,2.78-15.47S211,180.73,209.34,183.11Z" style="fill:#ce7a63"></path><path d="M209.12,186a4.05,4.05,0,0,1,.22-2.9c1-1.48-3-3.17-6.13-4.24C204,180.38,206.09,184.18,209.12,186Z" style="opacity:0.2"></path><polygon points="243.53 394.49 245.04 408.92 238.38 410.17 234.38 396.24 243.53 394.49" style="fill:#ce7a63"></polygon><path d="M244.9,406.45,237.07,408a.65.65,0,0,0-.52.62l-.14,6.65a1.07,1.07,0,0,0,1,1.1.82.82,0,0,0,.22,0c2.82-.61,5.3-1.27,8.81-2,4.15-.83,3.19-.12,8.08-1,2.95-.55,2.82-4,1.54-3.91-5.84.43-6.78-1.18-9.39-2.78A2.64,2.64,0,0,0,244.9,406.45Z" style="fill:#263238"></path><polygon points="237.02 405.44 244.57 404.45 243.53 394.49 234.38 396.24 237.02 405.44" style="opacity:0.2"></polygon><polygon points="185.93 391.56 181.39 409.46 175 408.56 176.7 391.05 185.93 391.56" style="fill:#ce7a63"></polygon><path d="M182.24,407.21l-8-.56a.65.65,0,0,0-.66.46l-1.9,6.37a1.08,1.08,0,0,0,.71,1.34l.23,0c2.87.15,5.44.18,9,.43,4.22.3,3.11.73,8.07,1.15,3,.25,3.77-3.11,2.51-3.36-5.74-1.14-6.22-2.94-8.31-5.17A2.6,2.6,0,0,0,182.24,407.21Z" style="fill:#263238"></path><path d="M175.39,404.49l7,1.07,3.34-13.19c-3.06-.33-8.08-.83-9.06-.93Z" style="opacity:0.2"></path><path d="M192.84,254.53s-2.2,6.4-2.52,22c-.2,9.3-1.11,24-1.81,34.39-.2,3-.39,5.68-.54,7.71a24.11,24.11,0,0,1-1.78,7.5c-.68,1.66-1.53,3.94-2.41,6.77A106.1,106.1,0,0,0,180,350.5c-2.33,17.44-5,51.24-5,51.24l8.63,1.12,21.26-78.77,22.65-69.62Z" style="fill:#263238"></path><path d="M215.39,292.09l-.91-6.86L207.06,279l-2.49-1.23a83.27,83.27,0,0,1,4.33,33.64Z" style="opacity:0.2"></path><path d="M234.27,254.85l10.39,146.3-8.8,1.5s-11.76-40.49-13.75-62.87a57.05,57.05,0,0,1-.26-7.14,28.32,28.32,0,0,0-1.19-9l-1.24-4.17L212.49,296a40.19,40.19,0,0,0-6.86-13.54c-3.61-4.55-8.07-13.37-6.22-28L232,252.17Z" style="fill:#263238"></path><path d="M201.73,245.61s5.05-1,6.75-.87a32.89,32.89,0,0,1,5.41,1.77,2.32,2.32,0,0,1,.85,3.92s-2.77,3.56-4.16,3.86c-2.77.58-10.71-3.67-10.71-3.67Z" style="fill:#ce7a63"></path><polygon points="201.48 243.19 198.68 252.24 201.37 252.47 203.84 244.56 201.48 243.19" style="fill:#263238"></polygon><polygon points="201.48 243.19 198.68 252.24 201.37 252.47 203.84 244.56 201.48 243.19" style="fill:#fff;opacity:0.2"></polygon><path d="M184.86,200.07a2.93,2.93,0,0,0-5,.58c-3.15,6.74-11.1,24.61-11.13,33.29,0,10.81,31.75,17.21,31.75,17.21l1.92-6.21L180.56,231.5l6.29-14.83S188.41,204.94,184.86,200.07Z" style="fill:#5F34B4"></path><path d="M184.86,200.07a2.93,2.93,0,0,0-5,.58c-3.15,6.74-11.1,24.61-11.13,33.29,0,10.81,31.75,17.21,31.75,17.21l1.92-6.21L180.56,231.5l6.29-14.83S188.41,204.94,184.86,200.07Z" style="opacity:0.1"></path><g style="opacity:0.4"><path d="M185.51,201.15l-3.43.47-2,1.41,2.35,24,4.39-10.34S188.21,206.47,185.51,201.15Z"></path><path d="M192.13,238.61,183.05,233l1.32,13.48c1.9.71,3.8,1.34,5.6,1.9Z"></path></g><path d="M233.78,254.77s-15.65,5.12-41.28,1L180.21,204a9,9,0,0,1,4.52-9.82c5.27-2.92,15.71-5.66,36.3-4.53a11.49,11.49,0,0,1,10.54,8.83Z" style="fill:#5F34B4"></path><path d="M192.68,191.79l1.56-3.67s6.17-3.12,16.63-1.65l2.49,2.88S201.65,189.63,192.68,191.79Z" style="fill:#263238"></path><path d="M216.76,164.9c.14.58-.06,1.13-.45,1.21s-.85-.33-1-.9,0-1.13.44-1.21S216.61,164.32,216.76,164.9Z" style="fill:#263238"></path><path d="M216.23,166.66l4,3.91a4.27,4.27,0,0,1-3.62,1.14Z" style="fill:#ba4d3c"></path><path d="M193.43,167.51c1.53,7.83,2,11.19,6.61,14.76,6.78,3.39,16.47,1.9,17.36-6.22.81-7.3-1.82-18.86-10.16-21.12a11.09,11.09,0,0,0-13.65,7.58A10.57,10.57,0,0,0,193.43,167.51Z" style="fill:#ce7a63"></path><path d="M213.81,163.06a.32.32,0,0,0,.27-.14,2.48,2.48,0,0,1,1.95-1.14.3.3,0,0,0,.32-.3.32.32,0,0,0-.32-.32,3,3,0,0,0-2.49,1.4.33.33,0,0,0,.09.44h0A.43.43,0,0,0,213.81,163.06Z" style="fill:#263238"></path><path d="M233.27,229.25l-1.05-19-6.78-9-3.71-3.44-2.86,2S219.26,210.33,233.27,229.25Z" style="opacity:0.4"></path><path d="M235.47,202.29c3.76,6.9,5.21,11,6.5,12.69a.77.77,0,0,0,.73.31l21.95-3.19a.78.78,0,0,1,.86.53l1.77,5.43a.78.78,0,0,1-.5,1l-20.58,7a10.7,10.7,0,0,1-10.95-1.92,58.25,58.25,0,0,1-14-18.38c-1.58-3.12-5.25-8.9.78-14C227,187.53,233,197.71,235.47,202.29Z" style="fill:#5F34B4"></path><path d="M235.47,202.29c3.76,6.9,5.21,11,6.5,12.69a.77.77,0,0,0,.73.31l21.95-3.19a.78.78,0,0,1,.86.53l1.77,5.43a.78.78,0,0,1-.5,1l-20.58,7a10.7,10.7,0,0,1-10.95-1.92,58.25,58.25,0,0,1-14-18.38c-1.58-3.12-5.25-8.9.78-14C227,187.53,233,197.71,235.47,202.29Z" style="fill:#fff;opacity:0.1"></path><path d="M265.29,212.62l4.52-5.32a3.83,3.83,0,0,1,1.87-1.21l10.65-3.1a.79.79,0,0,1,.91.4h0a.78.78,0,0,1-.4,1.08l-4.4,1.8a.77.77,0,0,0-.48.78l.22,2.66a3.89,3.89,0,0,1-2.26,3.85l-3.2,1.46-.37.14-5.5,1.85a.77.77,0,0,1-1-.56l-.73-3.15A.79.79,0,0,1,265.29,212.62Z" style="fill:#ce7a63"></path><path d="M264,212.07l2.71,6.84a.79.79,0,0,0,1.07.42l.9-.44a.78.78,0,0,0,.38-1l-2.58-6.56a.8.8,0,0,0-.85-.49l-1,.16A.78.78,0,0,0,264,212.07Z" style="fill:#263238"></path><polygon points="234.14 400.57 235.5 404.18 245.87 402.58 245.58 398.74 234.14 400.57" style="fill:#5F34B4"></polygon><polygon points="234.14 400.57 235.5 404.18 245.87 402.58 245.58 398.74 234.14 400.57" style="opacity:0.2"></polygon><polygon points="174.01 399.11 173.85 402.91 184.25 404.3 185.06 400.53 174.01 399.11" style="fill:#5F34B4"></polygon><polygon points="174.01 399.11 173.85 402.91 184.25 404.3 185.06 400.53 174.01 399.11" style="opacity:0.2"></polygon><path d="M198.79,182.51s1.16-1.65,4.66.26c0,0,5-5.57,5.12-10.78,0,0,3.67-.67,3.37-3.05s-2.06-5.47-1.69-7.62,3.94-7.79.91-10.3-3.39.48-5.11.8-12.08.7-13.41,8a10.06,10.06,0,0,0-.69,12.46C196.48,179.34,198.79,182.51,198.79,182.51Z" style="fill:#263238"></path><path d="M208.73,167.1l9.08-5s2.28,5.94,1.18,6.24-2.53-4.37-2.53-4.37L210,167Z" style="fill:#5F34B4"></path><path d="M216.69,164.09l.69-.41s1.87,4.2,1.36,4.57S216.69,164.09,216.69,164.09Z" style="fill:#fff;opacity:0.7000000000000001"></path><path d="M210,167.28a6.17,6.17,0,0,1,2.64,3.95c.4,2.12-1.6,3-3.55,2.24-1.76-.68-4.08-2.61-3.59-4.67A2.85,2.85,0,0,1,210,167.28Z" style="fill:#ce7a63"></path></g></svg>