<svg id="eG1lNsOVYn41" xmlns="http://www.w3.org/2000/svg" xmlns:xlink="http://www.w3.org/1999/xlink" viewBox="0 0 500 500" shape-rendering="geometricPrecision" text-rendering="geometricPrecision" style="background-color:transparent">
<style><![CDATA[
#eG1lNsOVYn42_tr {animation: eG1lNsOVYn42_tr__tr 3000ms linear infinite normal forwards}@keyframes eG1lNsOVYn42_tr__tr { 0% {transform: translate(231.503236px,253.125001px) rotate(0deg)} 100% {transform: translate(231.503236px,253.125001px) rotate(360deg)}} #eG1lNsOVYn45_tr {animation: eG1lNsOVYn45_tr__tr 3000ms linear infinite normal forwards}@keyframes eG1lNsOVYn45_tr__tr { 0% {transform: translate(385.413171px,382.882669px) rotate(0deg)} 50% {transform: translate(385.413171px,382.882669px) rotate(-16.503674deg)} 100% {transform: translate(385.413171px,382.882669px) rotate(0deg)}} #eG1lNsOVYn475_tr {animation: eG1lNsOVYn475_tr__tr 3000ms linear infinite normal forwards}@keyframes eG1lNsOVYn475_tr__tr { 0% {transform: translate(419.363167px,153.92px) rotate(0deg)} 50% {transform: translate(419.363167px,153.92px) rotate(16.536733deg)} 100% {transform: translate(419.363167px,153.92px) rotate(0deg)}} #eG1lNsOVYn484_to {animation: eG1lNsOVYn484_to__to 3000ms linear infinite normal forwards}@keyframes eG1lNsOVYn484_to__to { 0% {transform: translate(110.640004px,182.124122px)} 50% {transform: translate(117.594263px,161.906516px)} 100% {transform: translate(110.640004px,182.124122px)}} #eG1lNsOVYn493_to {animation: eG1lNsOVYn493_to__to 3000ms linear infinite normal forwards}@keyframes eG1lNsOVYn493_to__to { 0% {transform: translate(260.060165px,248.352295px)} 50% {transform: translate(260.060165px,215.229341px)} 100% {transform: translate(260.060165px,248.352295px)}}
]]></style>
<g id="eG1lNsOVYn42_tr" transform="translate(231.503236,253.125001) rotate(0)"><g transform="translate(-235.130531,-252.571915)"><path d="M331,110.69c21-.18,39.66,14.86,46.6,34.27c10.07,28.17-8,52.6-22.52,75.18-10.88,17-20.45,36.07-19.09,56.77c1.37,21,12.78,39.74,14.86,60.62c1.65,16.56-6,33.75-18.58,44.44-17.8,15.13-44.53,16.43-64.3,4.33-21.73-13.3-31.76-38.44-51.23-54.21-23-18.65-53.24-21.39-80.49-30.27-24.5-8-46-29.81-46.5-56.7-.42-24.57,15.94-45.46,36.88-56.7c23.36-12.53,50-8.78,75.35-8.26c11.33.23,23.78-.47,34.68-4.95c12.12-5,20.14-15.06,28.32-24.8c10.49-12.48,23.08-24.91,37.72-32.43c8.746044-4.576986,18.431135-7.071839,28.3-7.29Z" fill="#8741ff"/><path style="isolation:isolate" d="M331,110.69c21-.18,39.66,14.86,46.6,34.27c10.07,28.17-8,52.6-22.52,75.18-10.88,17-20.45,36.07-19.09,56.77c1.37,21,12.78,39.74,14.86,60.62c1.65,16.56-6,33.75-18.58,44.44-17.8,15.13-44.53,16.43-64.3,4.33-21.73-13.3-31.76-38.44-51.23-54.21-23-18.65-53.24-21.39-80.49-30.27-24.5-8-46-29.81-46.5-56.7-.42-24.57,15.94-45.46,36.88-56.7c23.36-12.53,50-8.78,75.35-8.26c11.33.23,23.78-.47,34.68-4.95c12.12-5,20.14-15.06,28.32-24.8c10.49-12.48,23.08-24.91,37.72-32.43c8.746044-4.576986,18.431135-7.071839,28.3-7.29Z" opacity="0.9" fill="#fff"/></g></g><g id="eG1lNsOVYn45_tr" transform="translate(385.413171,382.882669) rotate(0)"><g transform="translate(-382.300003,-358.422729)"><polygon points="405.99,353.04 419.86,344.1 415.56,355.84 405.19,355.84 405.99,353.04" fill="#263238"/><polygon points="405.99,353.04 419.86,344.1 415.56,355.84 405.19,355.84 405.99,353.04" opacity="0.2" fill="#fff"/><polygon points="406.27,353.17 419.71,344.51 415.56,355.84 405.44,355.84 406.27,353.17" opacity="0.4" fill="#fff"/><polygon points="419.89,361.27 430.58,336.24 423.72,336.24 413.87,361.73 419.89,361.27" fill="#263238"/><polygon points="419.89,361.27 430.58,336.24 423.72,336.24 413.87,361.73 419.89,361.27" opacity="0.2" fill="#fff"/><polygon points="419.89,361.27 430.49,336.45 423.83,336.45 414.08,361.71 419.89,361.27" opacity="0.4" fill="#fff"/><polygon points="420.31,361.18 430.92,336.08 436.84,335.93 426.63,360.28 420.31,361.18" fill="#263238"/><polygon points="420.31,361.18 430.92,336.08 436.84,335.93 426.63,360.28 420.31,361.18" opacity="0.2" fill="#fff"/><polygon points="420.43,361.16 431.08,336.24 436.78,336.08 426.63,360.28 420.43,361.16" opacity="0.4" fill="#fff"/><polygon points="437.18,335.78 442.86,335.66 432.68,359.27 427,360.09 437.18,335.78" fill="#263238"/><polygon points="437.18,335.78 442.86,335.66 432.68,359.27 427,360.09 437.18,335.78" opacity="0.2" fill="#fff"/><polygon points="437.28,335.93 442.81,335.77 432.68,359.27 427.13,360.07 437.28,335.93" opacity="0.4" fill="#fff"/><polygon points="443.22,335.66 448.2,335.51 438.42,358.44 432.98,359.24 443.22,335.66" fill="#263238"/><polygon points="443.22,335.66 448.2,335.51 438.42,358.44 432.98,359.24 443.22,335.66" opacity="0.2" fill="#fff"/><polygon points="443.33,335.77 448.17,335.59 438.42,358.44 433.14,359.21 443.33,335.77" opacity="0.4" fill="#fff"/><polygon points="400.17,355.92 391.42,379.99 407.79,375.45 415.89,352.12 400.17,355.92" fill="#8741ff"/><polygon points="400.17,355.92 391.42,379.99 407.79,375.45 415.89,352.12 400.17,355.92" opacity="0.2"/><polygon points="377.32,342.56 400.17,355.92 391.42,379.99 369.15,365.19 377.32,342.56" fill="#8741ff"/><polygon points="377.32,342.56 400.17,355.92 391.42,379.99 369.15,365.19 377.32,342.56" opacity="0.05"/><polygon points="377.32,342.56 394.18,341.26 415.89,352.12 400.17,355.92 377.32,342.56" fill="#8741ff"/><polygon points="377.32,342.56 394.18,341.26 415.89,352.12 400.17,355.92 377.32,342.56" opacity="0.4" fill="#fff"/><polygon points="406.42,333.64 407.06,333.97 401.63,348.56 400.82,348.31 406.42,333.64" fill="#263238"/><polygon points="406.42,333.64 406.67,333.77 401.09,348.39 400.82,348.31 406.42,333.64" opacity="0.4" fill="#fff"/><polygon points="407.06,333.97 406.67,333.77 401.09,348.39 401.63,348.56 407.06,333.97" opacity="0.2" fill="#fff"/><polygon points="327.66,339.96 316.4,376.58 329.36,374.56 340.79,339.48 327.66,339.96" fill="#263238"/><polygon points="327.66,339.96 316.4,376.58 329.36,374.56 340.79,339.48 327.66,339.96" opacity="0.2" fill="#fff"/><polygon points="327.86,340.17 316.68,376.54 329.36,374.56 340.69,339.77 327.86,340.17" opacity="0.4" fill="#fff"/><polygon points="341.35,339.48 330.09,374.56 342.32,372.77 353.5,338.99 341.35,339.48" fill="#263238"/><polygon points="341.35,339.48 330.09,374.56 342.32,372.77 353.5,338.99 341.35,339.48" opacity="0.2" fill="#fff"/><polygon points="341.56,339.77 330.38,374.51 342.32,372.77 353.44,339.2 341.56,339.77" opacity="0.4" fill="#fff"/><polygon points="353.99,339 342.85,372.49 353.99,371.07 365.13,338.71 353.99,339" fill="#263238"/><polygon points="353.99,339 342.85,372.49 353.99,371.07 365.13,338.71 353.99,339" opacity="0.2" fill="#fff"/><polygon points="354.14,339.2 343.15,372.45 353.99,371.07 365.03,338.99 354.14,339.2" opacity="0.4" fill="#fff"/><polygon points="365.58,338.42 354.32,370.91 364.89,369.41 375.82,338.06 365.58,338.42" fill="#263238"/><polygon points="365.58,338.42 354.32,370.91 364.89,369.41 375.82,338.06 365.58,338.42" opacity="0.2" fill="#fff"/><polygon points="365.7,338.63 354.57,370.88 364.89,369.41 375.75,338.26 365.7,338.63" opacity="0.4" fill="#fff"/><polygon points="385.49,355.6 384.16,359.45 367.68,362.73 373.44,346.69 385.49,355.6" fill="#263238"/><polygon points="385.49,355.6 384.16,359.45 367.68,362.73 373.44,346.69 385.49,355.6" opacity="0.2" fill="#fff"/><polygon points="385.37,355.92 384.16,359.45 367.98,362.67 373.56,347.01 385.37,355.92" opacity="0.4" fill="#fff"/><path d="M416.25,353.81l-15.71,29.27c-4.2-2-4.23-13.91-1.1-20.75c3.87-6.64,12.46-9.9,16.81-8.52Z" fill="#263238"/><g opacity="0.2"><path d="M401.8,380.72l-.68,1.27c-3.89-3.67-3.56-14.19-1.68-19.66-2.96,11.73,2.36,18.39,2.36,18.39Z"/></g><g opacity="0.3"><path d="M416.25,353.81l-15.71,29.27c-4.2-2-4.23-13.91-1.1-20.75c3.87-6.64,12.46-9.9,16.81-8.52Z" fill="#fff"/></g><path d="M400.42,361.42c6.21-5.42,10.63-6.27,14.52-5.17l.63-1.18c-4.81-.6-9.3.56-15.15,6.35Z" opacity="0.2" fill="#fff"/><path d="M402.33,364.87c-4.6,8-5.62,16-2.28,17.92s9.77-3,14.37-10.94s5.62-16,2.28-17.91-9.77,2.97-14.37,10.93Z" fill="#8741ff"/><path d="M402.33,364.87c-4.6,8-5.62,16-2.28,17.92s9.77-3,14.37-10.94s5.62-16,2.28-17.91-9.77,2.97-14.37,10.93Z" opacity="0.4" fill="#fff"/><path d="M402.35,364.57c-.885818,1.575803-1.625569,3.229365-2.21,4.94-.504478,1.335693-.044305,2.843581,1.12,3.67c1.6.92,4.69-1.43,6.9-5.25s2.7-7.68,1.1-8.61c-.94-.54-2.75-.19-4.06,1.31-1.069546,1.222573-2.023617,2.541534-2.85,3.94Z" opacity="0.2"/><path d="M410.76,367.28l-4.18-1.69-2.37-2.59c-1.181031.367684-1.910553,1.549425-1.71,2.77l3.22,1.06l3.2,3.61l1.84-3.16Z" fill="#263238"/><path d="M410.76,367.28l-4.18-1.69-2.37-2.59c-1.181031.367684-1.910553,1.549425-1.71,2.77l3.22,1.06l3.2,3.61l1.84-3.16Z" opacity="0.2" fill="#fff"/><path d="M409.17,368.49c-.51.89-.62,1.77-.25,2s1.08-.33,1.59-1.21.62-1.77.25-2-1.08.33-1.59,1.21Z" fill="#263238"/><path d="M409.17,368.49c-.51.89-.62,1.77-.25,2s1.08-.33,1.59-1.21.62-1.77.25-2-1.08.33-1.59,1.21Z" opacity="0.4" fill="#fff"/><path d="M402.87,364.06c-.294301.533677-.423103,1.142872-.37,1.75l3.22,1.06l3.2,3.61c-.4-.3-.12-1.5.34-2.13c0,0-1.26-.79-6.39-4.29Z" opacity="0.2"/><polygon points="410.48,367.25 406.47,365.74 403.98,363.13 403.82,363.19 406.4,365.77 410.25,367.33 410.48,367.25" opacity="0.2" fill="#fff"/><g opacity="0.2"><path d="M409.37,368.61c-.43.75-.53,1.51-.22,1.69s.93-.28,1.36-1s.53-1.51.22-1.7-.93.25-1.36,1.01Z"/><path d="M409.37,368.61c-.43.75-.53,1.51-.22,1.69s.93-.28,1.36-1s.53-1.51.22-1.7-.93.25-1.36,1.01Z" opacity="0.4"/></g><polygon points="402.75,380.94 402.95,381.26 414.41,375.67 414.26,375.37 402.75,380.94" fill="#263238"/><polygon points="402.75,380.94 402.95,381.26 414.41,375.67 414.26,375.37 402.75,380.94" opacity="0.1" fill="#fff"/><polygon points="417.71,359.69 418.01,359.69 418.33,369.73 417.93,369.73 417.71,359.69" fill="#263238"/><polygon points="417.71,359.69 418.01,359.69 418.33,369.73 417.93,369.73 417.71,359.69" opacity="0.1" fill="#fff"/><polygon points="404.26,362.14 418.33,369.73 418.16,369.96 404,362.4 404.26,362.14" fill="#263238"/><polygon points="404.26,362.14 418.33,369.73 418.16,369.96 404,362.4 404.26,362.14" opacity="0.1" fill="#fff"/><polygon points="403.65,363.11 403.89,362.81 414.51,375.23 414.35,375.47 403.65,363.11" fill="#263238"/><polygon points="403.65,363.11 403.89,362.81 414.51,375.23 414.35,375.47 403.65,363.11" opacity="0.1" fill="#fff"/><path d="M415.1,372.19c-1,1.79-1.26,3.59-.51,4s2.2-.66,3.23-2.45s1.26-3.59.51-4-2.19.66-3.23,2.45Z" fill="#263238"/><path d="M415.1,372.19c-1,1.79-1.26,3.59-.51,4s2.2-.66,3.23-2.45s1.26-3.59.51-4-2.19.66-3.23,2.45Z" opacity="0.2" fill="#fff"/><path d="M415.38,372.35c-.93,1.61-1.13,3.22-.46,3.61s2-.6,2.9-2.2s1.13-3.23.46-3.62-1.97.6-2.9,2.21Z" opacity="0.1"/><polygon points="384.16,359.45 369.15,365.19 370.25,362.14 384.16,359.45" opacity="0.2"/></g></g><g id="eG1lNsOVYn475_tr" transform="translate(419.363167,153.92) rotate(0)"><g transform="translate(-397.235275,-130.630009)"><circle r="26.63" transform="translate(397.23 130.63)" fill="#8741ff"/><circle r="26.63" transform="translate(397.23 130.63)" opacity="0.4" fill="#fff"/><circle r="26.63" transform="translate(397.23 130.63)" opacity="0.4" fill="#fff"/><path d="M373.77,118c-.6,3,1.48,4.26,6.05,4c10.83263-.605229,21.420612-3.459114,31.09-8.38c2.12-1.45,2.33-3.1,1.53-4.86c12.93,10.27,13.83,24,8.2,34.55-1.371038,2.078053-3.426764,3.610117-5.81,4.33-6.903267,2.717795-14.142068,4.490494-21.52,5.27-6.83,1-10.84.55-12.38-1.23-11.65-9.03-12.63-22.88-7.16-33.68Z" opacity="0.2" fill="#fff"/><path d="M370.6,130.63c-.027117,5.125748,1.507654,10.138172,4.4,14.37c1.4,2,5.93,2.4,13,1.41c9.188785-.946573,18.203456-3.153973,26.79-6.56c4.68-1.84,7.78-4.19,9.11-7.14.310668-4.726193-.627387-9.450955-2.72-13.7-.41,3.68-2.93,6.73-8,9-9.914577,3.71236-20.227138,6.259458-30.73,7.59-6.69.77-11.3-.33-11.85-4.97Z" opacity="0.2" fill="#fff"/><path d="M386.52,107.19c2.540219-.981638,5.173806-1.702021,7.86-2.15c3.53-.36,4.14.24,3.75,1.17-1.049043,1.074859-2.290544,1.943231-3.66,2.56-2.129286.923014-4.390027,1.506758-6.7,1.73-1.61.07-3.32.11-4.29-.63-.48-.87.96-1.79,3.04-2.68Z" opacity="0.1"/><path d="M440.24,117.55c-1.33-4.1-10.08-5.25-22.29-3.64c1.091065,1.314008,2.03658,2.74234,2.82,4.26v0c4.37.17,7.26,1.21,7.89,3.14c1.54,4.77-11.27,13.19-28.62,18.8s-32.66,6.31-34.2,1.54c-.67-2,.94-4.47,4.78-7.35-.05,0,.27-.21.22-.18-.213257-1.657616-.273512-3.331341-.18-5-11.14,5.94-17.78,12.13-16.43,16.29c2.12,6.53,23.09,5.59,46.85-2.11s41.28-19.22,39.16-25.75Z" fill="#8741ff"/><path d="M440.24,117.55c-1.33-4.1-10.08-5.25-22.29-3.64c1.091065,1.314008,2.03658,2.74234,2.82,4.26v0c4.37.17,7.26,1.21,7.89,3.14c1.54,4.77-11.27,13.19-28.62,18.8s-32.66,6.31-34.2,1.54c-.67-2,.94-4.47,4.78-7.35-.05,0,.27-.21.22-.18-.213257-1.657616-.273512-3.331341-.18-5-11.14,5.94-17.78,12.13-16.43,16.29c2.12,6.53,23.09,5.59,46.85-2.11s41.28-19.22,39.16-25.75Z" opacity="0.3" fill="#fff"/></g></g><g id="eG1lNsOVYn484_to" transform="translate(110.640004,182.124122)"><g transform="translate(-113.699028,-178.562946)"><circle r="39.01" transform="matrix(.707107-.707107 0.707107 0.707107 113.699028 178.562946)" fill="#8741ff"/><circle r="39.01" transform="matrix(.707107-.707107 0.707107 0.707107 113.699028 178.562946)" opacity="0.4" fill="#fff"/><path d="M141.7,181.57l-.89.13c-.232531.037349-.469804-.028358-.65-.18l-1.44-1.21c-.06276-.049066-.12968-.092564-.2-.13l-4.2-1.81c-.141663-.061755-.262991-.162284-.35-.29l-2.37-3.35c-.104771-.153415-.250207-.274611-.42-.35l-1.39-.64c-.063061-.030486-.130572-.050739-.2-.06l-1.47-.22c-.202619-.03594-.394238-.118062-.56-.24l-3.12-2.36c-.126306-.092744-.274421-.151301-.43-.17l-2.29-.3c-.149394-.020335-.301505.000408-.44.06l-.62.27c-.210786.090049-.449214.090049-.66,0l-2.73-1.26c-.161248-.0793-.34493-.100494-.52-.06l-2.42.54c-.151583.038001-.287767.121806-.39.24l-1,1.1c-.173696.192089-.437172.276096-.69.22l-2-.42-4.21-1.88-1.37-2.14c-.101715-.167773-.137362-.367392-.1-.56l.3-1.66l1-2.38c.02347-.047354.018273-.10389-.013438-.146171s-.08453-.063101-.136562-.053829l-1.77.21c-.226379.028989-.426172.162185-.54.36l-.52.9c-.120588.203237-.319496.347897-.55.4l-2.42.54c-.231052.058848-.4679-.072734-.54-.3l-.3-.91-.74-1.36c-.138706-.227167-.138706-.512833,0-.74l1.2-1.75.47-1.21c.059157-.157067.168014-.290504.31-.38l1.59-1c.161585-.099091.351655-.141328.54-.12l1.51.21c.193115.028645.389326-.025858.54-.15l.61-.48c.110929-.08157.242665-.130105.38-.14l1.69-.12c.137943-.007453.275534.020065.4.08l.91.42c.178748.088147.291389.270704.29.47v.81c0,.265097.214903.48.48.48h.27c.174378-.002217.340036-.076616.457533-.205484s.176322-.300675.162467-.474516l-.08-.7-.16-1.42c-.033687-.276977.110441-.545214.36-.67l1.62-.81l2.12-2.33l1.44-2.17l2.66-.83c.229475-.069757.387286-.280172.39-.52v-1.3c-.002005-.237052.159594-.44423.39-.5l1.76-.43c.156705-.037708.294922-.129852.39-.26l.73-1.08c.052118-.074132.066587-.168364.039111-.254717s-.093738-.154898-.179111-.185283l-3.21-1.18-2.35-1.14c-.206872-.099266-.451054-.080189-.64.05l-3,2.09c-.213265.143764-.485881.166482-.72.06l-2.17-1-1.63-.75c-.06563-.028614-.108063-.093403-.108063-.165s.042433-.136386.108063-.165l1.65-.55c.073512-.022547.141592-.059992.2-.11L112,139.6c-5.588535.293797-11.047075,1.794896-16,4.4-1.988197,5.064893-3.397152,10.338411-4.2,15.72-.029961.253575.062923.506219.25.68l6.14,5.88c.10936.103182.250247.166581.4.18l2.28.25c.114231.009117.224306.046956.32.11l8.8,5.29c.216339.122742.338382.362892.31.61l-.85,8.89c-.03854.332569.039192.668228.22.95l4.3,6.83c.056574.087926.127569.165683.21.23l3.3,2.54c.161415.12515.241891.328256.21.53l-1.18,7.22-2.25,11.15c.22,1.5,2.17.58,5-1.52l2.81-4.62l2.47-1l6.32-4.51l4.35-4.93l2.34-5.18c.04055-.08243.090916-.159657.15-.23l2.38-2.73l1.59-1.65c.144437-.151052.226572-.351034.23-.56v-2.38c.003951-.052511-.016656-.103888-.055797-.139115s-.092397-.050326-.144203-.040885Z" opacity="0.2"/><path d="M90.18,161.93v0v0Z" fill="#fff"/><path d="M147.73,177.55v0v0v0Z" fill="#fff"/><path d="M150.31,174.26v0v0Z" fill="#fff"/><polygon points="150.31,174.21 150.31,174.2 150.31,174.2 150.31,174.21" fill="#fff"/><path d="M131.08,147.84h-.05v0c.004679-.019726.004679-.040274,0-.06l.05.06Z" fill="#fff"/></g></g><g id="eG1lNsOVYn493_to" transform="translate(260.060165,248.352295)"><g transform="translate(-260.060165,-248.352295)"><path d="M281.61,248.5c3.26,1.72,28.6,30.3,21.84,43.89-5,10-36.25,14.65-36.25,14.65l-3.85-8.53c0,0,22.88-8.1,24.23-11.65s-24.36-22.45-24.36-22.45l18.39-15.91Z" fill="#8741ff"/><path d="M281.61,248.5c3.26,1.72,28.6,30.3,21.84,43.89-5,10-36.25,14.65-36.25,14.65l-3.85-8.53c0,0,22.88-8.1,24.23-11.65s-24.36-22.45-24.36-22.45l18.39-15.91Z" opacity="0.3" fill="#fff"/><path d="M278.13,292.63c-.82,3.32-3.2,5.88-8.06,7.26l3,6.07-.62.13-4.74-9.2l10.42-4.26Z" opacity="0.2"/><path d="M266.78,295l6.63,12.88-12.77,2.89c-.367997.076059-.686646.304241-.877172.628134s-.235145.713269-.122828,1.071866l1.52,4.69c.259696.861728-.088185,1.790776-.85,2.27l-1,.6c-.627343.372156-1.436276.187508-1.84-.42l-11-16.61c-.14074-.212085-.175012-.477503-.092761-.718382s.271699-.429904.512761-.511618L266.78,295Z" fill="#8741ff"/><g opacity="0.2"><path d="M266.78,295l6.63,12.88-12.77,2.89c-.367997.076059-.686646.304241-.877172.628134s-.235145.713269-.122828,1.071866l1.52,4.69c.259696.861728-.088185,1.790776-.85,2.27l-1,.6c-.627343.372156-1.436276.187508-1.84-.42l-11-16.61c-.14074-.212085-.175012-.477503-.092761-.718382s.271699-.429904.512761-.511618L266.78,295Z" fill="#fff"/></g><path d="M255,299c4.694593,1.192899,9.565482,1.531626,14.38,1l-2.6-5.05L255,299Z" opacity="0.2"/><path d="M280.34,278.08l2.1,1.92c2.14-7.73-1.72-15.13-3-25l-1.85.52c1.761845,7.392708,2.684341,14.960532,2.75,22.56Z" opacity="0.2"/><polygon points="224.16,331.24 206,338.21 202.6,311.5 220.54,304.31 224.16,331.24" fill="#8741ff"/><polygon points="224.16,331.24 206,338.21 202.6,311.5 220.54,304.31 224.16,331.24" opacity="0.2"/><path d="M212.72,305c10.81-22.13,21.65-38.08,32.57-40.2L328,241c19.84-3,37.74,2.86,53.59,18.18-2.93,24.86-15,37.91-32.32,44.09l-85.54,22.48c-7.81,1.94-23.85-4.08-51.01-20.75Z" fill="#8741ff"/><path d="M189.65,307.71L218.78,294c7.62,5,8.43,12.46,6.07,18.34l-29.56,9.73c-6.35-3.78-7.65-7.94-5.64-14.36Z" fill="#8741ff"/><path d="M169.23,301.11l-11.91,1.07c-3.670163.328999-7.134062,1.841603-9.87,4.31l-36.81,33.28L160.45,344c2.677228.230102,5.370869-.177714,7.86-1.19l9.54-3.9c5.25689-2.14669,9.094893-6.776305,10.23-12.34l.38-1.86c.571958-2.836987.410183-5.773025-.47-8.53l-1.08-3.37c-.681439-2.137421-1.7792-4.118828-3.23-5.83v0c-3.581954-4.181129-8.966975-6.368678-14.45-5.87Z" fill="#e8dc10"/><path d="M169.23,301.11l-11.91,1.07c-3.670163.328999-7.134062,1.841603-9.87,4.31l-36.81,33.28L160.45,344c2.677228.230102,5.370869-.177714,7.86-1.19l9.54-3.9c5.25689-2.14669,9.094893-6.776305,10.23-12.34l.38-1.86c.571958-2.836987.410183-5.773025-.47-8.53l-1.08-3.37c-.681439-2.137421-1.7792-4.118828-3.23-5.83v0c-3.581954-4.181129-8.966975-6.368678-14.45-5.87Z" opacity="0.19" fill="#fb0505"/><path d="M176.66,309.59l-6.07.55c-1.859352.171208-3.613388.939475-5,2.19l-18.75,16.95l25.37,2.18c1.36277.114617,2.733339-.094395,4-.61l4.86-2c2.678414-1.09463,4.633187-3.454615,5.21-6.29l.19-.95c.294826-1.442599.215649-2.936642-.23-4.34l-.55-1.72c-.345365-1.099631-.906275-2.119467-1.65-3v0c-1.832851-2.127281-4.585161-3.231189-7.38-2.96Z" opacity="0.29" fill="#ed0404"/><path d="M179,313.22l-3.8.34c-1.168091.109377-2.269523.593445-3.14,1.38l-11.72,10.6l15.86,1.36c.854827.070054,1.714217-.060053,2.51-.38l3-1.24c1.673019-.688598,2.892147-2.166557,3.25-3.94l.12-.59c.180649-.901435.12903-1.834008-.15-2.71l-.34-1.08c-.209594-.675939-.549297-1.30439-1-1.85v0c-1.134643-1.334773-2.844467-2.038818-4.59-1.89Z" fill="#f00"/><path d="M212.72,305c10.81-22.13,21.65-38.08,33.23-40.39l82.65-23.76c19.19-2.85,37.09,3.05,52.94,18.37-2.93,24.86-15,37.91-32.32,44.09l-85.54,22.48c-7.76,1.9-23.8-4.12-50.96-20.79Z" opacity="0.1"/><path d="M189.65,307.71L218.78,294c-1.85,8.05,2.19,14.49,6.07,18.34l-29.56,9.73c-6.35-3.78-7.65-7.94-5.64-14.36Z" fill="#8741ff"/><polygon points="185.14,352.34 212.97,341.71 218.01,308.16 197.18,316.18 185.14,352.34" fill="#8741ff"/><polygon points="185.14,352.34 212.97,341.71 218.01,308.16 197.18,316.18 185.14,352.34" opacity="0.3" fill="#fff"/><polygon points="160.96,285.79 191.29,276.57 216.04,298.4 192.11,308.25 160.96,285.79" fill="#8741ff"/><polygon points="160.96,285.79 191.29,276.57 216.04,298.4 192.11,308.25 160.96,285.79" opacity="0.3" fill="#fff"/><path d="M315.33,244.67l4.18-1.2c-2.924328,1.993515-4.834074,5.163036-5.23,8.68-3.67,19.32,1.14,37,13.36,52.31c2,2.06,5.27,2.57,8.06,2.4l-3.58.94c-3.78.25-5.53-1-7.72-3-12.31-11.79-17.73-35.29-13.47-52.38.78-4.04,2.66-7.25,4.4-7.75Z" opacity="0.7" fill="#fff"/><path d="M305.8,247.41l4-1.15c-2.54,1.1-4.68,5.15-5.23,8.64-3.66,19.32,1.18,36.77,13.36,52.31c1.72,1.91,5.19,2.39,8,2.23l-3.74.95c-3.78.25-5.43-.65-7.48-2.82-12.31-11.79-17.74-35.29-13.48-52.38.6-4.03,3.38-7.44,4.57-7.78Z" opacity="0.7" fill="#fff"/><path d="M378.75,257.93c-.77,2.07-.42,3.65,1.53,4.5l25.81-7.8c3.87-1.59,5.3-2.6-.46-1.87l-26.88,5.17Z" fill="#8741ff"/><path d="M378.75,257.93c-.77,2.07-.42,3.65,1.53,4.5l25.81-7.8c3.87-1.59,5.3-2.6-.46-1.87l-26.88,5.17Z" opacity="0.3"/><path d="M222.44,309.57c16.57,6,35.21,14.07,43.12,11.69L350,298.81c11.13-1.65,21.36-23.3,29.08-37.18-9,12.78-18.1,31.61-31.33,34.33L265.56,318c-9.56,3.17-27.77-4.41-43.12-8.43Z" opacity="0.2"/><path d="M319.52,245.56c-1.623992,1.198591-2.734898,2.966752-3.11,4.95l14-3.88c13.19-2.87,36.45,5.83,48,13-10-8.88-34.82-19.62-47-16.69l-11.89,2.62Z" opacity="0.4" fill="#fff"/><polygon points="378.65,261.02 379.77,262.17 409.21,253.12 378.65,261.02" opacity="0.3"/><path d="M274.07,256.53l-.72,39.88-28.15.15c14.67,5.65,29.3,7.34,33.11,1.65c6.59-11,6.3-26.14,2-43.49l-6.24,1.81Z" opacity="0.2"/><path d="M280.77,256.48l22.32-6.24c-.840641,1.093713-1.397221,2.378657-1.62,3.74l-20,5.68-.7-3.18Z" opacity="0.2" fill="#e6e6e6"/><path d="M255.57,264.68l-11.31,3.61c-2.639395,1.256249-5.015128,3.00411-7,5.15l-6.12,7.09l4.21.92l5.08-5.92c1.544049-1.792976,3.439881-3.249737,5.57-4.28l10.79-3.83-1.22-2.74Z" opacity="0.2" fill="#e0e0e0"/><path d="M233.89,211l15.18,11.66l24.47,3.12l15.17-35.08-7.15-9.84-32.49-11.61c-8.17,11.62-11.99,26.07-15.18,41.75Z" fill="#8741ff"/><path d="M233.89,211l15.18,11.66l24.47,3.12l15.17-35.08-7.15-9.84-32.49-11.61c-7.07,10.2-12.01,24.4-15.18,41.75Z" opacity="0.2" fill="#fff"/><path d="M233.89,211l15.18,11.65l15.71-38.82c-5.08-2.91-10.31-7.71-15.71-14.58-6.36,8.34-11.35,22.58-15.18,41.75Z" opacity="0.3"/><path d="M275.41,248.53c2.06,3,10.82,40.31-1.56,49.09-9.1,6.45-38.87-4.23-38.87-4.23l.63-9.34c0,0,24,3.69,26.87,1.2s-10.16-25.2-10.85-31.3s23.78-5.42,23.78-5.42Z" fill="#8741ff"/><path d="M275.41,248.53c2.06,3,10.82,40.31-1.56,49.09-9.1,6.45-38.87-4.23-38.87-4.23l.63-9.34c0,0,24,3.69,26.87,1.2s-10.16-25.2-10.85-31.3s23.78-5.42,23.78-5.42Z" opacity="0.3" fill="#fff"/><path d="M246.06,283.75l-.92,14.45-12.45-4.07c-.358633-.115649-.749594-.072513-1.074387.118542s-.552449.511811-.625613.881458l-1.1,4.8c-.220676.873996-.998748,1.492358-1.9,1.51h-1.16c-.730116.000954-1.332695-.570837-1.37-1.3l-.92-19.91c-.012574-.256037.095311-.503222.291595-.668101s.458382-.228478.708405-.171899l20.52,4.36Z" fill="#8741ff"/><path d="M297.11,191.64c0,0,4.55,22.27,7.66,26.74s19,19.47,19,19.47l-1.5,4.66c0,0-23.86-15.31-25.5-17.46s-12.77-23.05-12.77-23.05l13.11-10.36Z" fill="#8741ff"/><path d="M304.77,166.76c0,0-1.3,6.33-6.2,7.72s.08-12.18.08-12.18l4.48-1.1l1.64,5.56Z" fill="#263238"/><circle r="17.8" transform="matrix(.707107-.707107 0.707107 0.707107 291.58815 169.537617)" fill="#263238"/><circle r="17.8" transform="matrix(.707107-.707107 0.707107 0.707107 291.58815 169.537617)" opacity="0.2" fill="#fff"/><path d="M296,183.27c3.715441-.750636,7.001252-2.898225,9.18-6l-1.37-.81c-2.46221,2.634374-5.482659,4.684452-8.84,6l1.03.81Z" opacity="0.7" fill="#fff"/><path d="M305.65,176.33l-1.42-.67c.326925-.368831.551091-.817161.65-1.3l1.33.68c-.039774.479871-.236593.933257-.56,1.29Z" opacity="0.7" fill="#fff"/><path d="M278.33,182.74c-1,3.67,9.56,8.83,13.26,5.16-2-1.51-2.52-3.09-2.27-4.63.184609-.934299.555297-1.821909,1.09-2.61.279298-.452067.586563-.886246.92-1.3l-4.5-9.32c-.93,4.1-3.01,13.36-8.5,12.7Z" fill="#e4897b"/><path style="isolation:isolate" d="M286.71,174.4c-2,4.57,1,7.69,2.61,8.87.184609-.934299.555297-1.821909,1.09-2.61l-3.7-6.26Z" opacity="0.2"/><path d="M285.22,176.16c.747395,3.084741,3.476768,5.280552,6.65,5.35c1.997792.091676,3.954941-.58456,5.47-1.89.212032-.176919.412447-.367313.6-.57c3.54-3.76,7-11.33,3.36-16-1.620716-2.1039-4.21882-3.213703-6.859399-2.930055s-4.943701,1.919935-6.080601,4.320055c-2.49,5.02-4.18,7.85-3.14,11.72Z" fill="#e4897b"/><path d="M294.94,170c-.130686.136987-.199344.321655-.189889.510744s.09619.365988.239889.489256c.27.15.66,0,.88-.45s.2-.83-.06-1-.64.08-.87.45Z" fill="#263238"/><path d="M299.39,172.59c-.258661.293026-.231843.740004.06,1c.26.14.65-.06.88-.45s.2-.84-.06-1-.66.07-.88.45Z" fill="#263238"/><path d="M297.87,172c-.226664,1.473535-.243498,2.971745-.05,4.45-.773493.079047-1.542321-.188212-2.1-.73l2.15-3.72Z" fill="#de5753"/><path d="M294.38,167.8c.086632.050017.193368.050017.28,0c.61635-.279952,1.329075-.250256,1.92.08.119744.05521.261851.015853.336131-.093092s.059006-.255608-.036131-.346908v0c-.740541-.436326-1.647134-.484827-2.43-.13-.137763.055544-.204787.211934-.15.35v0c.017815.051196.044937.09866.08.14Z" fill="#263238"/><path d="M293.91,177.36v0c-1.244991-.479175-2.17806-1.535409-2.5-2.83-.012197-.07971.040808-.1548.12-.17.074226-.012281.144887.036298.16.11v0c.31692,1.189364,1.171462,2.162284,2.31,2.63.03364.011274.061212.035807.076319.067909s.016436.068984.003681.102091v0c-.027921.071504-.108214.10719-.18.08l.01.01Z" fill="#263238"/><path d="M302.19,172.15c.032397.041327.078508.069703.13.08.07063.008381.14161-.012539.196405-.057886s.088619-.111163.093595-.182114v0c.074973-.856707-.272034-1.696241-.93-2.25-.055295-.043504-.12586-.062741-.195584-.053319s-.132651.046699-.174416.103319v0c-.082814.119387-.056298.282901.06.37v0c.499584.459159.758117,1.123957.7,1.8.011715.077311.055225.146201.12.19Z" fill="#263238"/><path d="M285.14,167.4c1.1-4.94,2.87-8.55,4.64-9.37s6.15,5.24,6.15,5.24c-.543699-.471887-1.299059-.615152-1.977784-.375115s-1.176071.826332-1.302216,1.535115c-.23,2.2-2.74,4.52-4.74,4.94c0,0,.37-.82-.4-1s-2.71,4.1-2.41,6.76c0,.02-1.1-2.79.04-7.73Z" fill="#263238"/><path d="M284,167.23c-.088842,1.402941.382254,2.783864,1.31,3.84c1.23,1.39,2.86.53,3.36-1.17.43-1.51.34-4.09-1.32-4.84-.735514-.334044-1.590521-.270448-2.268521.168735s-1.085611,1.19346-1.081479,2.001265Z" fill="#e4897b"/><path d="M288.24,160.41c0,0,3.45-4,10.18-3.46c8.23.69,7.13,12.1,5.73,12.59-1.09.18-.24-4.83-1.41-4.36-.9.67-.9,1.2-1.84,1.11-.53,0-1.16-1.18-1.79-2.43-1.23-1.28-4.05,2.82-6.14,3.67-1.9-.53-3.49-4.53-4.73-7.12Z" fill="#263238"/><path d="M248.87,228.54c-.58,9.46.63,21.45,3.6,28.57l25.14-1.58l8.83-2.56c-1.66-1.71-5.45-10.72-2.87-24.84l-34.7.41Z" fill="#8741ff"/><g opacity="0.3"><path d="M248.87,228.54c-.58,9.46.63,21.45,3.6,28.57l25.14-1.58l8.83-2.56c-1.86-2-5.3-10.71-2.87-24.84l-34.7.41Z" fill="#fff"/></g><polygon points="277.61,255.53 279,250.72 283.91,253.71 277.61,255.53" opacity="0.2"/><path d="M286.71,170.61l-.32,2.34c-.100067.723813-.010477,1.461206.26,2.14l.15.37c.552787,1.384498,1.796545,2.373419,3.27,2.6l1.51.23v.71l-2-.38c-1.392097-.270378-2.556087-1.220344-3.1-2.53l-.35-.85c-.313183-.762771-.396603-1.600445-.24-2.41l.45-2.34.37.12Z" fill="#263238"/><path d="M286.71,170.61l-.32,2.34c-.100067.723813-.010477,1.461206.26,2.14l.15.37c.552787,1.384498,1.796545,2.373419,3.27,2.6l1.51.23v.71l-2-.38c-1.392097-.270378-2.556087-1.220344-3.1-2.53l-.35-.85c-.313183-.762771-.396603-1.600445-.24-2.41l.45-2.34.37.12Z" opacity="0.2" fill="#fff"/><rect width="2.23" height="1.88" rx="0.58" ry="0.58" transform="translate(291.08 177.87)" fill="#263238"/><rect width="2.05" height="3.45" rx="0.63" ry="0.63" transform="translate(285.56 167.48)" fill="#263238"/><path d="M297.11,191.64c0,0,4.55,22.27,7.66,26.74s19.71,20.15,19.71,20.15l-2.83,3.54c0,0-23.22-14.87-24.86-17s-12.79-23.07-12.79-23.07l13.11-10.36Z" opacity="0.15" fill="#fff"/><polygon points="289.28,207.41 292.94,218.47 288.35,210.11 289.28,207.41" opacity="0.2"/><path style="isolation:isolate" d="M248.69,231.49L283,233.67c0,0,4-31.33,15-41.37l-5.65-4.65-15-5.2c0,0-7.66-.21-12.16.75-1.3929,1.714792-2.662737,3.52598-3.8,5.42-2.253436,3.676624-4.206444,7.529132-5.84,11.52-4.080781,9.975167-6.401797,20.582141-6.86,31.35Z" fill="#8741ff"/><path d="M283.2,232.28l-11-7.8c-2-1.92-7.58-15.31-11.76-24.18l23.44,28.24-.68,3.74Z" opacity="0.2"/><path d="M271.93,182.5h1.26l22.3,7.74.93.76v0c-.278982.729493-.831457,1.32143-1.54,1.65l-1.29.62c-8.18-2.98-15.8-5.84-21.66-10.77Z" opacity="0.2" fill="#263238"/><path d="M273.64,189.64c0,0,6.21,21.65,9.32,26.12s24.13,25.05,24.13,25.05l-3.36,3.79c0,0-27.91-18.71-29.55-20.86s-13.58-22.81-13.58-22.81c-3.2-8.81,8.4-22.55,13.04-11.29Z" fill="#8741ff"/><path d="M273.64,189.64c0,0,6.21,21.65,9.32,26.12s24.13,25.05,24.13,25.05l-3.36,3.79c0,0-27.91-18.71-29.55-20.86s-13.58-22.81-13.58-22.81c-3.2-8.81,8.4-22.55,13.04-11.29Z" opacity="0.15" fill="#fff"/><path d="M263.57,198.93l2.28,4.68c1-3.76,2.8-6,5.48-6.62l-2.66-5.35c-2.5868,1.670719-4.41727,4.287215-5.1,7.29Z" fill="#8741ff"/><g opacity="0.2"><path d="M246.06,283.75l-.92,14.45-12.45-4.07c-.358633-.115649-.749594-.072513-1.074387.118542s-.552449.511811-.625613.881458l-1.1,4.8c-.220676.873996-.998748,1.492358-1.9,1.51h-1.16c-.730116.000954-1.332695-.570837-1.37-1.3l-.92-19.91c-.012574-.256037.095311-.503222.291595-.668101s.458382-.228478.708405-.171899l20.52,4.36Z" fill="#fff"/></g><path d="M300.56,231.88l-8.35,8.46l11.73,5.31l2.7,6.15c.103737.234.31568.402212.567123.450106s.510382-.030626.692877-.210106l5.83-5.74c.148888-.143732.22873-.344579.21916-.551304s-.107629-.399335-.26916-.528696l-5.45-4.53-7.67-8.81Z" fill="#8741ff"/><path d="M300.56,231.88l-8.35,8.46l11.73,5.31l2.7,6.15c.103737.234.31568.402212.567123.450106s.510382-.030626.692877-.210106l5.83-5.74c.148888-.143732.22873-.344579.21916-.551304s-.107629-.399335-.26916-.528696l-5.45-4.53-7.67-8.81Z" opacity="0.3" fill="#fff"/><path d="M308.92,237.79l8.36-9.25l7.42,8.57l5.09,2.58c.144574.07569.251342.20788.294921.365142s.020076.325552-.064921.464858l-.14.24-8.64,2.2-.62-.74-11.7-4.43Z" fill="#8741ff"/><g opacity="0.3"><path d="M308.92,237.79l8.36-9.25l7.42,8.57l5.09,2.58c.144574.07569.251342.20788.294921.365142s.020076.325552-.064921.464858l-.14.24-8.64,2.2-.62-.74-11.7-4.43Z" fill="#fff"/></g><path d="M309.39,169.54c.010015-7.291619-4.428083-13.85196-11.199941-16.555614s-14.507829-1.003791-19.522423,4.289758-6.29358,13.110132-3.227636,19.725856l-.72-.58c-1.72,1-2.62,2.69-2.56,5.24c6.493451,4.876591,13.858828,8.467637,21.7,10.58c1.538462-1.319647,2.464604-3.215343,2.56-5.24l-.75-.16c8.029559-1.890815,13.707904-9.050828,13.72-17.3Zm-15,14.81c-7.141042,0-12.93-5.788958-12.93-12.93s5.788958-12.93,12.93-12.93s12.93,5.788958,12.93,12.93c.005536,7.127723-5.762294,12.913452-12.89,12.93h-.04Z" fill="#8741ff"/><path d="M309.39,169.54c.010015-7.291619-4.428083-13.85196-11.199941-16.555614s-14.507829-1.003791-19.522423,4.289758-6.29358,13.110132-3.227636,19.725856l-.72-.58c-1.72,1-2.62,2.69-2.56,5.24c6.493451,4.876591,13.858828,8.467637,21.7,10.58c1.538462-1.319647,2.464604-3.215343,2.56-5.24l-.75-.16c8.029559-1.890815,13.707904-9.050828,13.72-17.3Zm-15,14.81c-7.141042,0-12.93-5.788958-12.93-12.93s5.788958-12.93,12.93-12.93s12.93,5.788958,12.93,12.93c.005536,7.127723-5.762294,12.913452-12.89,12.93h-.04Z" opacity="0.3" fill="#fff"/><path d="M276.18,177.38l5.38,3.48c-4-2.9-6.29-7.14-6.73-12.91-.473914,3.207739-.004874,6.484071,1.35,9.43Z" opacity="0.2"/><path d="M296,154.14c5.446346,1.500393,9.882779,5.452516,12,10.69-1.708953-4.962127-5.377564-9.006635-10.15-11.19l-1.85.5Z" opacity="0.2" fill="#fff"/><path d="M296.79,153.22l-1.77.7-1.54-.28.4-1.21c1.019532.024689,2.017947.295737,2.91.79Z" opacity="0.2" fill="#fff"/><polygon points="245.95,285.38 245.19,296.51 245.82,296.68 246.67,285.45 245.95,285.38" opacity="0.2" fill="#263238"/></g></g></svg>
