<svg xmlns="http://www.w3.org/2000/svg" viewBox="0 0 500 500"><g id="freepik--background-simple--inject-73"><path d="M391.55,68.4C306.93,1.89,153,3,99.54,109c-12.76,25.31-25.69,51-46.09,71.16-17.33,17.12-36.88,34.17-44.8,58-17.61,53,26.74,93.09,62.63,123.61,34.1,29,53.38,72.68,89.9,98.48,22.58,15.94,50.42,22.22,77.74,19.49,28-2.79,49-20.17,73.68-31.8,18.72-8.83,38.46-10.93,57.88-17,16.62-5.22,32.93-15.65,46.48-26.59,29.64-23.92,51-57.49,61.44-94C503.46,222.39,462.7,124.31,391.55,68.4Z" style="fill:#6632C0"></path></g><g id="freepik--Shadow--inject-73"><path d="M123.68,326l-6.21-66.23L76.08,189.92,56,177.57c-.83.88-1.67,1.76-2.53,2.61-17.33,17.12-36.88,34.17-44.8,58-11,33,2.08,60.95,22.15,84.74h0C41.71,337.28,66,357.3,66,357.3l49.66-33.23Z" style="opacity:0.2"></path></g><g id="freepik--Character--inject-73"><path d="M60.32,168.24s-31.1,9-31.81,11.76C27.39,184.32,41,224.08,46.7,231.44c1.94,2.48,10.6,6.17,11.82,6.31s39.55-8.36,40.37-11.29S83,171.25,81.63,170.28,60.32,168.24,60.32,168.24Z" style="fill:#263238;stroke:#263238;stroke-linecap:round;stroke-linejoin:round"></path><path d="M28.74,180.54l8.76,3.62,44.13-13.88-21.31-2S27.08,177.73,28.74,180.54Z" style="fill:#fff;stroke:#263238;stroke-linecap:round;stroke-linejoin:round"></path><polygon points="42.67 181.18 34.91 176.71 51.02 171.34 54.31 177.3 42.67 181.18" style="fill:#263238"></polygon><path d="M37.5,184.16l21,53.59-12.84-6s-16.35-38.64-16.94-51.19Z" style="fill:#fff;stroke:#263238;stroke-linecap:round;stroke-linejoin:round"></path><path d="M99.61,178.75s.57,1.14,9.32,2.66a113.46,113.46,0,0,0,17.13,1.52s-4,4-2.86,9.32a70.61,70.61,0,0,0,2.09,8s-4.37,1.14-11.6,0-9.32-2.1-9.32-2.1S98.66,186.36,99.61,178.75Z" style="fill:#fff;stroke:#263238;stroke-linecap:round;stroke-linejoin:round"></path><ellipse cx="124.03" cy="191.71" rx="9.04" ry="9.28" style="fill:#263238;stroke:#263238;stroke-linecap:round;stroke-linejoin:round"></ellipse><ellipse cx="127.1" cy="191.49" rx="9.04" ry="10.27" style="fill:#fff;stroke:#263238;stroke-linecap:round;stroke-linejoin:round"></ellipse><path d="M142,180.65s-9.52-2.09-14.94.57-5.61,10.65-3.33,15.6,7.42,4,9.71,2.85,11-4.94,13.88-6.84,1.91-9.71.19-11.61S142,180.65,142,180.65Z" style="fill:#fff;stroke:#263238;stroke-linecap:round;stroke-linejoin:round"></path><ellipse cx="144.03" cy="186.83" rx="8.85" ry="8.47" style="fill:#263238;stroke:#263238;stroke-linecap:round;stroke-linejoin:round"></ellipse><path d="M143.18,176.08s-3.43,5.9-3.43,9.33,1.15,7.42,4.38,8,6.66-4.38,6.66-4.38a10.2,10.2,0,0,0,3.8-1.33c1.91-1.14,3.43-4.76,3.43-4.76s1.9-.19,4-.19,4.38.19,4.38-1.33-5.14-2.47-5.14-2.47,4.19-.19,5.33-1.33,1.33-3.05-.38-3.05-8.75.95-8.75.95,5.7-3,5.32-6.85-5.51.57-5.51.57,1.52-3.8-2.1-2.85S147,169.62,143.18,176.08Z" style="fill:#fff;stroke:#263238;stroke-linecap:round;stroke-linejoin:round"></path><path d="M147.55,191.87c5.71-2.28,3.81-6.46,3.81-6.46s7.61-5.52,3.8-8-11,5.51-11,5.51" style="fill:#fff;stroke:#263238;stroke-linecap:round;stroke-linejoin:round"></path><path d="M157.26,169.23a20.82,20.82,0,0,1-2.86,2.67c-1.9,1.52-4.37,2.85-4.37,4.75" style="fill:#fff;stroke:#263238;stroke-linecap:round;stroke-linejoin:round"></path><path d="M106.05,299.77s-3,3.94-1.76,7.47,4.57,6.44,6.64,9.24,3.43,7.9,10.18,9.35,11.63-2.29,12.15-4.78-1.14-6.54-1.14-6.95-5.61-12.26-5.61-12.26Z" style="fill:#fff;stroke:#263238;stroke-linecap:round;stroke-linejoin:round"></path><path d="M127.09,299.36l4.46,13c2.23,6.49.61,9.93-6.08,11.15s-9.53-3.85-13.38-8.51-7.1-9.13-6.49-13.59,3.25-5.06,3.25-5.06,1.82,3.24,9.12,3.64S127.09,299.36,127.09,299.36Z" style="fill:#fff;stroke:#263238;stroke-linecap:round;stroke-linejoin:round"></path><path d="M129,299.09c-1.12,4.74-7.46,7.3-14.16,5.7s-11.22-6.72-10.1-11.46,7.47-7.29,14.17-5.7S130.11,294.36,129,299.09Z" style="fill:#fff;stroke:#263238;stroke-linecap:round;stroke-linejoin:round"></path><path d="M112.29,272.6s-7,17.31-6.39,19.95,7.2,10.86,15.51,8.83,7.1-6.69,7.1-6.69l4.05-16.82S115.94,279.08,112.29,272.6Z" style="fill:#fff;stroke:#263238;stroke-linecap:round;stroke-linejoin:round"></path><path d="M112.29,272.6s-7,17.31-6.39,19.95a3.5,3.5,0,0,0,.24.68c16.69-1.07,24.06-10.34,25.86-13l.56-2.33S115.94,279.08,112.29,272.6Z" style="fill:#263238;stroke:#263238;stroke-linecap:round;stroke-linejoin:round"></path><path d="M134.66,278c-1.13,4.74-7.47,7.29-14.17,5.7S109.27,277,110.4,272.25s7.47-7.29,14.17-5.7S135.79,273.27,134.66,278Z" style="fill:#fff;stroke:#263238;stroke-linecap:round;stroke-linejoin:round"></path><path d="M113.1,223.94s16,22.71,20.07,34.06c1.46,4.07,2.71,8.88,1.51,13.18-2.31,8.32-13.16,10-18.94,4.25-7.1-7.09-20.88-26.35-20.88-26.35s0-3.45,4.86-6.08,11-10.75,11.36-12.57S113.1,223.94,113.1,223.94Z" style="fill:#fff;stroke:#263238;stroke-linecap:round;stroke-linejoin:round"></path><path d="M115.74,275.43a11.31,11.31,0,0,0,3.47,2.36c-.19-.21-.39-.42-.61-.64-6.54-6.55-13.47-35-13.47-35a5.39,5.39,0,0,0-1.9-1.7A19.56,19.56,0,0,1,99.72,243c-4.86,2.63-4.86,6.08-4.86,6.08S108.64,268.34,115.74,275.43Z" style="fill:#263238;stroke:#263238;stroke-linecap:round;stroke-linejoin:round"></path><path d="M111.08,219.89s3.24.2,3.24,6.28-6.89,15.41-10.34,19.67-6.08,5.88-17.23,3.44S66.27,242,63.43,235.09s1-10.74,4.46-11.15,21.29-2.84,28.79-5.68a99.1,99.1,0,0,0,11.56-5.06Z" style="fill:#fff;stroke:#263238;stroke-linecap:round;stroke-linejoin:round"></path><path d="M63.64,225a5.82,5.82,0,0,0,2.23,6.29c3.44,2.64,8.31,5.47,25.34,2.64s21.89-11.56,20.88-14.8a15.68,15.68,0,0,0-3.85-5.88,48.59,48.59,0,0,1-23.11,11.15C71.14,226.78,63.64,225,63.64,225Z" style="fill:#fff;stroke:#263238;stroke-linecap:round;stroke-linejoin:round"></path><path d="M106.78,186.67c1.55,6.1-.38,11.86-4.3,12.85s-8.35-3.15-9.9-9.26.38-11.86,4.3-12.85S105.24,180.56,106.78,186.67Z" style="fill:#fff;stroke:#263238;stroke-linecap:round;stroke-linejoin:round"></path><path d="M57.39,183.77S54.1,186,54.1,193.1s4.11,28.25,9.32,33.19,22.22,5.21,35.39-.27,11.24-10.15,10.15-18.11-5.76-25.23-10.7-29.62-10.43-2.47-21.4,0A189.78,189.78,0,0,0,57.39,183.77Z" style="fill:#fff;stroke:#263238;stroke-linecap:round;stroke-linejoin:round"></path><path d="M65.86,197.84a44.05,44.05,0,0,1-1.16,14.24,99.66,99.66,0,0,0-2.31,12.32l-5.77-12.32S60.85,197.07,65.86,197.84Z" style="fill:#263238;stroke:#263238;stroke-linecap:round;stroke-linejoin:round"></path><ellipse cx="76.04" cy="181.58" rx="20.02" ry="11.52" style="fill:#fff;stroke:#263238;stroke-linecap:round;stroke-linejoin:round"></ellipse><path d="M65.86,185.13s-3.08,2.31-1.16,5c0,0-7.7-3.08-9.24-6.16s3.08-6.93,3.08-6.93L67,183.59Z" style="fill:#263238;stroke:#263238;stroke-linecap:round;stroke-linejoin:round"></path><circle cx="75.63" cy="161.69" r="24.82" style="fill:#fff;stroke:#263238;stroke-linecap:round;stroke-linejoin:round"></circle><path d="M63,140.35a24.82,24.82,0,0,0,4.29,44.71A24.82,24.82,0,0,0,63,140.35Z" style="fill:#263238;stroke:#263238;stroke-linecap:round;stroke-linejoin:round"></path><path d="M89.43,141.06a21.26,21.26,0,1,0,1.42,40.24,24.82,24.82,0,0,0-1.42-40.24Z" style="fill:#fff;stroke:#263238;stroke-linecap:round;stroke-linejoin:round"></path><path d="M78.64,304a7,7,0,0,0,.31,5.3c1.35,2.7,4.26,5.81,9.35,9.14s11.83,5,15.26,4.36,6.44-2.39,7.48-5,.72-4.46.2-4.77-1.66,1-9.55-3.85S91.83,301,87,300.91,78.43,302.36,78.64,304Z" style="fill:#fff;stroke:#263238;stroke-linecap:round;stroke-linejoin:round"></path><path d="M102,302s3.85,5.07,6.29,6.89,3.85,2.84,2.63,5.68-3.85,6.49-10.74,5.68a27.56,27.56,0,0,1-17.84-9.33c-4.46-5.27-4.46-7.7-3-8.51s7.7.81,11.15.81,7.09-2,8.51-2.64S101.34,300,102,302Z" style="fill:#fff;stroke:#263238;stroke-linecap:round;stroke-linejoin:round"></path><path d="M76.41,297.33s-1,5.27,2.23,7.5,15.81,2.43,21.29-.61,2.43-6.49.2-8.11-12.37,4.46-15.41,3S81.48,301.38,76.41,297.33Z" style="fill:#fff;stroke:#263238;stroke-linecap:round;stroke-linejoin:round"></path><path d="M78.64,274S75.19,295.3,75.8,299s5.47,5.88,16,4.46,12.55-5.43,10.54-8.72c-1.08-1.75-.7-14.46-.7-14.46S88.37,284.15,78.64,274Z" style="fill:#fff;stroke:#263238;stroke-linecap:round;stroke-linejoin:round"></path><path d="M103.2,285.23l-1.72-2.1c-4.93-.2-15.58-1.55-22.84-9.11,0,0-3.45,21.28-2.84,24.93a4.82,4.82,0,0,0,2.7,3.46,4.74,4.74,0,0,0,.75,0C90.33,301.08,103.2,285.23,103.2,285.23Z" style="fill:#263238;stroke:#263238;stroke-linecap:round;stroke-linejoin:round"></path><path d="M78.64,270.77s-3.24,3.45,1.22,8.31,8.51,8.72,18.44,8.72,9.73-6.89,7.71-11.15S89,261.45,78.64,270.77Z" style="fill:#fff;stroke:#263238;stroke-linecap:round;stroke-linejoin:round"></path><path d="M107.47,271.13c-.83-4.66-2.94-9-4.4-13.44s-3.19-9.27-6.59-12.67c-4.66-4.66-23.31-7.09-27.17-3.24s0,18.65,8.11,29.8c3.77,5.19,8.94,10.53,15.41,12.29a14.52,14.52,0,0,0,10.52-1c4.35-2.4,4.93-7.19,4.13-11.72Z" style="fill:#fff;stroke:#263238;stroke-linecap:round;stroke-linejoin:round"></path><path d="M88.19,281.77c-9.76-11.72-11.28-34.08-11.51-41.89-3.35.08-6.13.66-7.37,1.9-3.85,3.85,0,18.65,8.11,29.8,2.87,3.94,6.53,8,11,10.44Z" style="fill:#263238;stroke:#263238;stroke-linecap:round;stroke-linejoin:round"></path><path d="M94.87,195.41,80.09,200.3A2.13,2.13,0,0,0,78.73,203L82,212.74a2.13,2.13,0,0,0,2.68,1.35l14.67-4.76a2.14,2.14,0,0,0,1.37-2.67l-3.14-9.87A2.12,2.12,0,0,0,94.87,195.41Z" style="fill:#fff;stroke:#263238;stroke-linecap:round;stroke-linejoin:round"></path><path d="M87,206.36a2.11,2.11,0,1,1-2.11-2.11A2.1,2.1,0,0,1,87,206.36Z" style="fill:#263238"></path><circle cx="90.43" cy="204.52" r="2.11" style="fill:#263238"></circle><path d="M98.06,202.67a2.11,2.11,0,1,1-2.1-2.1A2.1,2.1,0,0,1,98.06,202.67Z" style="fill:#263238"></path><path d="M66.26,195.61c1.31,6.14-1.29,11.91-5.81,12.87s-9.25-3.23-10.56-9.38,1.29-11.91,5.81-12.88S64.94,189.46,66.26,195.61Z" style="fill:#fff;stroke:#263238;stroke-linecap:round;stroke-linejoin:round"></path><path d="M54.64,218.34s8-10.15,7.41-15.64-4.11-12.89-11.25-10.42-16.18,22.49-15.91,26.61,2.47,4.93,2.47,4.93S42,220,47.51,219.71,54.64,218.34,54.64,218.34Z" style="fill:#fff;stroke:#263238;stroke-linecap:round;stroke-linejoin:round"></path><ellipse cx="45.04" cy="224.23" rx="11.52" ry="10.56" style="fill:#fff;stroke:#263238;stroke-linecap:round;stroke-linejoin:round"></ellipse><path d="M38.79,224.23c0-5,3.8-9.17,8.89-10.27a12.71,12.71,0,0,0-2.64-.29c-6.36,0-11.52,4.73-11.52,10.56S38.68,234.79,45,234.79a12.71,12.71,0,0,0,2.64-.28C42.59,233.41,38.79,229.23,38.79,224.23Z" style="fill:#263238;stroke:#263238;stroke-linecap:round;stroke-linejoin:round"></path><path d="M64.52,229.31s-10.7-9.33-18.38-9.6-12.34,8.5-8.78,14,20,12.07,20,12.07S56,234.52,64.52,229.31Z" style="fill:#fff;stroke:#263238;stroke-linecap:round;stroke-linejoin:round"></path><path d="M71.28,241.42c-1.75,5.75-6.87,9.27-11.43,7.89s-6.85-7.17-5.11-12.92,6.87-9.27,11.43-7.88S73,235.68,71.28,241.42Z" style="fill:#263238;stroke:#263238;stroke-linecap:round;stroke-linejoin:round"></path><path d="M79.59,233.56s.75,2.83,3,3.13,5.07.15,5.07,2.39a4.19,4.19,0,0,1-3.87,4c-1.94.15-3.28.15-6.71-2.68s-5.37-3.88-5.67-5.07.89-5.07,3-4.47A24.83,24.83,0,0,1,79.59,233.56Z" style="fill:#fff;stroke:#263238;stroke-linecap:round;stroke-linejoin:round"></path><path d="M62.22,230.63s8.11-4.66,11-4.66,8.71,8.31,8.71,10.54-1.21,5.88-2,6.08a2.75,2.75,0,0,1-2.84-3,9.91,9.91,0,0,0-1.42-4.66l-1.22-.81s2.83,7.53,3.25,9.73c.29,1.55.6,2.43-1.42,3.45A12.9,12.9,0,0,1,73,248.47a22.45,22.45,0,0,1-3.65,1.22,22.31,22.31,0,0,1-4,.4,14,14,0,0,1-3.65.81c-1.42,0-3-2.23-4.26-6.28S58.26,232.75,62.22,230.63Z" style="fill:#fff;stroke:#263238;stroke-linecap:round;stroke-linejoin:round"></path><path d="M73,248.47s-2.17-13.42-5.75-16.55" style="fill:none;stroke:#263238;stroke-linecap:round;stroke-linejoin:round"></path><path d="M65.26,250.09s-.88-8.48-3.12-13.4" style="fill:none;stroke:#263238;stroke-linecap:round;stroke-linejoin:round"></path><path d="M74.38,234.08a38.26,38.26,0,0,0-2.39-4.4" style="fill:none;stroke:#263238;stroke-linecap:round;stroke-linejoin:round"></path><path d="M155.94,171.33c2.94-3.13,5.08-3.36,6.81-2.79-.49-3.56-5.49.69-5.49.69s1.52-3.8-2.1-2.85-8.18,3.24-12,9.7c0,0-.62,1.07-1.33,2.56a8.73,8.73,0,0,0-3.19,1.48c-3.27-.37-8.2-.55-11.56,1.1a8.21,8.21,0,0,0-4.44,1.33,9.73,9.73,0,0,0-1.07.24,111.4,111.4,0,0,1-12.66-1.38c-2.3-.4-4-.77-5.33-1.11-1.91-2.23-4.29-3.39-6.53-2.92a9.73,9.73,0,0,0-1.53-.86c.31-.41.6-.84.88-1.27l.09-.14c.21-.33.41-.66.61-1l.12-.21c.18-.33.36-.66.53-1a2.12,2.12,0,0,1,.11-.21c.18-.37.35-.74.51-1.12a.47.47,0,0,0,0-.1,25.24,25.24,0,0,0,.94-2.56l.09-.31c.09-.33.18-.65.26-1,0-.15.07-.29.1-.44s.13-.58.19-.88.06-.33.08-.49.09-.58.13-.87,0-.33.07-.5.06-.62.08-.94l0-.43c0-.47,0-.93,0-1.4h0c0-.49,0-1,0-1.46,0-.15,0-.3,0-.45,0-.34-.06-.67-.09-1,0-.16,0-.33-.07-.49,0-.34-.1-.67-.16-1,0-.13,0-.27-.07-.41-.09-.47-.2-.93-.31-1.39,0,0,0,0,0-.05-.11-.44-.24-.87-.38-1.3,0-.13-.09-.26-.13-.39-.11-.32-.22-.64-.34-.95l-.17-.42c-.13-.32-.27-.64-.41-1l-.15-.33q-.3-.63-.63-1.26l0,0c-.21-.4-.45-.79-.68-1.17a3.28,3.28,0,0,1-.2-.31l-.58-.87-.23-.31c-.22-.31-.44-.6-.68-.89l-.16-.22A26.46,26.46,0,0,0,93,144l-.22-.22c-.27-.25-.54-.5-.82-.74l-.26-.22c-.3-.26-.61-.51-.92-.75l-.16-.13a24.78,24.78,0,0,0-10.08-4.53c20,16.45,14.87,33.62,13.32,39.89,10.07,11.39,15.89,37.61,13.94,43.1,1.45-1.44,3.95,1.78,2.09,4.74,3.73-.54,4.31,2.59,2.9,8,3.07,1.44,16.3,26.94,18.12,32s-3.73,23.32-5.65,30.76a13.46,13.46,0,0,0,2.66,12.49c.36.45,4,9.65,2.87,15.83a5.75,5.75,0,0,0,2.48-3.11c.52-2.49-1.14-6.54-1.14-6.95a2.46,2.46,0,0,0-.16-.45c-.12-.42-.25-.86-.41-1.32l-3.72-10.81a6.48,6.48,0,0,0,1.15-2.43,6.79,6.79,0,0,0-.46-4.36v0l3-12.41a7.11,7.11,0,0,0,3.16-4.27,7,7,0,0,0-.74-4.91,10.52,10.52,0,0,0,.76-1.92c1.2-4.3-.05-9.11-1.51-13.18-3.38-9.47-15.08-26.83-18.87-32.33-.1-3.31-1.21-4.73-2.1-5.33a3.33,3.33,0,0,0-.11-1.26,13.79,13.79,0,0,0-2.35-4.22,50.33,50.33,0,0,0-.78-7,89.65,89.65,0,0,0-1.83-8.93l.12,0c-1.77-6.54-4-12.67-5.24-16.33,4.3,2.61,17.15,3.9,25.09,2.38s9.35,1.56,11.89,1.46,6.19-7.54,8.4-12.66S156.92,167.79,155.94,171.33Z" style="fill:#6632C0;opacity:0.4"></path></g><g id="freepik--light-bulb--inject-73"><path d="M233,285.84h-.08l-1.47-.31a.38.38,0,0,1-.29-.44.38.38,0,0,1,.45-.29l1.46.31a.37.37,0,0,1-.07.74Z" style="fill:#6632C0"></path><path d="M228.52,284.87h-.09l-3-.69a.39.39,0,0,1-.28-.46.36.36,0,0,1,.45-.27l2.95.69a.37.37,0,0,1-.08.74Zm-5.89-1.43h-.1l-2.93-.77a.38.38,0,0,1-.27-.46.37.37,0,0,1,.46-.26l2.93.77a.37.37,0,0,1,.27.45A.38.38,0,0,1,222.63,283.44Zm-5.86-1.58h-.1l-2.92-.85a.38.38,0,0,1-.25-.47.38.38,0,0,1,.47-.25l2.9.85a.37.37,0,0,1,.26.46A.36.36,0,0,1,216.77,281.86ZM211,280.13l-.11,0c-1-.3-1.93-.61-2.89-.93a.36.36,0,0,1-.24-.47.37.37,0,0,1,.47-.24l2.88.93a.37.37,0,0,1-.11.73Zm-5.76-1.9a.25.25,0,0,1-.12,0c-1-.33-1.91-.66-2.86-1a.37.37,0,0,1-.23-.48.38.38,0,0,1,.48-.22l2.86,1a.39.39,0,0,1,.23.48A.38.38,0,0,1,205.2,278.23Zm-5.7-2.06a.3.3,0,0,1-.13,0l-2.84-1.09a.39.39,0,0,1-.21-.49.38.38,0,0,1,.49-.21c.93.37,1.87.73,2.82,1.09a.37.37,0,0,1,.22.48A.38.38,0,0,1,199.5,276.17ZM193.86,274a.35.35,0,0,1-.14,0l-2.8-1.18a.39.39,0,0,1-.2-.5.39.39,0,0,1,.5-.19c.92.4,1.85.79,2.78,1.17a.37.37,0,0,1,.21.49A.38.38,0,0,1,193.86,274Zm-5.56-2.41a.41.41,0,0,1-.16,0c-.93-.42-1.85-.84-2.76-1.27a.38.38,0,0,1-.18-.5.37.37,0,0,1,.5-.18c.91.43,1.83.85,2.75,1.26a.39.39,0,0,1,.19.5A.38.38,0,0,1,188.3,271.54ZM182.81,269a.47.47,0,0,1-.16,0c-.92-.45-1.82-.91-2.72-1.37a.38.38,0,0,1,.35-.67c.89.46,1.79.92,2.7,1.36a.38.38,0,0,1-.17.72Zm-5.39-2.78a.39.39,0,0,1-.18,0c-.89-.48-1.78-1-2.66-1.47a.37.37,0,0,1-.14-.51A.37.37,0,0,1,175,264c.87.49,1.76,1,2.65,1.46a.36.36,0,0,1,.15.5A.38.38,0,0,1,177.42,266.18Zm-5.29-3a.29.29,0,0,1-.18,0l-2.61-1.56a.37.37,0,0,1-.12-.52.36.36,0,0,1,.51-.12c.86.52,1.72,1,2.6,1.55a.4.4,0,0,1,.13.52A.38.38,0,0,1,172.13,263.21ZM167,260a.36.36,0,0,1-.2-.06c-.86-.55-1.71-1.11-2.54-1.67a.37.37,0,0,1,.42-.62c.83.56,1.67,1.11,2.52,1.66a.37.37,0,0,1,.12.52A.4.4,0,0,1,167,260Zm-5-3.39a.38.38,0,0,1-.22-.07c-.83-.58-1.65-1.18-2.46-1.78a.37.37,0,0,1-.08-.52.38.38,0,0,1,.53-.08c.8.6,1.62,1.19,2.45,1.77a.37.37,0,0,1-.22.68Zm-4.87-3.6a.4.4,0,0,1-.23-.08c-.81-.63-1.6-1.26-2.38-1.9a.38.38,0,1,1,.48-.58c.77.63,1.56,1.26,2.36,1.89a.38.38,0,0,1,.07.52A.38.38,0,0,1,157.07,253.05Zm-4.69-3.84a.38.38,0,0,1-.25-.09c-.77-.67-1.53-1.34-2.27-2a.37.37,0,0,1,0-.53.39.39,0,0,1,.53,0c.74.68,1.49,1.35,2.26,2a.37.37,0,0,1,0,.53A.39.39,0,0,1,152.38,249.21Zm-4.49-4.08a.4.4,0,0,1-.26-.11c-.73-.7-1.45-1.42-2.16-2.14a.37.37,0,1,1,.54-.52c.7.71,1.41,1.42,2.14,2.12a.37.37,0,0,1,0,.53A.36.36,0,0,1,147.89,245.13Zm-4.24-4.33a.39.39,0,0,1-.28-.12c-.69-.75-1.37-1.51-2-2.27a.37.37,0,1,1,.56-.49q1,1.14,2,2.25a.36.36,0,0,1,0,.53A.35.35,0,0,1,143.65,240.8Zm-4-4.58a.38.38,0,0,1-.29-.14c-.64-.79-1.27-1.59-1.87-2.4a.37.37,0,0,1,.07-.52.38.38,0,0,1,.53.07c.6.8,1.22,1.59,1.85,2.38a.38.38,0,0,1-.05.53A.41.41,0,0,1,139.68,236.22ZM136,231.38a.38.38,0,0,1-.31-.16c-.58-.84-1.15-1.68-1.7-2.53a.38.38,0,0,1,.12-.52.37.37,0,0,1,.51.11c.55.85,1.11,1.68,1.68,2.51a.37.37,0,0,1-.09.52A.33.33,0,0,1,136,231.38Zm-3.28-5.1a.36.36,0,0,1-.32-.18c-.52-.88-1-1.78-1.49-2.66a.36.36,0,0,1,.15-.5.38.38,0,0,1,.51.15c.46.87,1,1.76,1.47,2.63a.36.36,0,0,1-.13.51A.32.32,0,0,1,132.76,226.28Zm-2.85-5.34a.38.38,0,0,1-.34-.21c-.44-.92-.86-1.85-1.26-2.78a.37.37,0,0,1,.69-.29c.39.91.81,1.84,1.24,2.74a.37.37,0,0,1-.17.5A.32.32,0,0,1,129.91,220.94Zm-2.38-5.57a.39.39,0,0,1-.35-.25c-.36-1-.69-1.92-1-2.87a.39.39,0,0,1,.25-.48.38.38,0,0,1,.47.25c.3.94.63,1.9,1,2.84a.36.36,0,0,1-.22.48A.28.28,0,0,1,127.53,215.37Zm-1.84-5.78a.36.36,0,0,1-.36-.28c-.27-1-.51-2-.72-3a.39.39,0,0,1,.29-.45.39.39,0,0,1,.45.29c.21,1,.44,2,.7,2.93a.38.38,0,0,1-.27.46Zm-1.27-5.92a.38.38,0,0,1-.37-.31c-.16-1-.29-2-.4-3a.38.38,0,0,1,.33-.41.39.39,0,0,1,.42.33c.1,1,.24,2,.39,3a.37.37,0,0,1-.31.43Zm-.65-6a.37.37,0,0,1-.37-.35c-.06-1-.09-2-.09-3.05a.38.38,0,0,1,.75,0c0,1,0,2,.09,3a.38.38,0,0,1-.36.4Zm0-6.06h0a.37.37,0,0,1-.36-.39c0-1,.13-2,.23-3a.37.37,0,0,1,.41-.34.38.38,0,0,1,.33.41c-.1,1-.17,2-.22,3A.37.37,0,0,1,123.75,191.6Zm.6-6h-.06a.38.38,0,0,1-.31-.43c.15-1,.33-2,.53-3a.38.38,0,0,1,.45-.29.38.38,0,0,1,.29.44c-.2,1-.38,2-.53,3A.38.38,0,0,1,124.35,185.56Zm1.21-5.92-.09,0a.37.37,0,0,1-.27-.45c.25-1,.53-2,.83-2.93a.36.36,0,0,1,.47-.24.37.37,0,0,1,.25.46c-.3,1-.58,1.93-.82,2.89A.39.39,0,0,1,125.56,179.64Zm1.8-5.78-.13,0a.39.39,0,0,1-.23-.49c.35-.94.72-1.9,1.11-2.83a.38.38,0,0,1,.49-.21.4.4,0,0,1,.21.5c-.39.92-.76,1.87-1.1,2.8A.39.39,0,0,1,127.36,173.86Zm2.33-5.59a.32.32,0,0,1-.16,0,.37.37,0,0,1-.18-.5c.43-.9.88-1.82,1.36-2.72a.37.37,0,1,1,.66.34c-.47.9-.92,1.81-1.34,2.7A.38.38,0,0,1,129.69,168.27Zm2.82-5.37a.32.32,0,0,1-.19-.05.37.37,0,0,1-.14-.51c.51-.87,1-1.74,1.58-2.6a.37.37,0,1,1,.63.4q-.81,1.28-1.56,2.58A.37.37,0,0,1,132.51,162.9Zm3.24-5.12a.39.39,0,0,1-.21-.06.37.37,0,0,1-.1-.52c.57-.83,1.16-1.66,1.77-2.48a.38.38,0,0,1,.61.45c-.61.81-1.19,1.63-1.76,2.45A.36.36,0,0,1,135.75,157.78Zm3.62-4.86a.35.35,0,0,1-.24-.08.38.38,0,0,1-.06-.53q.94-1.17,2-2.34a.36.36,0,0,1,.52,0,.38.38,0,0,1,.05.53c-.66.77-1.31,1.54-1.93,2.32A.37.37,0,0,1,139.37,152.92Zm3.94-4.6a.35.35,0,0,1-.25-.1.37.37,0,0,1,0-.53c.68-.74,1.38-1.48,2.09-2.21a.37.37,0,0,1,.54.52c-.71.73-1.4,1.46-2.07,2.2A.39.39,0,0,1,143.31,148.32Zm4.22-4.35a.4.4,0,0,1-.27-.11.38.38,0,0,1,0-.53c.72-.7,1.46-1.4,2.21-2.09a.38.38,0,1,1,.51.55c-.75.69-1.48,1.38-2.2,2.08A.35.35,0,0,1,147.53,144Zm4.47-4.1a.37.37,0,0,1-.29-.13.39.39,0,0,1,0-.53c.76-.66,1.54-1.31,2.32-2a.38.38,0,1,1,.48.58q-1.17,1-2.31,1.95A.36.36,0,0,1,152,139.87Zm4.67-3.86a.37.37,0,0,1-.29-.14.38.38,0,0,1,.06-.53c.8-.62,1.6-1.23,2.42-1.84a.37.37,0,0,1,.52.07.38.38,0,0,1-.07.53c-.82.6-1.62,1.22-2.4,1.83A.37.37,0,0,1,156.67,136Zm4.86-3.62a.37.37,0,0,1-.3-.16.38.38,0,0,1,.08-.52c.83-.59,1.66-1.17,2.5-1.74a.38.38,0,0,1,.52.1.37.37,0,0,1-.1.52c-.84.57-1.66,1.15-2.48,1.73A.44.44,0,0,1,161.53,132.39Zm5-3.41a.38.38,0,0,1-.21-.69c.85-.54,1.71-1.09,2.57-1.62a.37.37,0,0,1,.52.12.38.38,0,0,1-.12.52c-.87.53-1.72,1.07-2.56,1.61A.36.36,0,0,1,166.55,129Zm5.15-3.19a.37.37,0,0,1-.32-.18.38.38,0,0,1,.13-.52l2.63-1.52a.38.38,0,0,1,.37.66l-2.62,1.51A.32.32,0,0,1,171.7,125.79Zm5.28-3a.4.4,0,0,1-.33-.2.38.38,0,0,1,.15-.51c.89-.48,1.78-.95,2.69-1.42a.37.37,0,0,1,.5.16.37.37,0,0,1-.16.51q-1.35.69-2.67,1.41A.41.41,0,0,1,177,122.81Zm5.38-2.79a.37.37,0,0,1-.16-.71c.9-.45,1.81-.89,2.73-1.33a.38.38,0,0,1,.32.68c-.92.43-1.82.87-2.72,1.32A.47.47,0,0,1,182.36,120Zm5.48-2.6a.39.39,0,0,1-.34-.22.37.37,0,0,1,.18-.5c.92-.42,1.85-.83,2.78-1.23a.36.36,0,0,1,.49.19.37.37,0,0,1-.19.49L188,117.38A.28.28,0,0,1,187.84,117.42Z" style="fill:#6632C0"></path><path d="M193.48,115a.38.38,0,0,1-.34-.23.37.37,0,0,1,.2-.49l1.39-.57a.37.37,0,0,1,.49.21.37.37,0,0,1-.21.48l-1.38.57A.4.4,0,0,1,193.48,115Z" style="fill:#6632C0"></path><path d="M371.71,111.06l-.13,0-1.41-.5a.38.38,0,0,1-.23-.48.39.39,0,0,1,.48-.23l1.41.5a.37.37,0,0,1,.23.48A.38.38,0,0,1,371.71,111.06Z" style="fill:#6632C0"></path><path d="M342.38,285.85a.38.38,0,0,1-.37-.3.38.38,0,0,1,.29-.44l2.93-.63a.37.37,0,0,1,.45.28.39.39,0,0,1-.29.45c-1,.21-1.95.43-2.93.63Zm5.86-1.3a.38.38,0,0,1-.37-.29.38.38,0,0,1,.28-.45l2.92-.71a.38.38,0,0,1,.45.28.37.37,0,0,1-.27.45l-2.93.71Zm5.83-1.45a.38.38,0,0,1-.1-.74c1-.25,1.94-.51,2.9-.78a.37.37,0,1,1,.2.72l-2.91.79Zm5.79-1.6a.37.37,0,0,1-.36-.27.36.36,0,0,1,.25-.46l2.87-.86a.38.38,0,0,1,.22.72l-2.88.86Zm5.74-1.75a.37.37,0,0,1-.11-.73l2.85-.94a.37.37,0,0,1,.47.24.36.36,0,0,1-.24.47c-.94.32-1.9.63-2.86.94Zm5.69-1.91a.39.39,0,0,1-.35-.25.38.38,0,0,1,.23-.48c.95-.33,1.89-.67,2.82-1a.37.37,0,0,1,.48.22.38.38,0,0,1-.22.48l-2.83,1Zm5.64-2.07a.39.39,0,0,1-.35-.24.38.38,0,0,1,.22-.49l2.79-1.09a.36.36,0,0,1,.48.2.37.37,0,0,1-.2.49l-2.8,1.1A.35.35,0,0,1,376.93,275.77Zm5.58-2.24a.38.38,0,0,1-.35-.23.37.37,0,0,1,.2-.49c.93-.39,1.84-.79,2.76-1.19a.38.38,0,0,1,.49.2.37.37,0,0,1-.19.49l-2.77,1.19Zm5.5-2.42a.37.37,0,0,1-.16-.71c.91-.42,1.82-.84,2.71-1.27a.37.37,0,0,1,.33.67c-.9.43-1.81.86-2.73,1.28A.4.4,0,0,1,388,271.11Zm5.41-2.59a.36.36,0,0,1-.33-.21.37.37,0,0,1,.17-.5c.89-.45,1.78-.9,2.66-1.36a.37.37,0,0,1,.51.16.36.36,0,0,1-.16.5c-.88.47-1.78.92-2.68,1.37A.33.33,0,0,1,393.42,268.52Zm5.33-2.77a.4.4,0,0,1-.33-.2.38.38,0,0,1,.15-.51c.88-.48,1.75-1,2.62-1.46a.38.38,0,0,1,.51.14.39.39,0,0,1-.14.52l-2.63,1.46A.41.41,0,0,1,398.75,265.75Zm5.22-3a.37.37,0,0,1-.19-.69l2.56-1.56a.36.36,0,0,1,.51.12.37.37,0,0,1-.12.52c-.85.52-1.7,1-2.57,1.56A.34.34,0,0,1,404,262.77Zm5.1-3.17a.4.4,0,0,1-.32-.17.38.38,0,0,1,.11-.52c.85-.54,1.68-1.1,2.5-1.66a.37.37,0,1,1,.42.62c-.83.56-1.66,1.12-2.51,1.67A.36.36,0,0,1,409.07,259.6Zm5-3.38a.37.37,0,0,1-.22-.68c.82-.58,1.62-1.17,2.42-1.77a.38.38,0,0,1,.45.6c-.8.6-1.61,1.19-2.43,1.78A.38.38,0,0,1,414,256.22Zm4.81-3.6a.41.41,0,0,1-.3-.14.38.38,0,0,1,.06-.53c.79-.62,1.57-1.25,2.33-1.88a.38.38,0,1,1,.48.58q-1.16,1-2.34,1.89A.4.4,0,0,1,418.84,252.62Zm4.62-3.83a.35.35,0,0,1-.28-.13.37.37,0,0,1,0-.53c.75-.65,1.5-1.32,2.23-2a.38.38,0,0,1,.53,0,.37.37,0,0,1,0,.53c-.73.68-1.48,1.35-2.24,2A.38.38,0,0,1,423.46,248.79Zm4.42-4.06a.37.37,0,0,1-.27-.12.38.38,0,0,1,0-.53c.72-.7,1.43-1.4,2.12-2.11a.38.38,0,0,1,.53,0,.37.37,0,0,1,0,.53q-1,1.08-2.13,2.13A.36.36,0,0,1,427.88,244.73Zm4.18-4.31a.35.35,0,0,1-.25-.1.38.38,0,0,1,0-.53c.67-.74,1.33-1.49,2-2.24a.38.38,0,1,1,.57.49c-.65.76-1.32,1.51-2,2.26A.36.36,0,0,1,432.06,240.42Zm3.91-4.56a.43.43,0,0,1-.24-.08.38.38,0,0,1-.05-.53c.62-.78,1.23-1.57,1.82-2.37a.38.38,0,0,1,.53-.07.37.37,0,0,1,.08.52c-.6.8-1.22,1.6-1.85,2.39A.37.37,0,0,1,436,235.86Zm3.59-4.81a.44.44,0,0,1-.22-.07.37.37,0,0,1-.09-.52q.86-1.25,1.65-2.49a.37.37,0,0,1,.52-.12.38.38,0,0,1,.11.52c-.53.84-1.09,1.68-1.67,2.51A.36.36,0,0,1,439.56,231.05Zm3.22-5.07a.32.32,0,0,1-.19,0,.37.37,0,0,1-.14-.51c.51-.87,1-1.74,1.45-2.61a.37.37,0,0,1,.51-.16.39.39,0,0,1,.16.51q-.7,1.32-1.47,2.64A.36.36,0,0,1,442.78,226Zm2.8-5.3a.47.47,0,0,1-.16,0,.37.37,0,0,1-.18-.5c.43-.89.84-1.81,1.22-2.72a.38.38,0,0,1,.49-.2.37.37,0,0,1,.2.49c-.39.92-.8,1.85-1.23,2.75A.38.38,0,0,1,445.58,220.68Zm2.33-5.53-.13,0a.37.37,0,0,1-.22-.48c.35-.94.67-1.89,1-2.82a.36.36,0,0,1,.47-.24.38.38,0,0,1,.24.47c-.3.94-.63,1.9-1,2.85A.38.38,0,0,1,447.91,215.15Zm1.81-5.72-.1,0a.36.36,0,0,1-.26-.45c.25-1,.48-1.94.68-2.9a.39.39,0,0,1,.45-.29.39.39,0,0,1,.29.45c-.21,1-.44,1.95-.7,2.93A.38.38,0,0,1,449.72,209.43Zm1.23-5.86h-.06a.39.39,0,0,1-.31-.43c.16-1,.29-2,.4-3a.36.36,0,0,1,.41-.33.38.38,0,0,1,.33.41c-.1,1-.24,2-.4,3A.38.38,0,0,1,451,203.57Zm.64-6h0a.37.37,0,0,1-.35-.39c0-1,.08-2,.09-3a.37.37,0,0,1,.37-.38h0a.38.38,0,0,1,.38.38c0,1,0,2-.09,3A.37.37,0,0,1,451.59,197.6Zm0-6a.37.37,0,0,1-.38-.35c-.05-1-.12-2-.22-3a.37.37,0,0,1,.34-.41.36.36,0,0,1,.41.34c.1,1,.17,2,.22,3a.37.37,0,0,1-.36.39Zm-.59-5.95a.37.37,0,0,1-.37-.32c-.15-1-.33-2-.52-2.94a.37.37,0,0,1,.29-.44.38.38,0,0,1,.44.29c.2,1,.38,2,.53,3a.38.38,0,0,1-.32.43Zm-1.2-5.88a.38.38,0,0,1-.36-.29c-.25-1-.52-1.93-.81-2.87a.38.38,0,0,1,.25-.47.38.38,0,0,1,.47.25c.29,1,.57,1.93.82,2.91a.37.37,0,0,1-.27.45ZM448.06,174a.37.37,0,0,1-.35-.25c-.34-.93-.7-1.87-1.08-2.78a.38.38,0,0,1,.7-.29c.38.93.75,1.87,1.09,2.82a.38.38,0,0,1-.23.48Zm-2.29-5.54a.37.37,0,0,1-.34-.22c-.41-.89-.86-1.79-1.32-2.68a.37.37,0,0,1,.66-.34c.47.9.92,1.81,1.34,2.7a.37.37,0,0,1-.18.5A.32.32,0,0,1,445.77,168.48ZM443,163.15a.39.39,0,0,1-.33-.19c-.49-.85-1-1.71-1.54-2.56a.37.37,0,0,1,.64-.39q.81,1.28,1.56,2.58a.37.37,0,0,1-.14.51A.34.34,0,0,1,443,163.15Zm-3.19-5.08a.38.38,0,0,1-.31-.16c-.56-.82-1.14-1.63-1.73-2.44a.37.37,0,0,1,.08-.53.38.38,0,0,1,.52.08c.6.82,1.18,1.64,1.75,2.46a.38.38,0,0,1-.1.52A.35.35,0,0,1,439.81,158.07Zm-3.56-4.83a.39.39,0,0,1-.3-.14c-.62-.78-1.25-1.55-1.9-2.32a.38.38,0,0,1,.58-.48c.65.77,1.29,1.55,1.91,2.33a.38.38,0,0,1-.06.53A.4.4,0,0,1,436.25,153.24Zm-3.89-4.58a.39.39,0,0,1-.28-.12q-1-1.11-2-2.19a.37.37,0,0,1,.54-.52c.7.73,1.39,1.46,2.06,2.2a.37.37,0,0,1,0,.53A.35.35,0,0,1,432.36,148.66Zm-4.16-4.33a.33.33,0,0,1-.26-.11c-.71-.69-1.43-1.38-2.17-2.06a.38.38,0,0,1,.51-.55c.74.69,1.47,1.38,2.18,2.08a.38.38,0,0,1,0,.53A.4.4,0,0,1,428.2,144.33Zm-4.4-4.08a.38.38,0,0,1-.25-.09c-.75-.66-1.5-1.31-2.28-1.95a.38.38,0,0,1,0-.53.37.37,0,0,1,.52-.05c.78.65,1.54,1.3,2.29,2a.38.38,0,0,1,0,.53A.37.37,0,0,1,423.8,140.25Zm-4.62-3.85a.34.34,0,0,1-.23-.08l-2.37-1.83a.38.38,0,0,1,.45-.6c.81.61,1.6,1.23,2.39,1.85a.37.37,0,0,1,.06.52A.37.37,0,0,1,419.18,136.4Zm-4.79-3.61a.44.44,0,0,1-.22-.07c-.8-.58-1.62-1.16-2.45-1.72a.39.39,0,0,1-.1-.53.37.37,0,0,1,.52-.09c.84.57,1.66,1.14,2.47,1.73a.36.36,0,0,1,.08.52A.37.37,0,0,1,414.39,132.79Zm-4.95-3.4a.42.42,0,0,1-.21-.06l-2.52-1.62a.36.36,0,0,1-.12-.51.37.37,0,0,1,.52-.12c.85.53,1.7,1.07,2.53,1.62a.37.37,0,0,1,.11.52A.37.37,0,0,1,409.44,129.39Zm-5.09-3.19a.3.3,0,0,1-.19,0c-.86-.51-1.72-1-2.59-1.51a.39.39,0,0,1-.14-.52.36.36,0,0,1,.51-.13c.88.5,1.74,1,2.6,1.52a.36.36,0,0,1,.13.51A.37.37,0,0,1,404.35,126.2Zm-5.21-3a.37.37,0,0,1-.18,0l-2.64-1.42a.36.36,0,0,1-.16-.5.38.38,0,0,1,.51-.16l2.65,1.42a.38.38,0,0,1-.18.71Zm-5.32-2.79a.53.53,0,0,1-.17,0L391,119.06a.37.37,0,1,1,.33-.67c.91.43,1.81.88,2.7,1.33a.38.38,0,0,1-.17.71Zm-5.41-2.61a.41.41,0,0,1-.16,0c-.9-.42-1.81-.83-2.73-1.24a.36.36,0,0,1-.19-.49.37.37,0,0,1,.49-.19c.92.41,1.84.82,2.74,1.24a.37.37,0,0,1,.19.49A.38.38,0,0,1,388.41,117.82Zm-5.5-2.42a.32.32,0,0,1-.14,0L380,114.22a.37.37,0,1,1,.28-.69c.93.37,1.86.76,2.78,1.15a.37.37,0,0,1,.2.49A.38.38,0,0,1,382.91,115.4Zm-5.56-2.26a.32.32,0,0,1-.14,0c-.93-.36-1.86-.72-2.8-1.06a.37.37,0,0,1-.22-.48.37.37,0,0,1,.48-.23l2.81,1.07a.37.37,0,0,1-.13.72Z" style="fill:#6632C0"></path><path d="M337.86,286.75a.37.37,0,0,1-.07-.74l1.47-.29a.38.38,0,0,1,.44.3.37.37,0,0,1-.3.44l-1.47.28Z" style="fill:#6632C0"></path><path d="M213.63,263.66a.36.36,0,0,1-.27-.12l-1-1.08a.37.37,0,0,1,0-.53.38.38,0,0,1,.53,0l1,1.08a.38.38,0,0,1-.27.64Z" style="fill:#6632C0"></path><path d="M210.52,260.4a.39.39,0,0,1-.27-.11l-2.05-2.2a.37.37,0,0,1,0-.53.38.38,0,0,1,.53,0l2,2.19a.37.37,0,0,1-.27.63ZM206.46,256a.39.39,0,0,1-.28-.12l-2-2.24a.37.37,0,0,1,0-.53.38.38,0,0,1,.53,0l2,2.24a.37.37,0,0,1,0,.53A.38.38,0,0,1,206.46,256Zm-4-4.49a.41.41,0,0,1-.29-.13l-1.94-2.29a.37.37,0,0,1,0-.53.38.38,0,0,1,.53,0l1.94,2.28a.36.36,0,0,1,0,.52A.37.37,0,0,1,202.5,251.5Zm-3.87-4.59a.39.39,0,0,1-.29-.13c-.63-.78-1.27-1.55-1.89-2.33A.37.37,0,1,1,197,244l1.89,2.32a.38.38,0,0,1,0,.53A.41.41,0,0,1,198.63,246.91Zm-3.76-4.66a.35.35,0,0,1-.29-.15c-.62-.79-1.24-1.57-1.85-2.37a.38.38,0,0,1,.07-.52.37.37,0,0,1,.53.07c.6.79,1.22,1.57,1.84,2.36a.37.37,0,0,1-.07.52A.35.35,0,0,1,194.87,242.25Zm-3.66-4.75a.42.42,0,0,1-.3-.15l-1.79-2.41a.38.38,0,1,1,.61-.45c.59.8,1.18,1.61,1.78,2.41a.37.37,0,0,1-.07.52A.4.4,0,0,1,191.21,237.5Zm-3.54-4.84a.37.37,0,0,1-.31-.15c-.59-.82-1.16-1.63-1.74-2.45a.38.38,0,0,1,.1-.52.37.37,0,0,1,.52.09l1.73,2.44a.37.37,0,0,1-.09.52A.33.33,0,0,1,187.67,232.66Zm-3.44-4.91a.38.38,0,0,1-.31-.16q-.85-1.25-1.68-2.49a.38.38,0,0,1,.63-.42c.55.83,1.1,1.66,1.67,2.49a.38.38,0,0,1-.1.52A.39.39,0,0,1,184.23,227.75Zm-3.32-5a.4.4,0,0,1-.32-.17L179,220.06a.38.38,0,0,1,.11-.52.37.37,0,0,1,.52.12c.53.84,1.07,1.68,1.61,2.52a.37.37,0,0,1-.11.52A.36.36,0,0,1,180.91,222.76Zm-3.2-5.07a.4.4,0,0,1-.32-.18c-.52-.86-1-1.71-1.55-2.57a.37.37,0,1,1,.64-.38l1.55,2.56a.37.37,0,0,1-.12.51A.36.36,0,0,1,177.71,217.69Zm-3.07-5.15a.36.36,0,0,1-.32-.19c-.51-.87-1-1.73-1.49-2.6a.37.37,0,1,1,.65-.37L175,212a.36.36,0,0,1-.13.51A.45.45,0,0,1,174.64,212.54Zm-2.94-5.22a.4.4,0,0,1-.33-.2c-.48-.88-1-1.76-1.42-2.64a.37.37,0,0,1,.16-.51.36.36,0,0,1,.5.15c.47.88.94,1.76,1.42,2.64a.38.38,0,0,1-.15.51A.41.41,0,0,1,171.7,207.32Zm-2.8-5.3a.39.39,0,0,1-.34-.21l-1.35-2.68a.38.38,0,0,1,.68-.33c.44.89.89,1.78,1.34,2.67a.39.39,0,0,1-.33.55Zm-2.66-5.38a.39.39,0,0,1-.34-.21c-.43-.91-.85-1.81-1.27-2.72a.37.37,0,0,1,.18-.5.38.38,0,0,1,.5.19l1.27,2.71a.38.38,0,0,1-.18.5A.41.41,0,0,1,166.24,196.64Zm-2.5-5.44a.39.39,0,0,1-.35-.23c-.4-.92-.8-1.83-1.19-2.75a.37.37,0,0,1,.2-.49.37.37,0,0,1,.49.19c.39.92.78,1.83,1.19,2.75a.37.37,0,0,1-.19.49A.28.28,0,0,1,163.74,191.2Zm-2.35-5.52a.38.38,0,0,1-.35-.24c-.37-.93-.75-1.86-1.11-2.79a.38.38,0,0,1,.7-.27c.36.93.73,1.85,1.11,2.78a.38.38,0,0,1-.21.49A.32.32,0,0,1,161.39,185.68Zm-2.17-5.59a.38.38,0,0,1-.36-.24c-.35-.94-.69-1.89-1-2.83a.37.37,0,0,1,.23-.47.37.37,0,0,1,.48.22q.49,1.41,1,2.82a.38.38,0,0,1-.22.48Zm-2-5.65a.36.36,0,0,1-.35-.26q-.48-1.43-.93-2.85a.37.37,0,0,1,.24-.47.36.36,0,0,1,.47.24c.3,1,.61,1.9.93,2.84a.38.38,0,0,1-.24.48Zm-1.8-5.72a.37.37,0,0,1-.36-.27c-.29-1-.56-1.92-.83-2.88a.39.39,0,0,1,.26-.47.38.38,0,0,1,.46.27c.27.95.54,1.91.83,2.87a.38.38,0,0,1-.26.47Zm-1.6-5.78a.36.36,0,0,1-.36-.28q-.37-1.46-.72-2.91a.37.37,0,0,1,.28-.46.38.38,0,0,1,.45.28c.22,1,.46,1.94.71,2.91a.37.37,0,0,1-.27.45Zm-1.38-5.83a.38.38,0,0,1-.37-.29c-.21-1-.41-2-.6-2.95a.37.37,0,0,1,.3-.44.38.38,0,0,1,.44.3c.19,1,.39,2,.6,2.93a.38.38,0,0,1-.29.44Zm-1.14-5.88a.38.38,0,0,1-.37-.31q-.26-1.5-.48-3a.38.38,0,0,1,.32-.43.37.37,0,0,1,.42.32c.15,1,.31,2,.48,2.95a.37.37,0,0,1-.31.43Zm-.89-5.93A.37.37,0,0,1,150,145c-.13-1-.24-2-.34-3a.38.38,0,0,1,.33-.41.37.37,0,0,1,.41.34c.1,1,.22,2,.34,3a.38.38,0,0,1-.32.42Zm-.61-6a.37.37,0,0,1-.37-.35c-.08-1-.15-2-.2-3a.37.37,0,0,1,.36-.39.36.36,0,0,1,.39.35c.05,1,.12,2,.19,3a.36.36,0,0,1-.34.4Zm-.31-6a.37.37,0,0,1-.37-.37c0-.91,0-1.81,0-2.72V130a.38.38,0,0,1,.38-.38h0a.37.37,0,0,1,.37.38v.28c0,.9,0,1.8,0,2.71a.38.38,0,0,1-.37.38Zm0-6h0a.39.39,0,0,1-.37-.39c0-1,.08-2,.14-3a.39.39,0,0,1,.4-.35.37.37,0,0,1,.35.4c-.06,1-.11,2-.14,3A.37.37,0,0,1,149.51,127.36Zm.37-6h0a.37.37,0,0,1-.34-.41c.09-1,.2-2,.33-3a.37.37,0,1,1,.74.1c-.12,1-.23,2-.32,3A.39.39,0,0,1,149.88,121.38Zm.76-5.95h-.06a.39.39,0,0,1-.31-.43c.17-1,.34-2,.54-3a.38.38,0,0,1,.74.15q-.3,1.45-.54,2.94A.38.38,0,0,1,150.64,115.43Zm1.18-5.88h-.08a.36.36,0,0,1-.28-.45c.23-1,.49-2,.76-2.91a.37.37,0,0,1,.46-.26.37.37,0,0,1,.26.46c-.27,1-.52,1.92-.75,2.89A.38.38,0,0,1,151.82,109.55Zm1.63-5.76-.11,0a.37.37,0,0,1-.24-.47c.31-1,.65-1.92,1-2.85a.38.38,0,1,1,.71.27c-.35.91-.68,1.86-1,2.81A.38.38,0,0,1,153.45,103.79Zm2.11-5.61a.4.4,0,0,1-.15,0,.37.37,0,0,1-.19-.5c.39-.92.81-1.85,1.24-2.74a.37.37,0,0,1,.5-.18.39.39,0,0,1,.18.51c-.43.88-.84,1.79-1.23,2.71A.39.39,0,0,1,155.56,98.18Zm2.61-5.4a.35.35,0,0,1-.18,0,.36.36,0,0,1-.15-.5c.47-.89,1-1.77,1.5-2.62a.37.37,0,0,1,.51-.13A.39.39,0,0,1,160,90c-.51.84-1,1.71-1.48,2.58A.38.38,0,0,1,158.17,92.78Zm3.1-5.12a.44.44,0,0,1-.21-.07.38.38,0,0,1-.1-.52c.56-.83,1.15-1.65,1.76-2.45a.37.37,0,1,1,.59.45c-.59.79-1.17,1.6-1.73,2.42A.37.37,0,0,1,161.27,87.66Zm3.61-4.79a.36.36,0,0,1-.24-.09.38.38,0,0,1,0-.53c.64-.76,1.31-1.53,2-2.26a.38.38,0,0,1,.55.51c-.67.72-1.33,1.48-2,2.24A.43.43,0,0,1,164.88,82.87ZM169,78.43a.35.35,0,0,1-.26-.1.34.34,0,0,1,0-.5l.06-.06c.7-.68,1.42-1.34,2.15-2a.37.37,0,0,1,.53,0,.38.38,0,0,1,0,.53c-.72.63-1.44,1.29-2.13,2A.42.42,0,0,1,169,78.43Zm4.48-3.91a.37.37,0,0,1-.29-.14.38.38,0,0,1,.06-.53c.78-.62,1.6-1.23,2.41-1.81a.37.37,0,0,1,.52.09.38.38,0,0,1-.08.52c-.81.58-1.61,1.18-2.39,1.79A.32.32,0,0,1,173.45,74.52Zm4.88-3.47a.37.37,0,0,1-.31-.17.38.38,0,0,1,.11-.52q1.27-.81,2.58-1.56a.37.37,0,0,1,.51.14.37.37,0,0,1-.14.51c-.85.49-1.71,1-2.55,1.54A.36.36,0,0,1,178.33,71.05Zm84-2.63a.25.25,0,0,1-.12,0c-1-.33-1.89-.65-2.84-1a.38.38,0,1,1,.24-.72l2.84,1a.39.39,0,0,1,.24.48A.38.38,0,0,1,262.35,68.42Zm-78.81-.34a.37.37,0,0,1-.17-.71c.89-.45,1.8-.89,2.71-1.3a.38.38,0,0,1,.5.19.38.38,0,0,1-.19.5c-.9.4-1.81.83-2.68,1.28A.38.38,0,0,1,183.54,68.08Zm73.11-1.52-.11,0c-1-.3-1.91-.58-2.86-.85a.38.38,0,0,1-.26-.47.39.39,0,0,1,.47-.26l2.87.86a.38.38,0,0,1,.25.47A.38.38,0,0,1,256.65,66.56ZM189,65.62a.38.38,0,0,1-.35-.23.38.38,0,0,1,.21-.49c.93-.37,1.88-.72,2.83-1a.36.36,0,0,1,.47.23.38.38,0,0,1-.23.48c-.94.32-1.88.67-2.79,1A.36.36,0,0,1,189,65.62Zm61.89-.72h-.09l-2.9-.75a.37.37,0,0,1,.18-.72c1,.23,1.94.48,2.91.74a.38.38,0,0,1-.1.74Zm-56.23-1.23a.37.37,0,0,1-.1-.73c.95-.29,1.92-.55,2.9-.8a.38.38,0,0,1,.46.27.38.38,0,0,1-.28.45c-1,.25-1.92.51-2.87.8Zm50.41-.2H245c-1-.22-2-.43-2.92-.62a.37.37,0,0,1-.3-.44.38.38,0,0,1,.45-.3l2.93.63a.37.37,0,0,1,.29.45A.38.38,0,0,1,245.07,63.47Zm-5.87-1.19h-.07c-1-.18-2-.34-2.95-.5a.37.37,0,0,1-.31-.42.38.38,0,0,1,.43-.32c1,.16,2,.32,3,.5a.38.38,0,0,1,.31.43A.37.37,0,0,1,239.2,62.28Zm-38.73-.08a.38.38,0,0,1-.37-.3.38.38,0,0,1,.29-.44c1-.21,2-.4,3-.57a.38.38,0,0,1,.13.74c-1,.17-2,.36-2.93.56Zm32.8-.84h-.05c-1-.13-2-.25-3-.35a.38.38,0,0,1-.34-.41.39.39,0,0,1,.42-.34l3,.36a.37.37,0,0,1,0,.74Zm-26.89-.18a.37.37,0,0,1,0-.74c1-.14,2-.25,3-.35a.37.37,0,0,1,.41.33.37.37,0,0,1-.34.41c-1,.1-2,.22-3,.35Zm20.93-.45h0c-1-.08-2-.15-3-.2a.38.38,0,0,1-.35-.39.37.37,0,0,1,.39-.36c1,0,2,.12,3,.2a.39.39,0,0,1,.35.41A.38.38,0,0,1,227.31,60.73Zm-15-.14a.38.38,0,0,1,0-.75q1.49-.11,3-.15a.38.38,0,0,1,0,.75c-1,0-2,.08-3,.15Zm9-.18h0l-2.61,0h-.38c-.23,0-.37-.17-.37-.37a.37.37,0,0,1,.37-.38h.38l2.63,0a.38.38,0,0,1,.36.39A.37.37,0,0,1,221.33,60.41Z" style="fill:#6632C0"></path><path d="M266.63,70l-.13,0-1.41-.52a.38.38,0,0,1,.26-.71l1.41.53a.37.37,0,0,1,.22.48A.38.38,0,0,1,266.63,70Z" style="fill:#6632C0"></path><path d="M401.55,198.37a.36.36,0,0,1-.34-.22l-.63-1.36a.37.37,0,1,1,.67-.32c.22.46.43.91.64,1.37a.37.37,0,0,1-.19.49A.28.28,0,0,1,401.55,198.37Z" style="fill:#6632C0"></path><path d="M348.47,331.82a.38.38,0,0,1-.37-.38.36.36,0,0,1,.37-.37c1,0,2,0,3-.07a.38.38,0,0,1,.39.36.38.38,0,0,1-.36.39c-1,0-2,.06-3.06.07Zm-3,0h0c-1,0-2-.06-3.05-.11a.38.38,0,0,1-.35-.39.34.34,0,0,1,.39-.36c1,.05,2,.09,3,.11a.38.38,0,1,1,0,.75Zm9.12-.21a.38.38,0,0,1-.38-.35.39.39,0,0,1,.35-.4c1-.07,2-.16,3-.26a.38.38,0,0,1,.41.33.37.37,0,0,1-.33.41c-1,.11-2,.2-3,.27Zm-15.19-.1h0c-1-.08-2-.17-3-.28a.36.36,0,0,1-.33-.41.37.37,0,0,1,.41-.33l3,.27a.38.38,0,0,1,.34.41A.37.37,0,0,1,339.36,331.48ZM360.6,331a.38.38,0,0,1-.06-.75c1-.14,2-.3,3-.48a.38.38,0,0,1,.44.31.38.38,0,0,1-.3.43c-1,.18-2,.34-3,.48Zm-27.29-.1h-.05c-1-.14-2-.28-3-.44a.37.37,0,0,1-.31-.42.36.36,0,0,1,.43-.32c1,.16,2,.3,3,.43a.38.38,0,0,1,.32.42A.37.37,0,0,1,333.31,330.85Zm-6-.93h-.07l-3-.57a.37.37,0,0,1-.29-.44.36.36,0,0,1,.44-.29c1,.2,2,.39,3,.56a.38.38,0,0,1,.3.44A.38.38,0,0,1,327.3,329.92Zm39.28-.05a.38.38,0,0,1-.37-.29.39.39,0,0,1,.29-.45c1-.22,2-.45,2.94-.71a.38.38,0,1,1,.19.73c-1,.26-2,.49-3,.71Zm5.88-1.54a.38.38,0,0,1-.11-.74c1-.29,1.92-.61,2.87-.95a.37.37,0,0,1,.48.23.38.38,0,0,1-.22.48c-1,.34-1.94.66-2.91,1Zm5.73-2.05a.37.37,0,0,1-.35-.23.37.37,0,0,1,.21-.49c.93-.38,1.86-.79,2.77-1.21a.37.37,0,0,1,.49.19.36.36,0,0,1-.18.49c-.92.43-1.86.84-2.8,1.23A.34.34,0,0,1,378.19,326.28Zm5.51-2.56a.35.35,0,0,1-.33-.2.37.37,0,0,1,.16-.51c.89-.46,1.78-1,2.64-1.47a.38.38,0,0,1,.51.14.39.39,0,0,1-.13.51c-.87.51-1.77,1-2.68,1.49A.33.33,0,0,1,383.7,323.72Zm5.23-3.09a.37.37,0,0,1-.31-.17.38.38,0,0,1,.11-.52c.84-.55,1.67-1.13,2.47-1.73a.39.39,0,0,1,.53.08.38.38,0,0,1-.08.53c-.81.6-1.66,1.19-2.51,1.75A.39.39,0,0,1,388.93,320.63Zm4.9-3.61a.36.36,0,0,1-.29-.13.38.38,0,0,1,0-.53q1.17-1,2.28-2a.37.37,0,0,1,.53,0,.38.38,0,0,1,0,.53c-.75.68-1.53,1.35-2.32,2A.34.34,0,0,1,393.83,317Zm4.49-4.09a.38.38,0,0,1-.27-.64c.71-.72,1.41-1.46,2.07-2.2a.37.37,0,1,1,.56.49c-.67.76-1.38,1.51-2.09,2.24A.4.4,0,0,1,398.32,312.93Zm4-4.54a.4.4,0,0,1-.23-.08.37.37,0,0,1-.06-.53c.63-.79,1.24-1.6,1.83-2.41a.38.38,0,0,1,.61.44c-.59.82-1.22,1.64-1.86,2.44A.37.37,0,0,1,402.36,308.39Zm3.56-4.93a.37.37,0,0,1-.21-.06.38.38,0,0,1-.11-.52c.54-.84,1.07-1.71,1.57-2.58a.39.39,0,0,1,.52-.14.37.37,0,0,1,.14.51c-.51.88-1.05,1.76-1.6,2.61A.36.36,0,0,1,405.92,303.46Zm3-5.27a.38.38,0,0,1-.17,0,.39.39,0,0,1-.16-.51c.45-.88.9-1.8,1.32-2.72a.37.37,0,0,1,.68.31c-.42.93-.87,1.86-1.33,2.76A.38.38,0,0,1,409,298.19Zm2.53-5.54a.32.32,0,0,1-.14,0,.37.37,0,0,1-.21-.49c.37-.93.73-1.88,1.06-2.83a.37.37,0,0,1,.48-.23.38.38,0,0,1,.23.48c-.34.95-.7,1.92-1.08,2.86A.35.35,0,0,1,411.48,292.65Zm2-5.73-.11,0a.38.38,0,0,1-.25-.47c.29-1,.56-1.93.82-2.91a.38.38,0,0,1,.46-.27.37.37,0,0,1,.26.46c-.25,1-.53,2-.82,2.94A.38.38,0,0,1,413.49,286.92ZM415,281h-.08a.38.38,0,0,1-.29-.44c.21-1,.41-2,.59-3a.38.38,0,0,1,.43-.31.39.39,0,0,1,.31.44q-.27,1.51-.6,3A.36.36,0,0,1,415,281Zm1.07-6h0a.37.37,0,0,1-.32-.42c.14-1,.27-2,.37-3a.38.38,0,0,1,.75.08c-.11,1-.24,2-.38,3A.37.37,0,0,1,416.09,275.05Zm.65-6.05h0a.38.38,0,0,1-.34-.4c.07-1,.13-2,.17-3a.38.38,0,0,1,.38-.36h0a.38.38,0,0,1,.35.4c0,1-.1,2-.17,3A.38.38,0,0,1,416.74,269Zm.26-6.08h0a.37.37,0,0,1-.37-.38c0-.45,0-.9,0-1.35s0-1.12,0-1.68a.38.38,0,0,1,.37-.38.4.4,0,0,1,.38.37c0,.57,0,1.13,0,1.69s0,.91,0,1.36A.37.37,0,0,1,417,262.92Zm-.09-6.08a.36.36,0,0,1-.37-.36c-.05-1-.1-2-.17-3a.37.37,0,1,1,.74-.05c.07,1,.13,2,.18,3a.39.39,0,0,1-.36.39Zm-.42-6.06a.37.37,0,0,1-.37-.34c-.1-1-.21-2-.33-3a.39.39,0,0,1,.33-.42.38.38,0,0,1,.42.33c.12,1,.23,2,.32,3a.37.37,0,0,1-.34.41Zm-.72-6a.37.37,0,0,1-.37-.32c-.15-1-.3-2-.47-3a.38.38,0,0,1,.31-.43.36.36,0,0,1,.43.3c.17,1,.33,2,.47,3a.37.37,0,0,1-.32.42Zm-1-6a.38.38,0,0,1-.37-.31q-.28-1.49-.6-3a.39.39,0,0,1,.29-.45.38.38,0,0,1,.45.29c.21,1,.41,2,.6,3a.38.38,0,0,1-.3.44Zm-1.26-6a.37.37,0,0,1-.36-.3c-.23-1-.47-2-.72-2.94a.38.38,0,0,1,.28-.46.37.37,0,0,1,.45.27q.38,1.48.72,3a.38.38,0,0,1-.28.45Zm-1.49-5.9a.38.38,0,0,1-.36-.28c-.26-1-.54-1.94-.83-2.92a.38.38,0,0,1,.73-.21c.28,1,.56,2,.82,2.93a.38.38,0,0,1-.26.47Zm-1.71-5.84a.36.36,0,0,1-.35-.26c-.3-1-.61-1.93-.93-2.89a.38.38,0,0,1,.23-.48.39.39,0,0,1,.48.24c.32,1,.63,1.94.93,2.9a.38.38,0,0,1-.24.47A.25.25,0,0,1,410.31,221.05Zm-1.91-5.77a.37.37,0,0,1-.35-.25c-.34-.95-.68-1.91-1-2.86a.37.37,0,0,1,.22-.48.37.37,0,0,1,.48.22c.35,1,.7,1.92,1,2.87a.38.38,0,0,1-.23.48Zm-2.11-5.71a.38.38,0,0,1-.35-.24c-.36-.94-.73-1.88-1.12-2.82A.39.39,0,0,1,405,206a.38.38,0,0,1,.49.21c.38.94.76,1.89,1.12,2.83a.38.38,0,0,1-.21.49ZM404,203.94a.38.38,0,0,1-.34-.23c-.39-.93-.8-1.86-1.21-2.79a.37.37,0,0,1,.2-.49.37.37,0,0,1,.49.19c.41.93.82,1.86,1.21,2.79a.39.39,0,0,1-.2.5A.4.4,0,0,1,404,203.94Z" style="fill:#6632C0"></path><path d="M321.29,328.71h-.08l-1.46-.34a.37.37,0,0,1,.17-.73c.49.11,1,.23,1.46.33a.38.38,0,0,1-.09.75Z" style="fill:#6632C0"></path><path d="M242.36,325.24a.36.36,0,0,1-.36-.3.37.37,0,0,1,.29-.44l1.47-.3a.37.37,0,0,1,.15.73l-1.47.3Z" style="fill:#6632C0"></path><path d="M215.93,327.86h0c-1,0-2,0-3-.07a.37.37,0,0,1-.36-.39A.39.39,0,0,1,213,327c1,0,2,.06,3,.07a.37.37,0,0,1,.37.38A.38.38,0,0,1,215.93,327.86Zm2.95,0a.38.38,0,0,1-.37-.37.37.37,0,0,1,.37-.38l2.94-.09a.37.37,0,0,1,.39.36.37.37,0,0,1-.36.39l-3,.09Zm-8.86-.22h0c-1-.06-2-.14-3-.24a.37.37,0,0,1-.34-.41.37.37,0,0,1,.41-.33c1,.09,1.95.17,2.93.24a.37.37,0,0,1,.35.4A.37.37,0,0,1,210,327.63Zm14.77,0a.37.37,0,0,1-.37-.35.37.37,0,0,1,.35-.4c1-.06,1.95-.14,2.93-.23a.36.36,0,0,1,.41.34.37.37,0,0,1-.34.41c-1,.09-2,.16-3,.23Zm5.89-.53a.37.37,0,0,1-.37-.33.37.37,0,0,1,.33-.42l2.92-.36a.39.39,0,0,1,.43.32.38.38,0,0,1-.33.42c-1,.13-2,.26-2.94.37Zm-26.55,0h0c-1-.13-2-.27-2.94-.43a.37.37,0,0,1-.31-.43.38.38,0,0,1,.43-.31c1,.16,1.93.3,2.91.43a.37.37,0,0,1-.05.74Zm32.41-.78a.38.38,0,0,1-.37-.32.38.38,0,0,1,.31-.43c1-.15,1.94-.31,2.91-.49a.37.37,0,0,1,.43.31.37.37,0,0,1-.3.43c-1,.18-2,.34-2.92.49Zm-38.24-.17h-.07c-1-.2-1.95-.4-2.91-.63a.38.38,0,0,1,.18-.73c.95.22,1.9.43,2.87.62a.37.37,0,0,1-.07.74Zm-5.75-1.35-.1,0q-1.44-.39-2.85-.84a.38.38,0,0,1-.25-.47.38.38,0,0,1,.48-.24c.93.29,1.87.57,2.82.83a.38.38,0,0,1-.1.74ZM186.91,323l-.12,0c-.94-.34-1.86-.7-2.78-1.08a.37.37,0,0,1,.29-.69c.9.37,1.82.72,2.74,1.06a.38.38,0,0,1,.23.48A.39.39,0,0,1,186.91,323Zm-5.47-2.25a.28.28,0,0,1-.15,0c-.91-.42-1.81-.86-2.67-1.31a.37.37,0,0,1-.16-.51.38.38,0,0,1,.5-.16c.86.45,1.75.88,2.64,1.3a.38.38,0,0,1-.16.72ZM176.2,318a.41.41,0,0,1-.19-.05c-.87-.51-1.72-1-2.54-1.56a.38.38,0,0,1-.11-.52.38.38,0,0,1,.52-.11c.81.52,1.65,1,2.51,1.54a.36.36,0,0,1,.13.51A.37.37,0,0,1,176.2,318Zm-5-3.21a.41.41,0,0,1-.22-.07c-.8-.58-1.6-1.18-2.37-1.8a.37.37,0,0,1-.06-.53.38.38,0,0,1,.52-.06c.77.61,1.56,1.21,2.34,1.78a.37.37,0,0,1,.09.52A.38.38,0,0,1,171.24,314.78Zm-4.63-3.69a.38.38,0,0,1-.24-.09c-.74-.65-1.47-1.33-2.18-2a.37.37,0,1,1,.52-.54c.7.68,1.42,1.35,2.15,2a.38.38,0,0,1,0,.53A.4.4,0,0,1,166.61,311.09ZM162.39,307a.39.39,0,0,1-.28-.12l-.27-.3c-.58-.64-1.14-1.28-1.69-1.94a.38.38,0,0,1,0-.53.37.37,0,0,1,.52.05c.54.65,1.1,1.29,1.67,1.91l.27.3a.37.37,0,0,1,0,.53A.35.35,0,0,1,162.39,307Zm-3.79-4.54a.36.36,0,0,1-.3-.15c-.6-.78-1.18-1.6-1.73-2.42a.37.37,0,0,1,.1-.52.38.38,0,0,1,.52.1c.55.81,1.12,1.61,1.71,2.39a.38.38,0,0,1-.08.53A.34.34,0,0,1,158.6,302.43Zm-3.32-4.89a.37.37,0,0,1-.32-.18c-.51-.85-1-1.72-1.48-2.58a.38.38,0,0,1,.16-.51.36.36,0,0,1,.5.15c.46.86,1,1.71,1.46,2.55a.37.37,0,0,1-.12.52A.46.46,0,0,1,155.28,297.54Zm-2.81-5.2a.39.39,0,0,1-.34-.21c-.43-.89-.84-1.8-1.22-2.71a.37.37,0,1,1,.69-.29c.38.89.78,1.79,1.21,2.68a.38.38,0,0,1-.18.5A.45.45,0,0,1,152.47,292.34Zm-2.31-5.44a.38.38,0,0,1-.35-.24c-.34-.93-.67-1.87-1-2.81a.36.36,0,0,1,.24-.47.37.37,0,0,1,.47.24c.3.93.62,1.86,1,2.78a.37.37,0,0,1-.22.48A.3.3,0,0,1,150.16,286.9Zm-1.81-5.62A.37.37,0,0,1,148,281c-.26-.95-.51-1.91-.73-2.88a.38.38,0,0,1,.28-.45.38.38,0,0,1,.45.28q.33,1.44.72,2.85a.38.38,0,0,1-.26.47ZM147,275.52a.36.36,0,0,1-.36-.3c-.19-1-.35-2-.5-2.93a.37.37,0,1,1,.74-.11c.15,1,.31,1.94.49,2.9a.36.36,0,0,1-.3.43Zm-.88-5.84a.37.37,0,0,1-.37-.33c-.12-1-.21-2-.29-3a.36.36,0,0,1,.34-.4.37.37,0,0,1,.41.34c.08,1,.17,2,.28,2.93a.38.38,0,0,1-.33.42Zm-.47-5.89a.38.38,0,0,1-.38-.36q-.06-1.47-.09-3a.38.38,0,0,1,.75,0q0,1.49.09,2.94a.38.38,0,0,1-.35.4Zm-.09-5.92h0a.37.37,0,0,1-.37-.38c0-1,.05-2,.09-3a.38.38,0,1,1,.75,0c0,1-.08,2-.09,2.94A.38.38,0,0,1,145.57,257.87Zm.27-5.9h0a.38.38,0,0,1-.34-.4c.07-1,.15-2,.25-3a.39.39,0,0,1,.42-.34.39.39,0,0,1,.33.42c-.1,1-.18,2-.26,2.93A.37.37,0,0,1,145.84,252Zm.59-5.89h0a.37.37,0,0,1-.33-.42c.12-1,.26-1.95.41-2.93a.37.37,0,1,1,.74.11c-.15,1-.28,1.95-.41,2.92A.36.36,0,0,1,146.43,246.08Zm.89-5.84h-.07a.37.37,0,0,1-.3-.43c.17-1,.35-1.94.55-2.91a.37.37,0,0,1,.44-.3.37.37,0,0,1,.29.44c-.19,1-.37,1.94-.54,2.9A.38.38,0,0,1,147.32,240.24Zm1.16-5.8h-.08a.38.38,0,0,1-.29-.44c.22-1,.44-1.93.68-2.89a.39.39,0,0,1,.45-.28.38.38,0,0,1,.28.46c-.24,1-.46,1.91-.67,2.87A.38.38,0,0,1,148.48,234.44Zm1.41-5.74h-.1a.37.37,0,0,1-.26-.46c.25-.95.52-1.9.79-2.86a.38.38,0,0,1,.47-.25.36.36,0,0,1,.25.46c-.27.95-.53,1.9-.79,2.84A.36.36,0,0,1,149.89,228.7Zm1.64-5.68a.23.23,0,0,1-.11,0,.38.38,0,0,1-.25-.47c.3-.93.6-1.87.91-2.82a.38.38,0,0,1,.47-.24.38.38,0,0,1,.24.48c-.31.94-.61,1.87-.9,2.81A.38.38,0,0,1,151.53,223Zm1.86-5.61-.12,0a.38.38,0,0,1-.23-.48c.32-.93.66-1.86,1-2.79a.38.38,0,0,1,.71.26c-.35.93-.68,1.85-1,2.78A.38.38,0,0,1,153.39,217.41Zm2.06-5.55a.32.32,0,0,1-.14,0,.38.38,0,0,1-.21-.49c.36-.91.72-1.83,1.1-2.75a.37.37,0,1,1,.69.29c-.37.91-.74,1.82-1.09,2.73A.38.38,0,0,1,155.45,211.86Zm2.24-5.47-.15,0a.37.37,0,0,1-.2-.49c.39-.9.79-1.81,1.19-2.71a.38.38,0,0,1,.5-.19.37.37,0,0,1,.19.49c-.4.91-.8,1.81-1.19,2.71A.37.37,0,0,1,157.69,206.39Z" style="fill:#6632C0"></path><path d="M160.12,201a.28.28,0,0,1-.15,0,.37.37,0,0,1-.18-.5l.64-1.36a.37.37,0,1,1,.67.33c-.21.45-.42.9-.64,1.35A.36.36,0,0,1,160.12,201Z" style="fill:#6632C0"></path><path d="M291,82a.41.41,0,0,1-.33-.18.39.39,0,0,1,.13-.52l1.29-.77a.38.38,0,0,1,.52.13.39.39,0,0,1-.14.52l-1.28.76A.35.35,0,0,1,291,82Z" style="fill:#6632C0"></path><path d="M357.11,259.67a.38.38,0,0,1-.27-.64c.71-.7,1.41-1.41,2.11-2.11a.37.37,0,1,1,.53.53l-2.11,2.11A.38.38,0,0,1,357.11,259.67Zm4.19-4.25a.38.38,0,0,1-.27-.64c.69-.71,1.38-1.43,2.06-2.15a.37.37,0,0,1,.53,0,.38.38,0,0,1,0,.53c-.69.73-1.37,1.45-2.07,2.17A.39.39,0,0,1,361.3,255.42Zm4.1-4.34a.39.39,0,0,1-.25-.1.38.38,0,0,1,0-.53l2-2.2a.37.37,0,0,1,.53,0,.39.39,0,0,1,0,.53l-2,2.21A.39.39,0,0,1,365.4,251.08Zm4-4.44a.38.38,0,0,1-.25-.09.37.37,0,0,1,0-.53l2-2.25a.38.38,0,0,1,.53,0,.37.37,0,0,1,0,.52c-.65.76-1.31,1.51-2,2.26A.38.38,0,0,1,369.41,246.64Zm3.9-4.52a.38.38,0,0,1-.24-.09.36.36,0,0,1,0-.52l1.91-2.29a.36.36,0,0,1,.52-.05.37.37,0,0,1,.06.52L373.6,242A.37.37,0,0,1,373.31,242.12Zm3.8-4.61a.34.34,0,0,1-.23-.08.38.38,0,0,1-.06-.53c.63-.77,1.25-1.55,1.86-2.33a.38.38,0,0,1,.53-.06.37.37,0,0,1,.06.52l-1.86,2.34A.37.37,0,0,1,377.11,237.51Zm3.7-4.69a.4.4,0,0,1-.23-.08.38.38,0,0,1-.07-.53q.92-1.19,1.8-2.37a.38.38,0,1,1,.6.45l-1.8,2.38A.38.38,0,0,1,380.81,232.82Zm3.58-4.78a.44.44,0,0,1-.22-.07.37.37,0,0,1-.08-.53c.58-.8,1.17-1.61,1.74-2.42a.38.38,0,0,1,.53-.09.39.39,0,0,1,.08.53c-.57.81-1.16,1.62-1.75,2.42A.38.38,0,0,1,384.39,228Zm3.47-4.87a.36.36,0,0,1-.22-.07.37.37,0,0,1-.09-.52q.85-1.23,1.68-2.46a.37.37,0,1,1,.62.42c-.55.82-1.12,1.65-1.69,2.47A.38.38,0,0,1,387.86,223.17Zm3.34-4.95a.42.42,0,0,1-.21-.06.37.37,0,0,1-.1-.52c.54-.83,1.09-1.67,1.62-2.5A.37.37,0,0,1,393,215a.38.38,0,0,1,.11.52c-.53.84-1.08,1.67-1.63,2.51A.37.37,0,0,1,391.2,218.22Zm3.22-5a.36.36,0,0,1-.2-.06.37.37,0,0,1-.12-.52c.52-.84,1-1.69,1.55-2.54a.38.38,0,0,1,.52-.13.39.39,0,0,1,.13.52c-.52.85-1,1.7-1.57,2.55A.38.38,0,0,1,394.42,213.19Zm3.08-5.12a.45.45,0,0,1-.19,0,.38.38,0,0,1-.13-.52c.5-.86,1-1.72,1.48-2.58a.38.38,0,0,1,.51-.14.37.37,0,0,1,.15.51c-.49.86-1,1.73-1.5,2.59A.37.37,0,0,1,397.5,208.07Zm2.94-5.2a.31.31,0,0,1-.18-.05.38.38,0,0,1-.15-.51c.48-.87,1-1.75,1.42-2.62a.39.39,0,0,1,.51-.16.38.38,0,0,1,.15.51c-.46.88-.94,1.76-1.42,2.64A.37.37,0,0,1,400.44,202.87Zm2.8-5.28a.33.33,0,0,1-.17,0,.37.37,0,0,1-.16-.51c.45-.88.89-1.77,1.33-2.66a.38.38,0,0,1,.68.33c-.44.89-.89,1.78-1.35,2.68A.35.35,0,0,1,403.24,197.59Zm2.64-5.36a.32.32,0,0,1-.16,0,.36.36,0,0,1-.18-.49c.43-.91.85-1.81,1.26-2.71a.36.36,0,0,1,.49-.18.37.37,0,0,1,.19.49c-.41.91-.83,1.81-1.26,2.72A.39.39,0,0,1,405.88,192.23Zm2.47-5.44a.4.4,0,0,1-.15,0,.37.37,0,0,1-.19-.49c.4-.92.79-1.83,1.17-2.74a.39.39,0,0,1,.49-.21.37.37,0,0,1,.2.49q-.57,1.38-1.17,2.76A.37.37,0,0,1,408.35,186.79Zm2.3-5.51-.14,0a.37.37,0,0,1-.21-.48c.37-.93.73-1.86,1.08-2.78a.37.37,0,0,1,.7.26q-.52,1.4-1.08,2.79A.38.38,0,0,1,410.65,181.28Zm2.11-5.59-.13,0a.38.38,0,0,1-.22-.48c.33-.94.66-1.88,1-2.82a.37.37,0,0,1,.47-.23.37.37,0,0,1,.24.47c-.32.94-.65,1.89-1,2.83A.37.37,0,0,1,412.76,175.69Zm1.91-5.66-.11,0a.38.38,0,0,1-.25-.47q.45-1.42.87-2.85a.38.38,0,0,1,.47-.25.37.37,0,0,1,.25.46c-.28,1-.57,1.91-.87,2.87A.38.38,0,0,1,414.67,170Zm1.69-5.73h-.1a.38.38,0,0,1-.26-.46c.26-1,.52-1.93.76-2.89a.37.37,0,1,1,.72.19c-.24,1-.49,1.93-.76,2.89A.36.36,0,0,1,416.36,164.3Zm1.46-5.79h-.08a.38.38,0,0,1-.29-.45c.23-1,.44-2,.64-2.91a.36.36,0,0,1,.44-.29.38.38,0,0,1,.29.44c-.2,1-.41,2-.64,2.93A.36.36,0,0,1,417.82,158.51Zm1.2-5.85H419a.37.37,0,0,1-.3-.44c.17-1,.34-2,.5-2.93a.36.36,0,0,1,.42-.31.38.38,0,0,1,.32.43c-.16,1-.33,2-.51,2.95A.38.38,0,0,1,419,152.66Zm.93-5.9h-.05a.37.37,0,0,1-.32-.42c.13-1,.25-2,.36-3a.36.36,0,0,1,.41-.34.38.38,0,0,1,.33.42c-.1,1-.22,2-.35,3A.39.39,0,0,1,420,146.76Zm.63-5.94h0a.38.38,0,0,1-.34-.41c.08-1,.14-2,.19-3a.38.38,0,0,1,.75,0c0,1-.11,2-.19,3A.38.38,0,0,1,420.58,140.82Zm.31-6h0a.37.37,0,0,1-.37-.38c0-.71,0-1.42,0-2.12v-.86a.38.38,0,0,1,.37-.37.35.35,0,0,1,.38.37v.86q0,1.07,0,2.13A.37.37,0,0,1,420.89,134.85Zm-.06-6a.37.37,0,0,1-.37-.36c0-1-.1-2-.17-3a.36.36,0,0,1,.34-.4.39.39,0,0,1,.41.34c.07,1,.13,2,.17,3a.37.37,0,0,1-.36.39Zm-.44-6a.39.39,0,0,1-.38-.33c-.1-1-.23-2-.37-3a.37.37,0,1,1,.74-.11c.14,1,.27,2,.38,3a.38.38,0,0,1-.33.41Zm-.87-5.91a.37.37,0,0,1-.37-.3q-.27-1.47-.6-2.91a.37.37,0,0,1,.73-.17c.22,1,.43,2,.61,2.94a.38.38,0,0,1-.3.44Zm-1.33-5.82a.38.38,0,0,1-.36-.28q-.39-1.44-.84-2.85a.38.38,0,0,1,.25-.47.38.38,0,0,1,.47.25c.3,1,.58,1.91.85,2.88a.38.38,0,0,1-.27.46Zm-1.8-5.69a.38.38,0,0,1-.36-.24c-.34-.94-.71-1.87-1.08-2.77a.37.37,0,1,1,.69-.29c.38.91.75,1.85,1.1,2.8a.38.38,0,0,1-.22.48Zm-2.32-5.5a.39.39,0,0,1-.34-.21c-.43-.9-.88-1.79-1.34-2.65a.38.38,0,1,1,.66-.36c.47.87.93,1.77,1.36,2.68a.37.37,0,0,1-.18.5A.32.32,0,0,1,414.07,100Zm-2.83-5.26a.36.36,0,0,1-.32-.18c-.51-.84-1.05-1.68-1.6-2.5a.37.37,0,0,1,.1-.52.38.38,0,0,1,.52.1c.56.83,1.1,1.68,1.62,2.53a.38.38,0,0,1-.13.52A.34.34,0,0,1,411.24,94.74ZM407.9,89.8a.38.38,0,0,1-.3-.15c-.61-.8-1.23-1.58-1.85-2.33a.38.38,0,1,1,.58-.48c.63.75,1.26,1.55,1.87,2.35a.38.38,0,0,1-.08.53A.4.4,0,0,1,407.9,89.8Zm-3.83-4.59a.38.38,0,0,1-.28-.12c-.67-.71-1.37-1.41-2.09-2.09a.38.38,0,0,1,.51-.55c.74.69,1.45,1.41,2.13,2.13a.38.38,0,0,1,0,.53A.35.35,0,0,1,404.07,85.21Zm-4.36-4.08a.33.33,0,0,1-.23-.09c-.75-.61-1.54-1.23-2.35-1.81a.39.39,0,0,1-.08-.53.38.38,0,0,1,.53-.08c.81.6,1.61,1.22,2.37,1.84A.38.38,0,0,1,400,81,.37.37,0,0,1,399.71,81.13ZM294.84,79.71a.38.38,0,0,1-.18-.71q1.32-.72,2.64-1.41a.38.38,0,1,1,.35.67c-.88.45-1.76.92-2.63,1.4A.41.41,0,0,1,294.84,79.71ZM394.89,77.6a.36.36,0,0,1-.2-.06c-.82-.53-1.67-1.05-2.53-1.55a.37.37,0,0,1-.14-.51.39.39,0,0,1,.52-.14c.86.51,1.72,1,2.56,1.58a.37.37,0,0,1-.21.68ZM300.15,77a.37.37,0,0,1-.34-.21.38.38,0,0,1,.18-.5c.9-.43,1.8-.86,2.71-1.27a.38.38,0,1,1,.31.69q-1.35.6-2.7,1.26A.45.45,0,0,1,300.15,77Zm89.58-2.35a.33.33,0,0,1-.17,0c-.87-.45-1.76-.88-2.67-1.3a.39.39,0,0,1-.19-.5.37.37,0,0,1,.5-.18c.92.42,1.83.86,2.7,1.31a.38.38,0,0,1,.16.51A.36.36,0,0,1,389.73,74.61Zm-84.13-.1a.38.38,0,0,1-.35-.23.37.37,0,0,1,.2-.49c.93-.39,1.85-.76,2.79-1.12a.38.38,0,0,1,.27.7c-.93.36-1.85.73-2.77,1.11A.32.32,0,0,1,305.6,74.51Zm5.57-2.16a.36.36,0,0,1-.35-.25.38.38,0,0,1,.23-.48c.94-.33,1.88-.66,2.83-1a.38.38,0,1,1,.24.72c-.95.3-1.88.63-2.82,1A.3.3,0,0,1,311.17,72.35Zm73.13-.24-.14,0c-.91-.37-1.83-.73-2.77-1.07a.37.37,0,0,1,.26-.7c.94.34,1.88.7,2.8,1.08a.37.37,0,0,1,.2.49A.38.38,0,0,1,384.3,72.11Zm-67.45-1.62a.37.37,0,0,1-.36-.27.38.38,0,0,1,.25-.46c1-.29,1.93-.56,2.89-.82a.37.37,0,0,1,.46.26.38.38,0,0,1-.27.46c-.95.26-1.91.53-2.86.82Zm61.84-.42-.11,0c-.94-.3-1.89-.59-2.85-.86a.37.37,0,0,1,.2-.72q1.45.41,2.88.87a.37.37,0,0,1-.12.73Zm-56.07-1.14a.38.38,0,0,1-.09-.74c1-.24,2-.46,2.92-.67a.37.37,0,1,1,.16.73c-1,.21-1.93.43-2.9.67Zm50.32-.48h-.09c-1-.24-1.92-.46-2.9-.66a.38.38,0,0,1,.16-.74c1,.21,2,.43,2.92.67a.38.38,0,0,1,.28.45A.38.38,0,0,1,372.94,68.45Zm-44.48-.78a.39.39,0,0,1-.37-.31.38.38,0,0,1,.3-.43c1-.19,2-.36,3-.52a.37.37,0,0,1,.43.31.38.38,0,0,1-.31.43q-1.47.24-2.94.51Zm38.64-.45H367c-1-.17-1.95-.32-2.94-.47a.37.37,0,0,1,.11-.74c1,.15,2,.3,3,.48a.37.37,0,0,1,.31.43A.38.38,0,0,1,367.1,67.22Zm-32.74-.5a.38.38,0,0,1-.37-.33.38.38,0,0,1,.32-.42l3-.36a.37.37,0,0,1,.41.33.38.38,0,0,1-.33.42c-1,.1-2,.22-3,.35Zm26.82-.35h0c-1-.11-2-.21-3-.29a.37.37,0,0,1-.34-.4.36.36,0,0,1,.4-.35c1,.09,2,.19,3,.3a.38.38,0,0,1,.33.41A.39.39,0,0,1,361.18,66.37Zm-20.88-.3a.37.37,0,0,1-.37-.34.36.36,0,0,1,.34-.4c1-.09,2-.15,3-.21a.38.38,0,0,1,0,.75c-1,0-2,.12-3,.2Zm14.93-.2h0c-1-.06-2-.1-3-.13a.37.37,0,0,1-.37-.38.36.36,0,0,1,.39-.37c1,0,2,.07,3,.13a.36.36,0,0,1,.35.39A.37.37,0,0,1,355.23,65.87Zm-9-.12a.37.37,0,0,1-.37-.37.36.36,0,0,1,.36-.38c1,0,2,0,3,0h0a.37.37,0,0,1,.37.38.36.36,0,0,1-.37.37c-1,0-2,0-3,0Z" style="fill:#6632C0"></path><path d="M353.88,262.83a.36.36,0,0,1-.27-.12.37.37,0,0,1,0-.53l1.07-1a.38.38,0,0,1,.53,0,.37.37,0,0,1,0,.53l-1.08,1A.4.4,0,0,1,353.88,262.83Z" style="fill:#6632C0"></path><g style="opacity:0.3"><path d="M233,285.84h-.08l-1.47-.31a.38.38,0,0,1-.29-.44.38.38,0,0,1,.45-.29l1.46.31a.37.37,0,0,1-.07.74Z"></path><path d="M228.52,284.87h-.09l-3-.69a.39.39,0,0,1-.28-.46.36.36,0,0,1,.45-.27l2.95.69a.37.37,0,0,1-.08.74Zm-5.89-1.43h-.1l-2.93-.77a.38.38,0,0,1-.27-.46.37.37,0,0,1,.46-.26l2.93.77a.37.37,0,0,1,.27.45A.38.38,0,0,1,222.63,283.44Zm-5.86-1.58h-.1l-2.92-.85a.38.38,0,0,1-.25-.47.38.38,0,0,1,.47-.25l2.9.85a.37.37,0,0,1,.26.46A.36.36,0,0,1,216.77,281.86ZM211,280.13l-.11,0c-1-.3-1.93-.61-2.89-.93a.36.36,0,0,1-.24-.47.37.37,0,0,1,.47-.24l2.88.93a.37.37,0,0,1-.11.73Zm-5.76-1.9a.25.25,0,0,1-.12,0c-1-.33-1.91-.66-2.86-1a.37.37,0,0,1-.23-.48.38.38,0,0,1,.48-.22l2.86,1a.39.39,0,0,1,.23.48A.38.38,0,0,1,205.2,278.23Zm-5.7-2.06a.3.3,0,0,1-.13,0l-2.84-1.09a.39.39,0,0,1-.21-.49.38.38,0,0,1,.49-.21c.93.37,1.87.73,2.82,1.09a.37.37,0,0,1,.22.48A.38.38,0,0,1,199.5,276.17ZM193.86,274a.35.35,0,0,1-.14,0l-2.8-1.18a.39.39,0,0,1-.2-.5.39.39,0,0,1,.5-.19c.92.4,1.85.79,2.78,1.17a.37.37,0,0,1,.21.49A.38.38,0,0,1,193.86,274Zm-5.56-2.41a.41.41,0,0,1-.16,0c-.93-.42-1.85-.84-2.76-1.27a.38.38,0,0,1-.18-.5.37.37,0,0,1,.5-.18c.91.43,1.83.85,2.75,1.26a.39.39,0,0,1,.19.5A.38.38,0,0,1,188.3,271.54ZM182.81,269a.47.47,0,0,1-.16,0c-.92-.45-1.82-.91-2.72-1.37a.38.38,0,0,1,.35-.67c.89.46,1.79.92,2.7,1.36a.38.38,0,0,1-.17.72Zm-5.39-2.78a.39.39,0,0,1-.18,0c-.89-.48-1.78-1-2.66-1.47a.37.37,0,0,1-.14-.51A.37.37,0,0,1,175,264c.87.49,1.76,1,2.65,1.46a.36.36,0,0,1,.15.5A.38.38,0,0,1,177.42,266.18Zm-5.29-3a.29.29,0,0,1-.18,0l-2.61-1.56a.37.37,0,0,1-.12-.52.36.36,0,0,1,.51-.12c.86.52,1.72,1,2.6,1.55a.4.4,0,0,1,.13.52A.38.38,0,0,1,172.13,263.21ZM167,260a.36.36,0,0,1-.2-.06c-.86-.55-1.71-1.11-2.54-1.67a.37.37,0,0,1,.42-.62c.83.56,1.67,1.11,2.52,1.66a.37.37,0,0,1,.12.52A.4.4,0,0,1,167,260Zm-5-3.39a.38.38,0,0,1-.22-.07c-.83-.58-1.65-1.18-2.46-1.78a.37.37,0,0,1-.08-.52.38.38,0,0,1,.53-.08c.8.6,1.62,1.19,2.45,1.77a.37.37,0,0,1-.22.68Zm-4.87-3.6a.4.4,0,0,1-.23-.08c-.81-.63-1.6-1.26-2.38-1.9a.38.38,0,1,1,.48-.58c.77.63,1.56,1.26,2.36,1.89a.38.38,0,0,1,.07.52A.38.38,0,0,1,157.07,253.05Zm-4.69-3.84a.38.38,0,0,1-.25-.09c-.77-.67-1.53-1.34-2.27-2a.37.37,0,0,1,0-.53.39.39,0,0,1,.53,0c.74.68,1.49,1.35,2.26,2a.37.37,0,0,1,0,.53A.39.39,0,0,1,152.38,249.21Zm-4.49-4.08a.4.4,0,0,1-.26-.11c-.73-.7-1.45-1.42-2.16-2.14a.37.37,0,1,1,.54-.52c.7.71,1.41,1.42,2.14,2.12a.37.37,0,0,1,0,.53A.36.36,0,0,1,147.89,245.13Zm-4.24-4.33a.39.39,0,0,1-.28-.12c-.69-.75-1.37-1.51-2-2.27a.37.37,0,1,1,.56-.49q1,1.14,2,2.25a.36.36,0,0,1,0,.53A.35.35,0,0,1,143.65,240.8Zm-4-4.58a.38.38,0,0,1-.29-.14c-.64-.79-1.27-1.59-1.87-2.4a.37.37,0,0,1,.07-.52.38.38,0,0,1,.53.07c.6.8,1.22,1.59,1.85,2.38a.38.38,0,0,1-.05.53A.41.41,0,0,1,139.68,236.22ZM136,231.38a.38.38,0,0,1-.31-.16c-.58-.84-1.15-1.68-1.7-2.53a.38.38,0,0,1,.12-.52.37.37,0,0,1,.51.11c.55.85,1.11,1.68,1.68,2.51a.37.37,0,0,1-.09.52A.33.33,0,0,1,136,231.38Zm-3.28-5.1a.36.36,0,0,1-.32-.18c-.52-.88-1-1.78-1.49-2.66a.36.36,0,0,1,.15-.5.38.38,0,0,1,.51.15c.46.87,1,1.76,1.47,2.63a.36.36,0,0,1-.13.51A.32.32,0,0,1,132.76,226.28Zm-2.85-5.34a.38.38,0,0,1-.34-.21c-.44-.92-.86-1.85-1.26-2.78a.37.37,0,0,1,.69-.29c.39.91.81,1.84,1.24,2.74a.37.37,0,0,1-.17.5A.32.32,0,0,1,129.91,220.94Zm-2.38-5.57a.39.39,0,0,1-.35-.25c-.36-1-.69-1.92-1-2.87a.39.39,0,0,1,.25-.48.38.38,0,0,1,.47.25c.3.94.63,1.9,1,2.84a.36.36,0,0,1-.22.48A.28.28,0,0,1,127.53,215.37Zm-1.84-5.78a.36.36,0,0,1-.36-.28c-.27-1-.51-2-.72-3a.39.39,0,0,1,.29-.45.39.39,0,0,1,.45.29c.21,1,.44,2,.7,2.93a.38.38,0,0,1-.27.46Zm-1.27-5.92a.38.38,0,0,1-.37-.31c-.16-1-.29-2-.4-3a.38.38,0,0,1,.33-.41.39.39,0,0,1,.42.33c.1,1,.24,2,.39,3a.37.37,0,0,1-.31.43Zm-.65-6a.37.37,0,0,1-.37-.35c-.06-1-.09-2-.09-3.05a.38.38,0,0,1,.75,0c0,1,0,2,.09,3a.38.38,0,0,1-.36.4Zm0-6.06h0a.37.37,0,0,1-.36-.39c0-1,.13-2,.23-3a.37.37,0,0,1,.41-.34.38.38,0,0,1,.33.41c-.1,1-.17,2-.22,3A.37.37,0,0,1,123.75,191.6Zm.6-6h-.06a.38.38,0,0,1-.31-.43c.15-1,.33-2,.53-3a.38.38,0,0,1,.45-.29.38.38,0,0,1,.29.44c-.2,1-.38,2-.53,3A.38.38,0,0,1,124.35,185.56Zm1.21-5.92-.09,0a.37.37,0,0,1-.27-.45c.25-1,.53-2,.83-2.93a.36.36,0,0,1,.47-.24.37.37,0,0,1,.25.46c-.3,1-.58,1.93-.82,2.89A.39.39,0,0,1,125.56,179.64Zm1.8-5.78-.13,0a.39.39,0,0,1-.23-.49c.35-.94.72-1.9,1.11-2.83a.38.38,0,0,1,.49-.21.4.4,0,0,1,.21.5c-.39.92-.76,1.87-1.1,2.8A.39.39,0,0,1,127.36,173.86Zm2.33-5.59a.32.32,0,0,1-.16,0,.37.37,0,0,1-.18-.5c.43-.9.88-1.82,1.36-2.72a.37.37,0,1,1,.66.34c-.47.9-.92,1.81-1.34,2.7A.38.38,0,0,1,129.69,168.27Zm2.82-5.37a.32.32,0,0,1-.19-.05.37.37,0,0,1-.14-.51c.51-.87,1-1.74,1.58-2.6a.37.37,0,1,1,.63.4q-.81,1.28-1.56,2.58A.37.37,0,0,1,132.51,162.9Zm3.24-5.12a.39.39,0,0,1-.21-.06.37.37,0,0,1-.1-.52c.57-.83,1.16-1.66,1.77-2.48a.38.38,0,0,1,.61.45c-.61.81-1.19,1.63-1.76,2.45A.36.36,0,0,1,135.75,157.78Zm3.62-4.86a.35.35,0,0,1-.24-.08.38.38,0,0,1-.06-.53q.94-1.17,2-2.34a.36.36,0,0,1,.52,0,.38.38,0,0,1,.05.53c-.66.77-1.31,1.54-1.93,2.32A.37.37,0,0,1,139.37,152.92Zm3.94-4.6a.35.35,0,0,1-.25-.1.37.37,0,0,1,0-.53c.68-.74,1.38-1.48,2.09-2.21a.37.37,0,0,1,.54.52c-.71.73-1.4,1.46-2.07,2.2A.39.39,0,0,1,143.31,148.32Zm4.22-4.35a.4.4,0,0,1-.27-.11.38.38,0,0,1,0-.53c.72-.7,1.46-1.4,2.21-2.09a.38.38,0,1,1,.51.55c-.75.69-1.48,1.38-2.2,2.08A.35.35,0,0,1,147.53,144Zm4.47-4.1a.37.37,0,0,1-.29-.13.39.39,0,0,1,0-.53c.76-.66,1.54-1.31,2.32-2a.38.38,0,1,1,.48.58q-1.17,1-2.31,1.95A.36.36,0,0,1,152,139.87Zm4.67-3.86a.37.37,0,0,1-.29-.14.38.38,0,0,1,.06-.53c.8-.62,1.6-1.23,2.42-1.84a.37.37,0,0,1,.52.07.38.38,0,0,1-.07.53c-.82.6-1.62,1.22-2.4,1.83A.37.37,0,0,1,156.67,136Zm4.86-3.62a.37.37,0,0,1-.3-.16.38.38,0,0,1,.08-.52c.83-.59,1.66-1.17,2.5-1.74a.38.38,0,0,1,.52.1.37.37,0,0,1-.1.52c-.84.57-1.66,1.15-2.48,1.73A.44.44,0,0,1,161.53,132.39Zm5-3.41a.38.38,0,0,1-.21-.69c.85-.54,1.71-1.09,2.57-1.62a.37.37,0,0,1,.52.12.38.38,0,0,1-.12.52c-.87.53-1.72,1.07-2.56,1.61A.36.36,0,0,1,166.55,129Zm5.15-3.19a.37.37,0,0,1-.32-.18.38.38,0,0,1,.13-.52l2.63-1.52a.38.38,0,0,1,.37.66l-2.62,1.51A.32.32,0,0,1,171.7,125.79Zm5.28-3a.4.4,0,0,1-.33-.2.38.38,0,0,1,.15-.51c.89-.48,1.78-.95,2.69-1.42a.37.37,0,0,1,.5.16.37.37,0,0,1-.16.51q-1.35.69-2.67,1.41A.41.41,0,0,1,177,122.81Zm5.38-2.79a.37.37,0,0,1-.16-.71c.9-.45,1.81-.89,2.73-1.33a.38.38,0,0,1,.32.68c-.92.43-1.82.87-2.72,1.32A.47.47,0,0,1,182.36,120Zm5.48-2.6a.39.39,0,0,1-.34-.22.37.37,0,0,1,.18-.5c.92-.42,1.85-.83,2.78-1.23a.36.36,0,0,1,.49.19.37.37,0,0,1-.19.49L188,117.38A.28.28,0,0,1,187.84,117.42Z"></path><path d="M193.48,115a.38.38,0,0,1-.34-.23.37.37,0,0,1,.2-.49l1.39-.57a.37.37,0,0,1,.49.21.37.37,0,0,1-.21.48l-1.38.57A.4.4,0,0,1,193.48,115Z"></path><path d="M371.71,111.06l-.13,0-1.41-.5a.38.38,0,0,1-.23-.48.39.39,0,0,1,.48-.23l1.41.5a.37.37,0,0,1,.23.48A.38.38,0,0,1,371.71,111.06Z"></path><path d="M342.38,285.85a.38.38,0,0,1-.37-.3.38.38,0,0,1,.29-.44l2.93-.63a.37.37,0,0,1,.45.28.39.39,0,0,1-.29.45c-1,.21-1.95.43-2.93.63Zm5.86-1.3a.38.38,0,0,1-.37-.29.38.38,0,0,1,.28-.45l2.92-.71a.38.38,0,0,1,.45.28.37.37,0,0,1-.27.45l-2.93.71Zm5.83-1.45a.38.38,0,0,1-.1-.74c1-.25,1.94-.51,2.9-.78a.37.37,0,1,1,.2.72l-2.91.79Zm5.79-1.6a.37.37,0,0,1-.36-.27.36.36,0,0,1,.25-.46l2.87-.86a.38.38,0,0,1,.22.72l-2.88.86Zm5.74-1.75a.37.37,0,0,1-.11-.73l2.85-.94a.37.37,0,0,1,.47.24.36.36,0,0,1-.24.47c-.94.32-1.9.63-2.86.94Zm5.69-1.91a.39.39,0,0,1-.35-.25.38.38,0,0,1,.23-.48c.95-.33,1.89-.67,2.82-1a.37.37,0,0,1,.48.22.38.38,0,0,1-.22.48l-2.83,1Zm5.64-2.07a.39.39,0,0,1-.35-.24.38.38,0,0,1,.22-.49l2.79-1.09a.36.36,0,0,1,.48.2.37.37,0,0,1-.2.49l-2.8,1.1A.35.35,0,0,1,376.93,275.77Zm5.58-2.24a.38.38,0,0,1-.35-.23.37.37,0,0,1,.2-.49c.93-.39,1.84-.79,2.76-1.19a.38.38,0,0,1,.49.2.37.37,0,0,1-.19.49l-2.77,1.19Zm5.5-2.42a.37.37,0,0,1-.16-.71c.91-.42,1.82-.84,2.71-1.27a.37.37,0,0,1,.33.67c-.9.43-1.81.86-2.73,1.28A.4.4,0,0,1,388,271.11Zm5.41-2.59a.36.36,0,0,1-.33-.21.37.37,0,0,1,.17-.5c.89-.45,1.78-.9,2.66-1.36a.37.37,0,0,1,.51.16.36.36,0,0,1-.16.5c-.88.47-1.78.92-2.68,1.37A.33.33,0,0,1,393.42,268.52Zm5.33-2.77a.4.4,0,0,1-.33-.2.38.38,0,0,1,.15-.51c.88-.48,1.75-1,2.62-1.46a.38.38,0,0,1,.51.14.39.39,0,0,1-.14.52l-2.63,1.46A.41.41,0,0,1,398.75,265.75Zm5.22-3a.37.37,0,0,1-.19-.69l2.56-1.56a.36.36,0,0,1,.51.12.37.37,0,0,1-.12.52c-.85.52-1.7,1-2.57,1.56A.34.34,0,0,1,404,262.77Zm5.1-3.17a.4.4,0,0,1-.32-.17.38.38,0,0,1,.11-.52c.85-.54,1.68-1.1,2.5-1.66a.37.37,0,1,1,.42.62c-.83.56-1.66,1.12-2.51,1.67A.36.36,0,0,1,409.07,259.6Zm5-3.38a.37.37,0,0,1-.22-.68c.82-.58,1.62-1.17,2.42-1.77a.38.38,0,0,1,.45.6c-.8.6-1.61,1.19-2.43,1.78A.38.38,0,0,1,414,256.22Zm4.81-3.6a.41.41,0,0,1-.3-.14.38.38,0,0,1,.06-.53c.79-.62,1.57-1.25,2.33-1.88a.38.38,0,1,1,.48.58q-1.16,1-2.34,1.89A.4.4,0,0,1,418.84,252.62Zm4.62-3.83a.35.35,0,0,1-.28-.13.37.37,0,0,1,0-.53c.75-.65,1.5-1.32,2.23-2a.38.38,0,0,1,.53,0,.37.37,0,0,1,0,.53c-.73.68-1.48,1.35-2.24,2A.38.38,0,0,1,423.46,248.79Zm4.42-4.06a.37.37,0,0,1-.27-.12.38.38,0,0,1,0-.53c.72-.7,1.43-1.4,2.12-2.11a.38.38,0,0,1,.53,0,.37.37,0,0,1,0,.53q-1,1.08-2.13,2.13A.36.36,0,0,1,427.88,244.73Zm4.18-4.31a.35.35,0,0,1-.25-.1.38.38,0,0,1,0-.53c.67-.74,1.33-1.49,2-2.24a.38.38,0,1,1,.57.49c-.65.76-1.32,1.51-2,2.26A.36.36,0,0,1,432.06,240.42Zm3.91-4.56a.43.43,0,0,1-.24-.08.38.38,0,0,1-.05-.53c.62-.78,1.23-1.57,1.82-2.37a.38.38,0,0,1,.53-.07.37.37,0,0,1,.08.52c-.6.8-1.22,1.6-1.85,2.39A.37.37,0,0,1,436,235.86Zm3.59-4.81a.44.44,0,0,1-.22-.07.37.37,0,0,1-.09-.52q.86-1.25,1.65-2.49a.37.37,0,0,1,.52-.12.38.38,0,0,1,.11.52c-.53.84-1.09,1.68-1.67,2.51A.36.36,0,0,1,439.56,231.05Zm3.22-5.07a.32.32,0,0,1-.19,0,.37.37,0,0,1-.14-.51c.51-.87,1-1.74,1.45-2.61a.37.37,0,0,1,.51-.16.39.39,0,0,1,.16.51q-.7,1.32-1.47,2.64A.36.36,0,0,1,442.78,226Zm2.8-5.3a.47.47,0,0,1-.16,0,.37.37,0,0,1-.18-.5c.43-.89.84-1.81,1.22-2.72a.38.38,0,0,1,.49-.2.37.37,0,0,1,.2.49c-.39.92-.8,1.85-1.23,2.75A.38.38,0,0,1,445.58,220.68Zm2.33-5.53-.13,0a.37.37,0,0,1-.22-.48c.35-.94.67-1.89,1-2.82a.36.36,0,0,1,.47-.24.38.38,0,0,1,.24.47c-.3.94-.63,1.9-1,2.85A.38.38,0,0,1,447.91,215.15Zm1.81-5.72-.1,0a.36.36,0,0,1-.26-.45c.25-1,.48-1.94.68-2.9a.39.39,0,0,1,.45-.29.39.39,0,0,1,.29.45c-.21,1-.44,1.95-.7,2.93A.38.38,0,0,1,449.72,209.43Zm1.23-5.86h-.06a.39.39,0,0,1-.31-.43c.16-1,.29-2,.4-3a.36.36,0,0,1,.41-.33.38.38,0,0,1,.33.41c-.1,1-.24,2-.4,3A.38.38,0,0,1,451,203.57Zm.64-6h0a.37.37,0,0,1-.35-.39c0-1,.08-2,.09-3a.37.37,0,0,1,.37-.38h0a.38.38,0,0,1,.38.38c0,1,0,2-.09,3A.37.37,0,0,1,451.59,197.6Zm0-6a.37.37,0,0,1-.38-.35c-.05-1-.12-2-.22-3a.37.37,0,0,1,.34-.41.36.36,0,0,1,.41.34c.1,1,.17,2,.22,3a.37.37,0,0,1-.36.39Zm-.59-5.95a.37.37,0,0,1-.37-.32c-.15-1-.33-2-.52-2.94a.37.37,0,0,1,.29-.44.38.38,0,0,1,.44.29c.2,1,.38,2,.53,3a.38.38,0,0,1-.32.43Zm-1.2-5.88a.38.38,0,0,1-.36-.29c-.25-1-.52-1.93-.81-2.87a.38.38,0,0,1,.25-.47.38.38,0,0,1,.47.25c.29,1,.57,1.93.82,2.91a.37.37,0,0,1-.27.45ZM448.06,174a.37.37,0,0,1-.35-.25c-.34-.93-.7-1.87-1.08-2.78a.38.38,0,0,1,.7-.29c.38.93.75,1.87,1.09,2.82a.38.38,0,0,1-.23.48Zm-2.29-5.54a.37.37,0,0,1-.34-.22c-.41-.89-.86-1.79-1.32-2.68a.37.37,0,0,1,.66-.34c.47.9.92,1.81,1.34,2.7a.37.37,0,0,1-.18.5A.32.32,0,0,1,445.77,168.48ZM443,163.15a.39.39,0,0,1-.33-.19c-.49-.85-1-1.71-1.54-2.56a.37.37,0,0,1,.64-.39q.81,1.28,1.56,2.58a.37.37,0,0,1-.14.51A.34.34,0,0,1,443,163.15Zm-3.19-5.08a.38.38,0,0,1-.31-.16c-.56-.82-1.14-1.63-1.73-2.44a.37.37,0,0,1,.08-.53.38.38,0,0,1,.52.08c.6.82,1.18,1.64,1.75,2.46a.38.38,0,0,1-.1.52A.35.35,0,0,1,439.81,158.07Zm-3.56-4.83a.39.39,0,0,1-.3-.14c-.62-.78-1.25-1.55-1.9-2.32a.38.38,0,0,1,.58-.48c.65.77,1.29,1.55,1.91,2.33a.38.38,0,0,1-.06.53A.4.4,0,0,1,436.25,153.24Zm-3.89-4.58a.39.39,0,0,1-.28-.12q-1-1.11-2-2.19a.37.37,0,0,1,.54-.52c.7.73,1.39,1.46,2.06,2.2a.37.37,0,0,1,0,.53A.35.35,0,0,1,432.36,148.66Zm-4.16-4.33a.33.33,0,0,1-.26-.11c-.71-.69-1.43-1.38-2.17-2.06a.38.38,0,0,1,.51-.55c.74.69,1.47,1.38,2.18,2.08a.38.38,0,0,1,0,.53A.4.4,0,0,1,428.2,144.33Zm-4.4-4.08a.38.38,0,0,1-.25-.09c-.75-.66-1.5-1.31-2.28-1.95a.38.38,0,0,1,0-.53.37.37,0,0,1,.52-.05c.78.65,1.54,1.3,2.29,2a.38.38,0,0,1,0,.53A.37.37,0,0,1,423.8,140.25Zm-4.62-3.85a.34.34,0,0,1-.23-.08l-2.37-1.83a.38.38,0,0,1,.45-.6c.81.61,1.6,1.23,2.39,1.85a.37.37,0,0,1,.06.52A.37.37,0,0,1,419.18,136.4Zm-4.79-3.61a.44.44,0,0,1-.22-.07c-.8-.58-1.62-1.16-2.45-1.72a.39.39,0,0,1-.1-.53.37.37,0,0,1,.52-.09c.84.57,1.66,1.14,2.47,1.73a.36.36,0,0,1,.08.52A.37.37,0,0,1,414.39,132.79Zm-4.95-3.4a.42.42,0,0,1-.21-.06l-2.52-1.62a.36.36,0,0,1-.12-.51.37.37,0,0,1,.52-.12c.85.53,1.7,1.07,2.53,1.62a.37.37,0,0,1,.11.52A.37.37,0,0,1,409.44,129.39Zm-5.09-3.19a.3.3,0,0,1-.19,0c-.86-.51-1.72-1-2.59-1.51a.39.39,0,0,1-.14-.52.36.36,0,0,1,.51-.13c.88.5,1.74,1,2.6,1.52a.36.36,0,0,1,.13.51A.37.37,0,0,1,404.35,126.2Zm-5.21-3a.37.37,0,0,1-.18,0l-2.64-1.42a.36.36,0,0,1-.16-.5.38.38,0,0,1,.51-.16l2.65,1.42a.38.38,0,0,1-.18.71Zm-5.32-2.79a.53.53,0,0,1-.17,0L391,119.06a.37.37,0,1,1,.33-.67c.91.43,1.81.88,2.7,1.33a.38.38,0,0,1-.17.71Zm-5.41-2.61a.41.41,0,0,1-.16,0c-.9-.42-1.81-.83-2.73-1.24a.36.36,0,0,1-.19-.49.37.37,0,0,1,.49-.19c.92.41,1.84.82,2.74,1.24a.37.37,0,0,1,.19.49A.38.38,0,0,1,388.41,117.82Zm-5.5-2.42a.32.32,0,0,1-.14,0L380,114.22a.37.37,0,1,1,.28-.69c.93.37,1.86.76,2.78,1.15a.37.37,0,0,1,.2.49A.38.38,0,0,1,382.91,115.4Zm-5.56-2.26a.32.32,0,0,1-.14,0c-.93-.36-1.86-.72-2.8-1.06a.37.37,0,0,1-.22-.48.37.37,0,0,1,.48-.23l2.81,1.07a.37.37,0,0,1-.13.72Z"></path><path d="M337.86,286.75a.37.37,0,0,1-.07-.74l1.47-.29a.38.38,0,0,1,.44.3.37.37,0,0,1-.3.44l-1.47.28Z"></path><path d="M213.63,263.66a.36.36,0,0,1-.27-.12l-1-1.08a.37.37,0,0,1,0-.53.38.38,0,0,1,.53,0l1,1.08a.38.38,0,0,1-.27.64Z"></path><path d="M210.52,260.4a.39.39,0,0,1-.27-.11l-2.05-2.2a.37.37,0,0,1,0-.53.38.38,0,0,1,.53,0l2,2.19a.37.37,0,0,1-.27.63ZM206.46,256a.39.39,0,0,1-.28-.12l-2-2.24a.37.37,0,0,1,0-.53.38.38,0,0,1,.53,0l2,2.24a.37.37,0,0,1,0,.53A.38.38,0,0,1,206.46,256Zm-4-4.49a.41.41,0,0,1-.29-.13l-1.94-2.29a.37.37,0,0,1,0-.53.38.38,0,0,1,.53,0l1.94,2.28a.36.36,0,0,1,0,.52A.37.37,0,0,1,202.5,251.5Zm-3.87-4.59a.39.39,0,0,1-.29-.13c-.63-.78-1.27-1.55-1.89-2.33A.37.37,0,1,1,197,244l1.89,2.32a.38.38,0,0,1,0,.53A.41.41,0,0,1,198.63,246.91Zm-3.76-4.66a.35.35,0,0,1-.29-.15c-.62-.79-1.24-1.57-1.85-2.37a.38.38,0,0,1,.07-.52.37.37,0,0,1,.53.07c.6.79,1.22,1.57,1.84,2.36a.37.37,0,0,1-.07.52A.35.35,0,0,1,194.87,242.25Zm-3.66-4.75a.42.42,0,0,1-.3-.15l-1.79-2.41a.38.38,0,1,1,.61-.45c.59.8,1.18,1.61,1.78,2.41a.37.37,0,0,1-.07.52A.4.4,0,0,1,191.21,237.5Zm-3.54-4.84a.37.37,0,0,1-.31-.15c-.59-.82-1.16-1.63-1.74-2.45a.38.38,0,0,1,.1-.52.37.37,0,0,1,.52.09l1.73,2.44a.37.37,0,0,1-.09.52A.33.33,0,0,1,187.67,232.66Zm-3.44-4.91a.38.38,0,0,1-.31-.16q-.85-1.25-1.68-2.49a.38.38,0,0,1,.63-.42c.55.83,1.1,1.66,1.67,2.49a.38.38,0,0,1-.1.52A.39.39,0,0,1,184.23,227.75Zm-3.32-5a.4.4,0,0,1-.32-.17L179,220.06a.38.38,0,0,1,.11-.52.37.37,0,0,1,.52.12c.53.84,1.07,1.68,1.61,2.52a.37.37,0,0,1-.11.52A.36.36,0,0,1,180.91,222.76Zm-3.2-5.07a.4.4,0,0,1-.32-.18c-.52-.86-1-1.71-1.55-2.57a.37.37,0,1,1,.64-.38l1.55,2.56a.37.37,0,0,1-.12.51A.36.36,0,0,1,177.71,217.69Zm-3.07-5.15a.36.36,0,0,1-.32-.19c-.51-.87-1-1.73-1.49-2.6a.37.37,0,1,1,.65-.37L175,212a.36.36,0,0,1-.13.51A.45.45,0,0,1,174.64,212.54Zm-2.94-5.22a.4.4,0,0,1-.33-.2c-.48-.88-1-1.76-1.42-2.64a.37.37,0,0,1,.16-.51.36.36,0,0,1,.5.15c.47.88.94,1.76,1.42,2.64a.38.38,0,0,1-.15.51A.41.41,0,0,1,171.7,207.32Zm-2.8-5.3a.39.39,0,0,1-.34-.21l-1.35-2.68a.38.38,0,0,1,.68-.33c.44.89.89,1.78,1.34,2.67a.39.39,0,0,1-.33.55Zm-2.66-5.38a.39.39,0,0,1-.34-.21c-.43-.91-.85-1.81-1.27-2.72a.37.37,0,0,1,.18-.5.38.38,0,0,1,.5.19l1.27,2.71a.38.38,0,0,1-.18.5A.41.41,0,0,1,166.24,196.64Zm-2.5-5.44a.39.39,0,0,1-.35-.23c-.4-.92-.8-1.83-1.19-2.75a.37.37,0,0,1,.2-.49.37.37,0,0,1,.49.19c.39.92.78,1.83,1.19,2.75a.37.37,0,0,1-.19.49A.28.28,0,0,1,163.74,191.2Zm-2.35-5.52a.38.38,0,0,1-.35-.24c-.37-.93-.75-1.86-1.11-2.79a.38.38,0,0,1,.7-.27c.36.93.73,1.85,1.11,2.78a.38.38,0,0,1-.21.49A.32.32,0,0,1,161.39,185.68Zm-2.17-5.59a.38.38,0,0,1-.36-.24c-.35-.94-.69-1.89-1-2.83a.37.37,0,0,1,.23-.47.37.37,0,0,1,.48.22q.49,1.41,1,2.82a.38.38,0,0,1-.22.48Zm-2-5.65a.36.36,0,0,1-.35-.26q-.48-1.43-.93-2.85a.37.37,0,0,1,.24-.47.36.36,0,0,1,.47.24c.3,1,.61,1.9.93,2.84a.38.38,0,0,1-.24.48Zm-1.8-5.72a.37.37,0,0,1-.36-.27c-.29-1-.56-1.92-.83-2.88a.39.39,0,0,1,.26-.47.38.38,0,0,1,.46.27c.27.95.54,1.91.83,2.87a.38.38,0,0,1-.26.47Zm-1.6-5.78a.36.36,0,0,1-.36-.28q-.37-1.46-.72-2.91a.37.37,0,0,1,.28-.46.38.38,0,0,1,.45.28c.22,1,.46,1.94.71,2.91a.37.37,0,0,1-.27.45Zm-1.38-5.83a.38.38,0,0,1-.37-.29c-.21-1-.41-2-.6-2.95a.37.37,0,0,1,.3-.44.38.38,0,0,1,.44.3c.19,1,.39,2,.6,2.93a.38.38,0,0,1-.29.44Zm-1.14-5.88a.38.38,0,0,1-.37-.31q-.26-1.5-.48-3a.38.38,0,0,1,.32-.43.37.37,0,0,1,.42.32c.15,1,.31,2,.48,2.95a.37.37,0,0,1-.31.43Zm-.89-5.93A.37.37,0,0,1,150,145c-.13-1-.24-2-.34-3a.38.38,0,0,1,.33-.41.37.37,0,0,1,.41.34c.1,1,.22,2,.34,3a.38.38,0,0,1-.32.42Zm-.61-6a.37.37,0,0,1-.37-.35c-.08-1-.15-2-.2-3a.37.37,0,0,1,.36-.39.36.36,0,0,1,.39.35c.05,1,.12,2,.19,3a.36.36,0,0,1-.34.4Zm-.31-6a.37.37,0,0,1-.37-.37c0-.91,0-1.81,0-2.72V130a.38.38,0,0,1,.38-.38h0a.37.37,0,0,1,.37.38v.28c0,.9,0,1.8,0,2.71a.38.38,0,0,1-.37.38Zm0-6h0a.39.39,0,0,1-.37-.39c0-1,.08-2,.14-3a.39.39,0,0,1,.4-.35.37.37,0,0,1,.35.4c-.06,1-.11,2-.14,3A.37.37,0,0,1,149.51,127.36Zm.37-6h0a.37.37,0,0,1-.34-.41c.09-1,.2-2,.33-3a.37.37,0,1,1,.74.1c-.12,1-.23,2-.32,3A.39.39,0,0,1,149.88,121.38Zm.76-5.95h-.06a.39.39,0,0,1-.31-.43c.17-1,.34-2,.54-3a.38.38,0,0,1,.74.15q-.3,1.45-.54,2.94A.38.38,0,0,1,150.64,115.43Zm1.18-5.88h-.08a.36.36,0,0,1-.28-.45c.23-1,.49-2,.76-2.91a.37.37,0,0,1,.46-.26.37.37,0,0,1,.26.46c-.27,1-.52,1.92-.75,2.89A.38.38,0,0,1,151.82,109.55Zm1.63-5.76-.11,0a.37.37,0,0,1-.24-.47c.31-1,.65-1.92,1-2.85a.38.38,0,1,1,.71.27c-.35.91-.68,1.86-1,2.81A.38.38,0,0,1,153.45,103.79Zm2.11-5.61a.4.4,0,0,1-.15,0,.37.37,0,0,1-.19-.5c.39-.92.81-1.85,1.24-2.74a.37.37,0,0,1,.5-.18.39.39,0,0,1,.18.51c-.43.88-.84,1.79-1.23,2.71A.39.39,0,0,1,155.56,98.18Zm2.61-5.4a.35.35,0,0,1-.18,0,.36.36,0,0,1-.15-.5c.47-.89,1-1.77,1.5-2.62a.37.37,0,0,1,.51-.13A.39.39,0,0,1,160,90c-.51.84-1,1.71-1.48,2.58A.38.38,0,0,1,158.17,92.78Zm3.1-5.12a.44.44,0,0,1-.21-.07.38.38,0,0,1-.1-.52c.56-.83,1.15-1.65,1.76-2.45a.37.37,0,1,1,.59.45c-.59.79-1.17,1.6-1.73,2.42A.37.37,0,0,1,161.27,87.66Zm3.61-4.79a.36.36,0,0,1-.24-.09.38.38,0,0,1,0-.53c.64-.76,1.31-1.53,2-2.26a.38.38,0,0,1,.55.51c-.67.72-1.33,1.48-2,2.24A.43.43,0,0,1,164.88,82.87ZM169,78.43a.35.35,0,0,1-.26-.1.34.34,0,0,1,0-.5l.06-.06c.7-.68,1.42-1.34,2.15-2a.37.37,0,0,1,.53,0,.38.38,0,0,1,0,.53c-.72.63-1.44,1.29-2.13,2A.42.42,0,0,1,169,78.43Zm4.48-3.91a.37.37,0,0,1-.29-.14.38.38,0,0,1,.06-.53c.78-.62,1.6-1.23,2.41-1.81a.37.37,0,0,1,.52.09.38.38,0,0,1-.08.52c-.81.58-1.61,1.18-2.39,1.79A.32.32,0,0,1,173.45,74.52Zm4.88-3.47a.37.37,0,0,1-.31-.17.38.38,0,0,1,.11-.52q1.27-.81,2.58-1.56a.37.37,0,0,1,.51.14.37.37,0,0,1-.14.51c-.85.49-1.71,1-2.55,1.54A.36.36,0,0,1,178.33,71.05Zm84-2.63a.25.25,0,0,1-.12,0c-1-.33-1.89-.65-2.84-1a.38.38,0,1,1,.24-.72l2.84,1a.39.39,0,0,1,.24.48A.38.38,0,0,1,262.35,68.42Zm-78.81-.34a.37.37,0,0,1-.17-.71c.89-.45,1.8-.89,2.71-1.3a.38.38,0,0,1,.5.19.38.38,0,0,1-.19.5c-.9.4-1.81.83-2.68,1.28A.38.38,0,0,1,183.54,68.08Zm73.11-1.52-.11,0c-1-.3-1.91-.58-2.86-.85a.38.38,0,0,1-.26-.47.39.39,0,0,1,.47-.26l2.87.86a.38.38,0,0,1,.25.47A.38.38,0,0,1,256.65,66.56ZM189,65.62a.38.38,0,0,1-.35-.23.38.38,0,0,1,.21-.49c.93-.37,1.88-.72,2.83-1a.36.36,0,0,1,.47.23.38.38,0,0,1-.23.48c-.94.32-1.88.67-2.79,1A.36.36,0,0,1,189,65.62Zm61.89-.72h-.09l-2.9-.75a.37.37,0,0,1,.18-.72c1,.23,1.94.48,2.91.74a.38.38,0,0,1-.1.74Zm-56.23-1.23a.37.37,0,0,1-.1-.73c.95-.29,1.92-.55,2.9-.8a.38.38,0,0,1,.46.27.38.38,0,0,1-.28.45c-1,.25-1.92.51-2.87.8Zm50.41-.2H245c-1-.22-2-.43-2.92-.62a.37.37,0,0,1-.3-.44.38.38,0,0,1,.45-.3l2.93.63a.37.37,0,0,1,.29.45A.38.38,0,0,1,245.07,63.47Zm-5.87-1.19h-.07c-1-.18-2-.34-2.95-.5a.37.37,0,0,1-.31-.42.38.38,0,0,1,.43-.32c1,.16,2,.32,3,.5a.38.38,0,0,1,.31.43A.37.37,0,0,1,239.2,62.28Zm-38.73-.08a.38.38,0,0,1-.37-.3.38.38,0,0,1,.29-.44c1-.21,2-.4,3-.57a.38.38,0,0,1,.13.74c-1,.17-2,.36-2.93.56Zm32.8-.84h-.05c-1-.13-2-.25-3-.35a.38.38,0,0,1-.34-.41.39.39,0,0,1,.42-.34l3,.36a.37.37,0,0,1,0,.74Zm-26.89-.18a.37.37,0,0,1,0-.74c1-.14,2-.25,3-.35a.37.37,0,0,1,.41.33.37.37,0,0,1-.34.41c-1,.1-2,.22-3,.35Zm20.93-.45h0c-1-.08-2-.15-3-.2a.38.38,0,0,1-.35-.39.37.37,0,0,1,.39-.36c1,0,2,.12,3,.2a.39.39,0,0,1,.35.41A.38.38,0,0,1,227.31,60.73Zm-15-.14a.38.38,0,0,1,0-.75q1.49-.11,3-.15a.38.38,0,0,1,0,.75c-1,0-2,.08-3,.15Zm9-.18h0l-2.61,0h-.38c-.23,0-.37-.17-.37-.37a.37.37,0,0,1,.37-.38h.38l2.63,0a.38.38,0,0,1,.36.39A.37.37,0,0,1,221.33,60.41Z"></path><path d="M266.63,70l-.13,0-1.41-.52a.38.38,0,0,1,.26-.71l1.41.53a.37.37,0,0,1,.22.48A.38.38,0,0,1,266.63,70Z"></path><path d="M401.55,198.37a.36.36,0,0,1-.34-.22l-.63-1.36a.37.37,0,1,1,.67-.32c.22.46.43.91.64,1.37a.37.37,0,0,1-.19.49A.28.28,0,0,1,401.55,198.37Z"></path><path d="M348.47,331.82a.38.38,0,0,1-.37-.38.36.36,0,0,1,.37-.37c1,0,2,0,3-.07a.38.38,0,0,1,.39.36.38.38,0,0,1-.36.39c-1,0-2,.06-3.06.07Zm-3,0h0c-1,0-2-.06-3.05-.11a.38.38,0,0,1-.35-.39.34.34,0,0,1,.39-.36c1,.05,2,.09,3,.11a.38.38,0,1,1,0,.75Zm9.12-.21a.38.38,0,0,1-.38-.35.39.39,0,0,1,.35-.4c1-.07,2-.16,3-.26a.38.38,0,0,1,.41.33.37.37,0,0,1-.33.41c-1,.11-2,.2-3,.27Zm-15.19-.1h0c-1-.08-2-.17-3-.28a.36.36,0,0,1-.33-.41.37.37,0,0,1,.41-.33l3,.27a.38.38,0,0,1,.34.41A.37.37,0,0,1,339.36,331.48ZM360.6,331a.38.38,0,0,1-.06-.75c1-.14,2-.3,3-.48a.38.38,0,0,1,.44.31.38.38,0,0,1-.3.43c-1,.18-2,.34-3,.48Zm-27.29-.1h-.05c-1-.14-2-.28-3-.44a.37.37,0,0,1-.31-.42.36.36,0,0,1,.43-.32c1,.16,2,.3,3,.43a.38.38,0,0,1,.32.42A.37.37,0,0,1,333.31,330.85Zm-6-.93h-.07l-3-.57a.37.37,0,0,1-.29-.44.36.36,0,0,1,.44-.29c1,.2,2,.39,3,.56a.38.38,0,0,1,.3.44A.38.38,0,0,1,327.3,329.92Zm39.28-.05a.38.38,0,0,1-.37-.29.39.39,0,0,1,.29-.45c1-.22,2-.45,2.94-.71a.38.38,0,1,1,.19.73c-1,.26-2,.49-3,.71Zm5.88-1.54a.38.38,0,0,1-.11-.74c1-.29,1.92-.61,2.87-.95a.37.37,0,0,1,.48.23.38.38,0,0,1-.22.48c-1,.34-1.94.66-2.91,1Zm5.73-2.05a.37.37,0,0,1-.35-.23.37.37,0,0,1,.21-.49c.93-.38,1.86-.79,2.77-1.21a.37.37,0,0,1,.49.19.36.36,0,0,1-.18.49c-.92.43-1.86.84-2.8,1.23A.34.34,0,0,1,378.19,326.28Zm5.51-2.56a.35.35,0,0,1-.33-.2.37.37,0,0,1,.16-.51c.89-.46,1.78-1,2.64-1.47a.38.38,0,0,1,.51.14.39.39,0,0,1-.13.51c-.87.51-1.77,1-2.68,1.49A.33.33,0,0,1,383.7,323.72Zm5.23-3.09a.37.37,0,0,1-.31-.17.38.38,0,0,1,.11-.52c.84-.55,1.67-1.13,2.47-1.73a.39.39,0,0,1,.53.08.38.38,0,0,1-.08.53c-.81.6-1.66,1.19-2.51,1.75A.39.39,0,0,1,388.93,320.63Zm4.9-3.61a.36.36,0,0,1-.29-.13.38.38,0,0,1,0-.53q1.17-1,2.28-2a.37.37,0,0,1,.53,0,.38.38,0,0,1,0,.53c-.75.68-1.53,1.35-2.32,2A.34.34,0,0,1,393.83,317Zm4.49-4.09a.38.38,0,0,1-.27-.64c.71-.72,1.41-1.46,2.07-2.2a.37.37,0,1,1,.56.49c-.67.76-1.38,1.51-2.09,2.24A.4.4,0,0,1,398.32,312.93Zm4-4.54a.4.4,0,0,1-.23-.08.37.37,0,0,1-.06-.53c.63-.79,1.24-1.6,1.83-2.41a.38.38,0,0,1,.61.44c-.59.82-1.22,1.64-1.86,2.44A.37.37,0,0,1,402.36,308.39Zm3.56-4.93a.37.37,0,0,1-.21-.06.38.38,0,0,1-.11-.52c.54-.84,1.07-1.71,1.57-2.58a.39.39,0,0,1,.52-.14.37.37,0,0,1,.14.51c-.51.88-1.05,1.76-1.6,2.61A.36.36,0,0,1,405.92,303.46Zm3-5.27a.38.38,0,0,1-.17,0,.39.39,0,0,1-.16-.51c.45-.88.9-1.8,1.32-2.72a.37.37,0,0,1,.68.31c-.42.93-.87,1.86-1.33,2.76A.38.38,0,0,1,409,298.19Zm2.53-5.54a.32.32,0,0,1-.14,0,.37.37,0,0,1-.21-.49c.37-.93.73-1.88,1.06-2.83a.37.37,0,0,1,.48-.23.38.38,0,0,1,.23.48c-.34.95-.7,1.92-1.08,2.86A.35.35,0,0,1,411.48,292.65Zm2-5.73-.11,0a.38.38,0,0,1-.25-.47c.29-1,.56-1.93.82-2.91a.38.38,0,0,1,.46-.27.37.37,0,0,1,.26.46c-.25,1-.53,2-.82,2.94A.38.38,0,0,1,413.49,286.92ZM415,281h-.08a.38.38,0,0,1-.29-.44c.21-1,.41-2,.59-3a.38.38,0,0,1,.43-.31.39.39,0,0,1,.31.44q-.27,1.51-.6,3A.36.36,0,0,1,415,281Zm1.07-6h0a.37.37,0,0,1-.32-.42c.14-1,.27-2,.37-3a.38.38,0,0,1,.75.08c-.11,1-.24,2-.38,3A.37.37,0,0,1,416.09,275.05Zm.65-6.05h0a.38.38,0,0,1-.34-.4c.07-1,.13-2,.17-3a.38.38,0,0,1,.38-.36h0a.38.38,0,0,1,.35.4c0,1-.1,2-.17,3A.38.38,0,0,1,416.74,269Zm.26-6.08h0a.37.37,0,0,1-.37-.38c0-.45,0-.9,0-1.35s0-1.12,0-1.68a.38.38,0,0,1,.37-.38.4.4,0,0,1,.38.37c0,.57,0,1.13,0,1.69s0,.91,0,1.36A.37.37,0,0,1,417,262.92Zm-.09-6.08a.36.36,0,0,1-.37-.36c-.05-1-.1-2-.17-3a.37.37,0,1,1,.74-.05c.07,1,.13,2,.18,3a.39.39,0,0,1-.36.39Zm-.42-6.06a.37.37,0,0,1-.37-.34c-.1-1-.21-2-.33-3a.39.39,0,0,1,.33-.42.38.38,0,0,1,.42.33c.12,1,.23,2,.32,3a.37.37,0,0,1-.34.41Zm-.72-6a.37.37,0,0,1-.37-.32c-.15-1-.3-2-.47-3a.38.38,0,0,1,.31-.43.36.36,0,0,1,.43.3c.17,1,.33,2,.47,3a.37.37,0,0,1-.32.42Zm-1-6a.38.38,0,0,1-.37-.31q-.28-1.49-.6-3a.39.39,0,0,1,.29-.45.38.38,0,0,1,.45.29c.21,1,.41,2,.6,3a.38.38,0,0,1-.3.44Zm-1.26-6a.37.37,0,0,1-.36-.3c-.23-1-.47-2-.72-2.94a.38.38,0,0,1,.28-.46.37.37,0,0,1,.45.27q.38,1.48.72,3a.38.38,0,0,1-.28.45Zm-1.49-5.9a.38.38,0,0,1-.36-.28c-.26-1-.54-1.94-.83-2.92a.38.38,0,0,1,.73-.21c.28,1,.56,2,.82,2.93a.38.38,0,0,1-.26.47Zm-1.71-5.84a.36.36,0,0,1-.35-.26c-.3-1-.61-1.93-.93-2.89a.38.38,0,0,1,.23-.48.39.39,0,0,1,.48.24c.32,1,.63,1.94.93,2.9a.38.38,0,0,1-.24.47A.25.25,0,0,1,410.31,221.05Zm-1.91-5.77a.37.37,0,0,1-.35-.25c-.34-.95-.68-1.91-1-2.86a.37.37,0,0,1,.22-.48.37.37,0,0,1,.48.22c.35,1,.7,1.92,1,2.87a.38.38,0,0,1-.23.48Zm-2.11-5.71a.38.38,0,0,1-.35-.24c-.36-.94-.73-1.88-1.12-2.82A.39.39,0,0,1,405,206a.38.38,0,0,1,.49.21c.38.94.76,1.89,1.12,2.83a.38.38,0,0,1-.21.49ZM404,203.94a.38.38,0,0,1-.34-.23c-.39-.93-.8-1.86-1.21-2.79a.37.37,0,0,1,.2-.49.37.37,0,0,1,.49.19c.41.93.82,1.86,1.21,2.79a.39.39,0,0,1-.2.5A.4.4,0,0,1,404,203.94Z"></path><path d="M321.29,328.71h-.08l-1.46-.34a.37.37,0,0,1,.17-.73c.49.11,1,.23,1.46.33a.38.38,0,0,1-.09.75Z"></path><path d="M242.36,325.24a.36.36,0,0,1-.36-.3.37.37,0,0,1,.29-.44l1.47-.3a.37.37,0,0,1,.15.73l-1.47.3Z"></path><path d="M215.93,327.86h0c-1,0-2,0-3-.07a.37.37,0,0,1-.36-.39A.39.39,0,0,1,213,327c1,0,2,.06,3,.07a.37.37,0,0,1,.37.38A.38.38,0,0,1,215.93,327.86Zm2.95,0a.38.38,0,0,1-.37-.37.37.37,0,0,1,.37-.38l2.94-.09a.37.37,0,0,1,.39.36.37.37,0,0,1-.36.39l-3,.09Zm-8.86-.22h0c-1-.06-2-.14-3-.24a.37.37,0,0,1-.34-.41.37.37,0,0,1,.41-.33c1,.09,1.95.17,2.93.24a.37.37,0,0,1,.35.4A.37.37,0,0,1,210,327.63Zm14.77,0a.37.37,0,0,1-.37-.35.37.37,0,0,1,.35-.4c1-.06,1.95-.14,2.93-.23a.36.36,0,0,1,.41.34.37.37,0,0,1-.34.41c-1,.09-2,.16-3,.23Zm5.89-.53a.37.37,0,0,1-.37-.33.37.37,0,0,1,.33-.42l2.92-.36a.39.39,0,0,1,.43.32.38.38,0,0,1-.33.42c-1,.13-2,.26-2.94.37Zm-26.55,0h0c-1-.13-2-.27-2.94-.43a.37.37,0,0,1-.31-.43.38.38,0,0,1,.43-.31c1,.16,1.93.3,2.91.43a.37.37,0,0,1-.05.74Zm32.41-.78a.38.38,0,0,1-.37-.32.38.38,0,0,1,.31-.43c1-.15,1.94-.31,2.91-.49a.37.37,0,0,1,.43.31.37.37,0,0,1-.3.43c-1,.18-2,.34-2.92.49Zm-38.24-.17h-.07c-1-.2-1.95-.4-2.91-.63a.38.38,0,0,1,.18-.73c.95.22,1.9.43,2.87.62a.37.37,0,0,1-.07.74Zm-5.75-1.35-.1,0q-1.44-.39-2.85-.84a.38.38,0,0,1-.25-.47.38.38,0,0,1,.48-.24c.93.29,1.87.57,2.82.83a.38.38,0,0,1-.1.74ZM186.91,323l-.12,0c-.94-.34-1.86-.7-2.78-1.08a.37.37,0,0,1,.29-.69c.9.37,1.82.72,2.74,1.06a.38.38,0,0,1,.23.48A.39.39,0,0,1,186.91,323Zm-5.47-2.25a.28.28,0,0,1-.15,0c-.91-.42-1.81-.86-2.67-1.31a.37.37,0,0,1-.16-.51.38.38,0,0,1,.5-.16c.86.45,1.75.88,2.64,1.3a.38.38,0,0,1-.16.72ZM176.2,318a.41.41,0,0,1-.19-.05c-.87-.51-1.72-1-2.54-1.56a.38.38,0,0,1-.11-.52.38.38,0,0,1,.52-.11c.81.52,1.65,1,2.51,1.54a.36.36,0,0,1,.13.51A.37.37,0,0,1,176.2,318Zm-5-3.21a.41.41,0,0,1-.22-.07c-.8-.58-1.6-1.18-2.37-1.8a.37.37,0,0,1-.06-.53.38.38,0,0,1,.52-.06c.77.61,1.56,1.21,2.34,1.78a.37.37,0,0,1,.09.52A.38.38,0,0,1,171.24,314.78Zm-4.63-3.69a.38.38,0,0,1-.24-.09c-.74-.65-1.47-1.33-2.18-2a.37.37,0,1,1,.52-.54c.7.68,1.42,1.35,2.15,2a.38.38,0,0,1,0,.53A.4.4,0,0,1,166.61,311.09ZM162.39,307a.39.39,0,0,1-.28-.12l-.27-.3c-.58-.64-1.14-1.28-1.69-1.94a.38.38,0,0,1,0-.53.37.37,0,0,1,.52.05c.54.65,1.1,1.29,1.67,1.91l.27.3a.37.37,0,0,1,0,.53A.35.35,0,0,1,162.39,307Zm-3.79-4.54a.36.36,0,0,1-.3-.15c-.6-.78-1.18-1.6-1.73-2.42a.37.37,0,0,1,.1-.52.38.38,0,0,1,.52.1c.55.81,1.12,1.61,1.71,2.39a.38.38,0,0,1-.08.53A.34.34,0,0,1,158.6,302.43Zm-3.32-4.89a.37.37,0,0,1-.32-.18c-.51-.85-1-1.72-1.48-2.58a.38.38,0,0,1,.16-.51.36.36,0,0,1,.5.15c.46.86,1,1.71,1.46,2.55a.37.37,0,0,1-.12.52A.46.46,0,0,1,155.28,297.54Zm-2.81-5.2a.39.39,0,0,1-.34-.21c-.43-.89-.84-1.8-1.22-2.71a.37.37,0,1,1,.69-.29c.38.89.78,1.79,1.21,2.68a.38.38,0,0,1-.18.5A.45.45,0,0,1,152.47,292.34Zm-2.31-5.44a.38.38,0,0,1-.35-.24c-.34-.93-.67-1.87-1-2.81a.36.36,0,0,1,.24-.47.37.37,0,0,1,.47.24c.3.93.62,1.86,1,2.78a.37.37,0,0,1-.22.48A.3.3,0,0,1,150.16,286.9Zm-1.81-5.62A.37.37,0,0,1,148,281c-.26-.95-.51-1.91-.73-2.88a.38.38,0,0,1,.28-.45.38.38,0,0,1,.45.28q.33,1.44.72,2.85a.38.38,0,0,1-.26.47ZM147,275.52a.36.36,0,0,1-.36-.3c-.19-1-.35-2-.5-2.93a.37.37,0,1,1,.74-.11c.15,1,.31,1.94.49,2.9a.36.36,0,0,1-.3.43Zm-.88-5.84a.37.37,0,0,1-.37-.33c-.12-1-.21-2-.29-3a.36.36,0,0,1,.34-.4.37.37,0,0,1,.41.34c.08,1,.17,2,.28,2.93a.38.38,0,0,1-.33.42Zm-.47-5.89a.38.38,0,0,1-.38-.36q-.06-1.47-.09-3a.38.38,0,0,1,.75,0q0,1.49.09,2.94a.38.38,0,0,1-.35.4Zm-.09-5.92h0a.37.37,0,0,1-.37-.38c0-1,.05-2,.09-3a.38.38,0,1,1,.75,0c0,1-.08,2-.09,2.94A.38.38,0,0,1,145.57,257.87Zm.27-5.9h0a.38.38,0,0,1-.34-.4c.07-1,.15-2,.25-3a.39.39,0,0,1,.42-.34.39.39,0,0,1,.33.42c-.1,1-.18,2-.26,2.93A.37.37,0,0,1,145.84,252Zm.59-5.89h0a.37.37,0,0,1-.33-.42c.12-1,.26-1.95.41-2.93a.37.37,0,1,1,.74.11c-.15,1-.28,1.95-.41,2.92A.36.36,0,0,1,146.43,246.08Zm.89-5.84h-.07a.37.37,0,0,1-.3-.43c.17-1,.35-1.94.55-2.91a.37.37,0,0,1,.44-.3.37.37,0,0,1,.29.44c-.19,1-.37,1.94-.54,2.9A.38.38,0,0,1,147.32,240.24Zm1.16-5.8h-.08a.38.38,0,0,1-.29-.44c.22-1,.44-1.93.68-2.89a.39.39,0,0,1,.45-.28.38.38,0,0,1,.28.46c-.24,1-.46,1.91-.67,2.87A.38.38,0,0,1,148.48,234.44Zm1.41-5.74h-.1a.37.37,0,0,1-.26-.46c.25-.95.52-1.9.79-2.86a.38.38,0,0,1,.47-.25.36.36,0,0,1,.25.46c-.27.95-.53,1.9-.79,2.84A.36.36,0,0,1,149.89,228.7Zm1.64-5.68a.23.23,0,0,1-.11,0,.38.38,0,0,1-.25-.47c.3-.93.6-1.87.91-2.82a.38.38,0,0,1,.47-.24.38.38,0,0,1,.24.48c-.31.94-.61,1.87-.9,2.81A.38.38,0,0,1,151.53,223Zm1.86-5.61-.12,0a.38.38,0,0,1-.23-.48c.32-.93.66-1.86,1-2.79a.38.38,0,0,1,.71.26c-.35.93-.68,1.85-1,2.78A.38.38,0,0,1,153.39,217.41Zm2.06-5.55a.32.32,0,0,1-.14,0,.38.38,0,0,1-.21-.49c.36-.91.72-1.83,1.1-2.75a.37.37,0,1,1,.69.29c-.37.91-.74,1.82-1.09,2.73A.38.38,0,0,1,155.45,211.86Zm2.24-5.47-.15,0a.37.37,0,0,1-.2-.49c.39-.9.79-1.81,1.19-2.71a.38.38,0,0,1,.5-.19.37.37,0,0,1,.19.49c-.4.91-.8,1.81-1.19,2.71A.37.37,0,0,1,157.69,206.39Z"></path><path d="M160.12,201a.28.28,0,0,1-.15,0,.37.37,0,0,1-.18-.5l.64-1.36a.37.37,0,1,1,.67.33c-.21.45-.42.9-.64,1.35A.36.36,0,0,1,160.12,201Z"></path><path d="M291,82a.41.41,0,0,1-.33-.18.39.39,0,0,1,.13-.52l1.29-.77a.38.38,0,0,1,.52.13.39.39,0,0,1-.14.52l-1.28.76A.35.35,0,0,1,291,82Z"></path><path d="M357.11,259.67a.38.38,0,0,1-.27-.64c.71-.7,1.41-1.41,2.11-2.11a.37.37,0,1,1,.53.53l-2.11,2.11A.38.38,0,0,1,357.11,259.67Zm4.19-4.25a.38.38,0,0,1-.27-.64c.69-.71,1.38-1.43,2.06-2.15a.37.37,0,0,1,.53,0,.38.38,0,0,1,0,.53c-.69.73-1.37,1.45-2.07,2.17A.39.39,0,0,1,361.3,255.42Zm4.1-4.34a.39.39,0,0,1-.25-.1.38.38,0,0,1,0-.53l2-2.2a.37.37,0,0,1,.53,0,.39.39,0,0,1,0,.53l-2,2.21A.39.39,0,0,1,365.4,251.08Zm4-4.44a.38.38,0,0,1-.25-.09.37.37,0,0,1,0-.53l2-2.25a.38.38,0,0,1,.53,0,.37.37,0,0,1,0,.52c-.65.76-1.31,1.51-2,2.26A.38.38,0,0,1,369.41,246.64Zm3.9-4.52a.38.38,0,0,1-.24-.09.36.36,0,0,1,0-.52l1.91-2.29a.36.36,0,0,1,.52-.05.37.37,0,0,1,.06.52L373.6,242A.37.37,0,0,1,373.31,242.12Zm3.8-4.61a.34.34,0,0,1-.23-.08.38.38,0,0,1-.06-.53c.63-.77,1.25-1.55,1.86-2.33a.38.38,0,0,1,.53-.06.37.37,0,0,1,.06.52l-1.86,2.34A.37.37,0,0,1,377.11,237.51Zm3.7-4.69a.4.4,0,0,1-.23-.08.38.38,0,0,1-.07-.53q.92-1.19,1.8-2.37a.38.38,0,1,1,.6.45l-1.8,2.38A.38.38,0,0,1,380.81,232.82Zm3.58-4.78a.44.44,0,0,1-.22-.07.37.37,0,0,1-.08-.53c.58-.8,1.17-1.61,1.74-2.42a.38.38,0,0,1,.53-.09.39.39,0,0,1,.08.53c-.57.81-1.16,1.62-1.75,2.42A.38.38,0,0,1,384.39,228Zm3.47-4.87a.36.36,0,0,1-.22-.07.37.37,0,0,1-.09-.52q.85-1.23,1.68-2.46a.37.37,0,1,1,.62.42c-.55.82-1.12,1.65-1.69,2.47A.38.38,0,0,1,387.86,223.17Zm3.34-4.95a.42.42,0,0,1-.21-.06.37.37,0,0,1-.1-.52c.54-.83,1.09-1.67,1.62-2.5A.37.37,0,0,1,393,215a.38.38,0,0,1,.11.52c-.53.84-1.08,1.67-1.63,2.51A.37.37,0,0,1,391.2,218.22Zm3.22-5a.36.36,0,0,1-.2-.06.37.37,0,0,1-.12-.52c.52-.84,1-1.69,1.55-2.54a.38.38,0,0,1,.52-.13.39.39,0,0,1,.13.52c-.52.85-1,1.7-1.57,2.55A.38.38,0,0,1,394.42,213.19Zm3.08-5.12a.45.45,0,0,1-.19,0,.38.38,0,0,1-.13-.52c.5-.86,1-1.72,1.48-2.58a.38.38,0,0,1,.51-.14.37.37,0,0,1,.15.51c-.49.86-1,1.73-1.5,2.59A.37.37,0,0,1,397.5,208.07Zm2.94-5.2a.31.31,0,0,1-.18-.05.38.38,0,0,1-.15-.51c.48-.87,1-1.75,1.42-2.62a.39.39,0,0,1,.51-.16.38.38,0,0,1,.15.51c-.46.88-.94,1.76-1.42,2.64A.37.37,0,0,1,400.44,202.87Zm2.8-5.28a.33.33,0,0,1-.17,0,.37.37,0,0,1-.16-.51c.45-.88.89-1.77,1.33-2.66a.38.38,0,0,1,.68.33c-.44.89-.89,1.78-1.35,2.68A.35.35,0,0,1,403.24,197.59Zm2.64-5.36a.32.32,0,0,1-.16,0,.36.36,0,0,1-.18-.49c.43-.91.85-1.81,1.26-2.71a.36.36,0,0,1,.49-.18.37.37,0,0,1,.19.49c-.41.91-.83,1.81-1.26,2.72A.39.39,0,0,1,405.88,192.23Zm2.47-5.44a.4.4,0,0,1-.15,0,.37.37,0,0,1-.19-.49c.4-.92.79-1.83,1.17-2.74a.39.39,0,0,1,.49-.21.37.37,0,0,1,.2.49q-.57,1.38-1.17,2.76A.37.37,0,0,1,408.35,186.79Zm2.3-5.51-.14,0a.37.37,0,0,1-.21-.48c.37-.93.73-1.86,1.08-2.78a.37.37,0,0,1,.7.26q-.52,1.4-1.08,2.79A.38.38,0,0,1,410.65,181.28Zm2.11-5.59-.13,0a.38.38,0,0,1-.22-.48c.33-.94.66-1.88,1-2.82a.37.37,0,0,1,.47-.23.37.37,0,0,1,.24.47c-.32.94-.65,1.89-1,2.83A.37.37,0,0,1,412.76,175.69Zm1.91-5.66-.11,0a.38.38,0,0,1-.25-.47q.45-1.42.87-2.85a.38.38,0,0,1,.47-.25.37.37,0,0,1,.25.46c-.28,1-.57,1.91-.87,2.87A.38.38,0,0,1,414.67,170Zm1.69-5.73h-.1a.38.38,0,0,1-.26-.46c.26-1,.52-1.93.76-2.89a.37.37,0,1,1,.72.19c-.24,1-.49,1.93-.76,2.89A.36.36,0,0,1,416.36,164.3Zm1.46-5.79h-.08a.38.38,0,0,1-.29-.45c.23-1,.44-2,.64-2.91a.36.36,0,0,1,.44-.29.38.38,0,0,1,.29.44c-.2,1-.41,2-.64,2.93A.36.36,0,0,1,417.82,158.51Zm1.2-5.85H419a.37.37,0,0,1-.3-.44c.17-1,.34-2,.5-2.93a.36.36,0,0,1,.42-.31.38.38,0,0,1,.32.43c-.16,1-.33,2-.51,2.95A.38.38,0,0,1,419,152.66Zm.93-5.9h-.05a.37.37,0,0,1-.32-.42c.13-1,.25-2,.36-3a.36.36,0,0,1,.41-.34.38.38,0,0,1,.33.42c-.1,1-.22,2-.35,3A.39.39,0,0,1,420,146.76Zm.63-5.94h0a.38.38,0,0,1-.34-.41c.08-1,.14-2,.19-3a.38.38,0,0,1,.75,0c0,1-.11,2-.19,3A.38.38,0,0,1,420.58,140.82Zm.31-6h0a.37.37,0,0,1-.37-.38c0-.71,0-1.42,0-2.12v-.86a.38.38,0,0,1,.37-.37.35.35,0,0,1,.38.37v.86q0,1.07,0,2.13A.37.37,0,0,1,420.89,134.85Zm-.06-6a.37.37,0,0,1-.37-.36c0-1-.1-2-.17-3a.36.36,0,0,1,.34-.4.39.39,0,0,1,.41.34c.07,1,.13,2,.17,3a.37.37,0,0,1-.36.39Zm-.44-6a.39.39,0,0,1-.38-.33c-.1-1-.23-2-.37-3a.37.37,0,1,1,.74-.11c.14,1,.27,2,.38,3a.38.38,0,0,1-.33.41Zm-.87-5.91a.37.37,0,0,1-.37-.3q-.27-1.47-.6-2.91a.37.37,0,0,1,.73-.17c.22,1,.43,2,.61,2.94a.38.38,0,0,1-.3.44Zm-1.33-5.82a.38.38,0,0,1-.36-.28q-.39-1.44-.84-2.85a.38.38,0,0,1,.25-.47.38.38,0,0,1,.47.25c.3,1,.58,1.91.85,2.88a.38.38,0,0,1-.27.46Zm-1.8-5.69a.38.38,0,0,1-.36-.24c-.34-.94-.71-1.87-1.08-2.77a.37.37,0,1,1,.69-.29c.38.91.75,1.85,1.1,2.8a.38.38,0,0,1-.22.48Zm-2.32-5.5a.39.39,0,0,1-.34-.21c-.43-.9-.88-1.79-1.34-2.65a.38.38,0,1,1,.66-.36c.47.87.93,1.77,1.36,2.68a.37.37,0,0,1-.18.5A.32.32,0,0,1,414.07,100Zm-2.83-5.26a.36.36,0,0,1-.32-.18c-.51-.84-1.05-1.68-1.6-2.5a.37.37,0,0,1,.1-.52.38.38,0,0,1,.52.1c.56.83,1.1,1.68,1.62,2.53a.38.38,0,0,1-.13.52A.34.34,0,0,1,411.24,94.74ZM407.9,89.8a.38.38,0,0,1-.3-.15c-.61-.8-1.23-1.58-1.85-2.33a.38.38,0,1,1,.58-.48c.63.75,1.26,1.55,1.87,2.35a.38.38,0,0,1-.08.53A.4.4,0,0,1,407.9,89.8Zm-3.83-4.59a.38.38,0,0,1-.28-.12c-.67-.71-1.37-1.41-2.09-2.09a.38.38,0,0,1,.51-.55c.74.69,1.45,1.41,2.13,2.13a.38.38,0,0,1,0,.53A.35.35,0,0,1,404.07,85.21Zm-4.36-4.08a.33.33,0,0,1-.23-.09c-.75-.61-1.54-1.23-2.35-1.81a.39.39,0,0,1-.08-.53.38.38,0,0,1,.53-.08c.81.6,1.61,1.22,2.37,1.84A.38.38,0,0,1,400,81,.37.37,0,0,1,399.71,81.13ZM294.84,79.71a.38.38,0,0,1-.18-.71q1.32-.72,2.64-1.41a.38.38,0,1,1,.35.67c-.88.45-1.76.92-2.63,1.4A.41.41,0,0,1,294.84,79.71ZM394.89,77.6a.36.36,0,0,1-.2-.06c-.82-.53-1.67-1.05-2.53-1.55a.37.37,0,0,1-.14-.51.39.39,0,0,1,.52-.14c.86.51,1.72,1,2.56,1.58a.37.37,0,0,1-.21.68ZM300.15,77a.37.37,0,0,1-.34-.21.38.38,0,0,1,.18-.5c.9-.43,1.8-.86,2.71-1.27a.38.38,0,1,1,.31.69q-1.35.6-2.7,1.26A.45.45,0,0,1,300.15,77Zm89.58-2.35a.33.33,0,0,1-.17,0c-.87-.45-1.76-.88-2.67-1.3a.39.39,0,0,1-.19-.5.37.37,0,0,1,.5-.18c.92.42,1.83.86,2.7,1.31a.38.38,0,0,1,.16.51A.36.36,0,0,1,389.73,74.61Zm-84.13-.1a.38.38,0,0,1-.35-.23.37.37,0,0,1,.2-.49c.93-.39,1.85-.76,2.79-1.12a.38.38,0,0,1,.27.7c-.93.36-1.85.73-2.77,1.11A.32.32,0,0,1,305.6,74.51Zm5.57-2.16a.36.36,0,0,1-.35-.25.38.38,0,0,1,.23-.48c.94-.33,1.88-.66,2.83-1a.38.38,0,1,1,.24.72c-.95.3-1.88.63-2.82,1A.3.3,0,0,1,311.17,72.35Zm73.13-.24-.14,0c-.91-.37-1.83-.73-2.77-1.07a.37.37,0,0,1,.26-.7c.94.34,1.88.7,2.8,1.08a.37.37,0,0,1,.2.49A.38.38,0,0,1,384.3,72.11Zm-67.45-1.62a.37.37,0,0,1-.36-.27.38.38,0,0,1,.25-.46c1-.29,1.93-.56,2.89-.82a.37.37,0,0,1,.46.26.38.38,0,0,1-.27.46c-.95.26-1.91.53-2.86.82Zm61.84-.42-.11,0c-.94-.3-1.89-.59-2.85-.86a.37.37,0,0,1,.2-.72q1.45.41,2.88.87a.37.37,0,0,1-.12.73Zm-56.07-1.14a.38.38,0,0,1-.09-.74c1-.24,2-.46,2.92-.67a.37.37,0,1,1,.16.73c-1,.21-1.93.43-2.9.67Zm50.32-.48h-.09c-1-.24-1.92-.46-2.9-.66a.38.38,0,0,1,.16-.74c1,.21,2,.43,2.92.67a.38.38,0,0,1,.28.45A.38.38,0,0,1,372.94,68.45Zm-44.48-.78a.39.39,0,0,1-.37-.31.38.38,0,0,1,.3-.43c1-.19,2-.36,3-.52a.37.37,0,0,1,.43.31.38.38,0,0,1-.31.43q-1.47.24-2.94.51Zm38.64-.45H367c-1-.17-1.95-.32-2.94-.47a.37.37,0,0,1,.11-.74c1,.15,2,.3,3,.48a.37.37,0,0,1,.31.43A.38.38,0,0,1,367.1,67.22Zm-32.74-.5a.38.38,0,0,1-.37-.33.38.38,0,0,1,.32-.42l3-.36a.37.37,0,0,1,.41.33.38.38,0,0,1-.33.42c-1,.1-2,.22-3,.35Zm26.82-.35h0c-1-.11-2-.21-3-.29a.37.37,0,0,1-.34-.4.36.36,0,0,1,.4-.35c1,.09,2,.19,3,.3a.38.38,0,0,1,.33.41A.39.39,0,0,1,361.18,66.37Zm-20.88-.3a.37.37,0,0,1-.37-.34.36.36,0,0,1,.34-.4c1-.09,2-.15,3-.21a.38.38,0,0,1,0,.75c-1,0-2,.12-3,.2Zm14.93-.2h0c-1-.06-2-.1-3-.13a.37.37,0,0,1-.37-.38.36.36,0,0,1,.39-.37c1,0,2,.07,3,.13a.36.36,0,0,1,.35.39A.37.37,0,0,1,355.23,65.87Zm-9-.12a.37.37,0,0,1-.37-.37.36.36,0,0,1,.36-.38c1,0,2,0,3,0h0a.37.37,0,0,1,.37.38.36.36,0,0,1-.37.37c-1,0-2,0-3,0Z"></path><path d="M353.88,262.83a.36.36,0,0,1-.27-.12.37.37,0,0,1,0-.53l1.07-1a.38.38,0,0,1,.53,0,.37.37,0,0,1,0,.53l-1.08,1A.4.4,0,0,1,353.88,262.83Z"></path></g><circle cx="284.64" cy="176.67" r="131.17" transform="translate(-41.55 253.01) rotate(-45)" style="fill:#fff;opacity:0.4"></circle><circle cx="284.64" cy="176.67" r="116.67" style="fill:#fff;opacity:0.7000000000000001"></circle><ellipse cx="284.38" cy="344.49" rx="44.34" ry="29.33" style="fill:#263238;stroke:#fff;stroke-linecap:round;stroke-linejoin:round"></ellipse><ellipse cx="284.38" cy="332.31" rx="58.2" ry="33.76" style="fill:#263238;stroke:#fff;stroke-linecap:round;stroke-linejoin:round"></ellipse><ellipse cx="284.38" cy="313.91" rx="63.95" ry="37.1" style="fill:#263238;stroke:#fff;stroke-linecap:round;stroke-linejoin:round"></ellipse><path d="M392.44,176.4a108.16,108.16,0,1,0-186.13,74.95c12.92,17.63,15.83,29.42,16.16,35.83a31.83,31.83,0,0,0-.57,5.87c0,24.26,27.93,43.93,62.38,43.93s62.39-19.67,62.39-43.93c.64-19.29,9.54-33.92,13.93-40A107.82,107.82,0,0,0,392.44,176.4Z" style="fill:#6632C0"></path><path d="M392.44,176.4a108.16,108.16,0,1,0-186.13,74.95c12.92,17.63,15.83,29.42,16.16,35.83a31.83,31.83,0,0,0-.57,5.87c0,24.26,27.93,43.93,62.38,43.93s62.39-19.67,62.39-43.93c.64-19.29,9.54-33.92,13.93-40A107.82,107.82,0,0,0,392.44,176.4Z" style="fill:#fff;opacity:0.8"></path><path d="M392.44,176.4a108.16,108.16,0,1,0-186.13,74.95c12.92,17.63,15.83,29.42,16.16,35.83a31.83,31.83,0,0,0-.57,5.87c0,24.26,27.93,43.93,62.38,43.93s62.39-19.67,62.39-43.93c.64-19.29,9.54-33.92,13.93-40A107.82,107.82,0,0,0,392.44,176.4Z" style="fill:none;stroke:#263238;stroke-linecap:round;stroke-linejoin:round"></path></g><g id="freepik--gears-1--inject-73"><path d="M351,181.42l10.57,2.42,3.72-16.31-10.21-2.33c0-.15,0-.29,0-.44A35.82,35.82,0,0,0,352,150l1.46-15.36-4-4-7.65,6.1a35.81,35.81,0,0,0-14.35-7.08v-9.58H310.71v9.58a35.83,35.83,0,0,0-14.38,7.1l-7.59-6.06-10.43,13.07,7.85,6.26A35.87,35.87,0,0,0,283,164.76c0,.18,0,.36,0,.54l-10.12,2.31,3.72,16.3,10.51-2.4A36.16,36.16,0,0,0,296.68,193l-4.8,10,15.06,7.26,4.89-10.15a36,36,0,0,0,7.24.73,36.68,36.68,0,0,0,7.39-.76l4.89,10.14,15.06-7.25-4.83-10A36.12,36.12,0,0,0,351,181.42Zm-52.71-16.66a20.75,20.75,0,1,1,20.75,20.75A20.75,20.75,0,0,1,298.32,164.76Z" style="fill:#fff;stroke:#263238;stroke-linecap:round;stroke-linejoin:round"></path><polygon points="291.88 202.97 295.88 206.97 300.68 197 296.68 193 291.88 202.97" style="fill:#fff;stroke:#263238;stroke-linecap:round;stroke-linejoin:round"></polygon><polygon points="335.35 214.19 331.35 210.19 328.47 203.84 330.46 204.05 335.35 214.19" style="fill:#fff;stroke:#263238;stroke-linecap:round;stroke-linejoin:round"></polygon><polygon points="369.32 171.54 365.32 167.53 356.18 165.41 356.96 169.85 369.32 171.54" style="fill:#fff;stroke:#263238;stroke-linecap:round;stroke-linejoin:round"></polygon><path d="M355,185.43l10.56,2.41,3.72-16.3-10.21-2.33c0-.15,0-.3,0-.45A36,36,0,0,0,356,154l7.88-6.29-10.43-13.07-7.64,6.1a36,36,0,0,0-14.36-7.08v-9.57H314.71v9.57a36.05,36.05,0,0,0-14.37,7.1l-7.6-6.06-10.42,13.08,7.84,6.25A35.86,35.86,0,0,0,287,168.76c0,.19,0,.36,0,.55l-10.12,2.3,3.72,16.31,10.52-2.4A36.2,36.2,0,0,0,300.68,197l-4.8,10L311,214.23l4.88-10.15a36.29,36.29,0,0,0,14.63,0l4.89,10.14,15.07-7.25-4.84-10A36.24,36.24,0,0,0,355,185.43Zm-52.72-16.67a20.76,20.76,0,1,1,20.75,20.76A20.75,20.75,0,0,1,302.32,168.76Z" style="fill:#263238;stroke:#263238;stroke-linecap:round;stroke-linejoin:round"></path><polygon points="314.71 124.13 310.71 120.12 327.43 120.12 331.43 124.13 314.71 124.13" style="fill:#fff;stroke:#263238;stroke-linecap:round;stroke-linejoin:round"></polygon><polygon points="314.71 133.7 310.71 129.7 310.71 120.12 314.71 124.13 314.71 133.7" style="fill:#fff;stroke:#263238;stroke-linecap:round;stroke-linejoin:round"></polygon><polygon points="282.32 147.82 278.31 143.81 288.74 130.74 292.74 134.74 282.32 147.82" style="fill:#fff;stroke:#263238;stroke-linecap:round;stroke-linejoin:round"></polygon><polygon points="287.04 169.31 283.04 165.3 272.92 167.61 276.92 171.62 287.04 169.31" style="fill:#fff;stroke:#263238;stroke-linecap:round;stroke-linejoin:round"></polygon><polygon points="280.64 187.92 276.64 183.91 272.92 167.61 276.92 171.62 280.64 187.92" style="fill:#fff;stroke:#263238;stroke-linecap:round;stroke-linejoin:round"></polygon><path d="M286.66,229.16l8.4,1.91L298,218.13l-8.11-1.86c0-.11,0-.23,0-.35a28.53,28.53,0,0,0-2.5-11.69L288.57,192l-3.18-3.18-6.07,4.84a28.63,28.63,0,0,0-11.4-5.62v-7.61H254.64v7.61a28.53,28.53,0,0,0-11.42,5.63l-6-4.8-8.28,10.38,6.23,5a28.63,28.63,0,0,0-2.49,11.67c0,.15,0,.29,0,.43l-8,1.84,3,12.94,8.35-1.9a28.9,28.9,0,0,0,7.57,9.12l-3.81,7.92,12,5.76,3.88-8.06a28.68,28.68,0,0,0,5.75.58,29.07,29.07,0,0,0,5.87-.6L271,252l12-5.76-3.83-8A28.65,28.65,0,0,0,286.66,229.16ZM244.8,215.92a16.48,16.48,0,1,1,16.48,16.49A16.48,16.48,0,0,1,244.8,215.92Z" style="fill:#fff;stroke:#263238;stroke-linecap:round;stroke-linejoin:round"></path><polygon points="239.69 246.27 242.87 249.45 246.68 241.53 243.5 238.35 239.69 246.27" style="fill:#fff;stroke:#263238;stroke-linecap:round;stroke-linejoin:round"></polygon><polygon points="274.21 255.18 271.03 252 268.74 246.96 270.33 247.13 274.21 255.18" style="fill:#fff;stroke:#263238;stroke-linecap:round;stroke-linejoin:round"></polygon><polygon points="301.19 221.31 298.01 218.13 290.75 216.44 291.38 219.97 301.19 221.31" style="fill:#fff;stroke:#263238;stroke-linecap:round;stroke-linejoin:round"></polygon><path d="M289.84,232.34l8.4,1.91,2.95-12.94-8.11-1.86c0-.11,0-.23,0-.35a28.53,28.53,0,0,0-2.5-11.69l6.26-5L288.57,192l-6.07,4.84a28.5,28.5,0,0,0-11.4-5.62v-7.61H257.82v7.61a28.53,28.53,0,0,0-11.42,5.63l-6-4.81-8.28,10.39,6.23,5a28.63,28.63,0,0,0-2.49,11.67c0,.15,0,.29,0,.43l-8,1.84,2.95,12.94,8.35-1.9a28.77,28.77,0,0,0,7.57,9.12l-3.81,7.92,12,5.76,3.88-8.06a28.68,28.68,0,0,0,5.75.58,29.15,29.15,0,0,0,5.87-.6l3.88,8.05,12-5.76-3.83-8A28.65,28.65,0,0,0,289.84,232.34ZM248,219.1a16.48,16.48,0,1,1,16.48,16.49A16.48,16.48,0,0,1,248,219.1Z" style="fill:#263238;stroke:#263238;stroke-linecap:round;stroke-linejoin:round"></path><polygon points="257.82 183.65 254.64 180.47 267.92 180.47 271.1 183.65 257.82 183.65" style="fill:#fff;stroke:#263238;stroke-linecap:round;stroke-linejoin:round"></polygon><polygon points="257.82 191.26 254.64 188.08 254.64 180.47 257.82 183.65 257.82 191.26" style="fill:#fff;stroke:#263238;stroke-linecap:round;stroke-linejoin:round"></polygon><polygon points="232.09 202.47 228.91 199.29 237.19 188.91 240.37 192.08 232.09 202.47" style="fill:#fff;stroke:#263238;stroke-linecap:round;stroke-linejoin:round"></polygon><polygon points="235.84 219.53 232.66 216.35 224.63 218.19 227.81 221.37 235.84 219.53" style="fill:#fff;stroke:#263238;stroke-linecap:round;stroke-linejoin:round"></polygon><polygon points="230.76 234.31 227.58 231.13 224.63 218.19 227.81 221.37 230.76 234.31" style="fill:#fff;stroke:#263238;stroke-linecap:round;stroke-linejoin:round"></polygon></g></svg>